<?xml version="1.0" encoding="utf-8"?>
<!-- Generator: Adobe Illustrator 17.1.0, SVG Export Plug-In . SVG Version: 6.00 Build 0)  -->
<!DOCTYPE svg PUBLIC "-//W3C//DTD SVG 1.1//EN" "http://www.w3.org/Graphics/SVG/1.1/DTD/svg11.dtd">
<svg version="1.1" id="Calque_1" xmlns="http://www.w3.org/2000/svg" xmlns:xlink="http://www.w3.org/1999/xlink" x="0px" y="0px"
	 viewBox="0 0 162 52" enable-background="new 0 0 162 52" xml:space="preserve">
<g>
	<g>
		<g>
			<rect y="20" fill="#0371B3" width="30" height="31"/>
			<polygon fill="#FFFFFF" points="20,41 20,24 12.8,24 2.3,46 8,46 15,32.2 15,46 27,46 27,41 			"/>
			<g>
				<rect x="31" y="40" fill="#0371B3" width="124" height="1"/>
				<polygon fill="#0371B3" points="159,38 160,38 160,0 21,0 21,19 22,19 22,1 159,1 				"/>
			</g>
			<g>
				<path fill="#E92139" d="M33,27l5.5-12.8h3.8L47.6,27h-3.3l-1.1-2.7h-6L36.1,27H33z M42.4,22.1l-2.1-5.5l0,0l-2.2,5.5H42.4z"/>
				<rect x="48.6" y="14.1" fill="#E92139" width="3.2" height="12.8"/>
				<path fill="#E92139" d="M57,27h-3.2V14.1h6.4c2.6,0,5.2,0.7,5.2,3.3c0,1.7-1.3,2.8-3.1,3.1l0,0c2.5,0.2,2.5,1.5,2.8,3.3
					c0.1,0.8,0.3,2.3,0.9,3h-3.6c-0.3-1.1-0.4-2.3-0.6-3.5c-0.1-0.7-0.3-1.7-1.4-1.7H57V27z M57,19.7h2.7c1.4,0,2.3-0.6,2.3-1.8
					c0-1.1-0.8-1.6-2.3-1.6H57V19.7z"/>
				<polygon fill="#E92139" points="75.2,27 75.2,14.1 78.4,14.1 78.4,24.9 85,24.9 85,27 				"/>
				<rect x="86.1" y="14.1" fill="#E92139" width="3.2" height="12.8"/>
				<path fill="#E92139" d="M106.1,27h-6.4c-0.3,0.1-0.5,0.1-0.8,0.2s-0.5,0.1-0.8,0.1c-5,0-7.3-2.9-7.3-6.7s2.3-6.7,7.3-6.7
					s7.3,2.9,7.3,6.7c0,1.4-1.1,3.7-2.3,4.5l0,0c0.3-0.1,1.1-0.1,1.9-0.1h1.1C106.1,25,106.1,27,106.1,27z M102,20.6
					c0-2.2-0.6-4.7-3.8-4.7c-3.2,0-3.8,2.5-3.8,4.7s0.6,4.7,3.8,4.7S102,22.8,102,20.6z"/>
				<path fill="#E92139" d="M120.4,14.1v8c0,3.4-2.9,5.1-6.5,5.1c-3.7,0-6.5-1.7-6.5-5.1v-8h3.2v7c0,2.2,0.1,4.1,3.3,4.1
					c3.2,0,3.3-2,3.3-4.1v-7H120.4z"/>
				<rect x="122.7" y="14.1" fill="#E92139" width="3.2" height="12.8"/>
				<path fill="#E92139" d="M128,14.1h5.1c4.7,0,7.6,2,7.6,6.4c0,4.5-2.9,6.5-7.6,6.4H128V14.1z M131.3,24.9h1.7
					c3.8,0,4.4-2.2,4.4-4.3c0-2-0.6-4.3-4.4-4.3h-1.7V24.9z"/>
				<polygon fill="#E92139" points="142.4,14.1 152.5,14.1 152.5,16.3 145.7,16.3 145.7,19.3 152.1,19.3 152.1,21.4 145.7,21.4 
					145.7,24.9 152.8,24.9 152.8,27 142.4,27 				"/>
			</g>
		</g>
	</g>
</g>
<g>
	<polygon fill="#0371B3" points="156,38.9 157.7,38.9 157.7,39.2 157,39.2 157,41 156.7,41 156.7,39.2 156,39.2 	"/>
	<path fill="#0371B3" d="M159.8,41v-1.2c0-0.1,0-0.3,0-0.5l0,0l-0.6,1.8h-0.3l-0.6-1.8l0,0c0,0.2,0,0.5,0,0.5V41H158v-2.1h0.4
		l0.6,1.8l0,0l0.6-1.8h0.4V41H159.8z"/>
</g>
</svg>
