<svg width="124" height="33" viewBox="0 0 124 33" fill="none" xmlns="http://www.w3.org/2000/svg">
<path d="M33.9433 8.63528C29.4282 8.63528 26.2435 11.6316 26.2435 16.2611C26.2435 20.8101 29.21 24.0775 33.9433 24.0775C38.4838 24.0775 41.642 21.0007 41.642 16.2611C41.642 11.8498 38.6525 8.63528 33.9433 8.63528ZM33.9433 20.5643C31.8206 20.5643 30.4602 18.8749 30.4602 16.2611C30.4602 13.7563 31.8206 12.1484 33.9433 12.1484C36.066 12.1484 37.4276 13.7563 37.4276 16.2611C37.431 18.8749 36.0706 20.5643 33.9468 20.5643H33.9433ZM68.7204 8.63528H63.575L57.999 14.5384V4.45029H53.8076V23.7226H58.0025V19.3584L60.1435 17.243L64.2064 23.718H69.0281L63.0836 14.3546L68.7204 8.63528ZM70.3024 23.7226H74.495V4.45029H70.3035L70.3024 23.7226ZM103.177 11.2917C102.302 9.69301 100.455 8.63528 98.2292 8.63528C94.4178 8.63528 91.6946 11.7683 91.6946 16.2898C91.6946 20.8916 94.4178 24.0775 98.2843 24.0775C100.216 24.0775 101.823 23.2885 102.748 21.9804V23.7226H106.94V8.99015H103.525L103.177 11.2917ZM99.3439 20.6183C97.3291 20.6183 95.9412 18.8198 95.9366 16.2461C95.9366 13.7287 97.3257 11.9566 99.3428 11.9566C101.36 11.9566 102.748 13.7011 102.748 16.191C102.748 18.7911 101.356 20.6172 99.3439 20.6183ZM117.464 8.63872C115.237 8.63872 113.391 9.69186 112.517 11.2928L112.173 8.99589H108.758V28.259H112.949V21.9838C113.874 23.2908 115.489 24.0809 117.414 24.0809C121.28 24.0809 124.001 20.8939 124.001 16.2921C123.998 11.7717 121.277 8.63872 117.464 8.63872ZM116.345 20.6195C114.329 20.6195 112.94 18.821 112.94 16.2553C112.94 13.8056 114.328 12.0887 116.345 12.0887C118.362 12.0887 119.751 13.8321 119.751 16.3104C119.751 18.8485 118.362 20.6195 116.345 20.6195ZM83.3382 8.63528C78.9585 8.63528 75.8829 11.8211 75.8829 16.4207C75.8829 20.9387 79.0675 24.0683 83.6068 24.0775C86.788 24.0775 89.1633 22.5569 90.1884 19.8603L86.408 18.9875C86.0004 20.0211 84.8352 20.6183 83.5035 20.6183C81.5438 20.6183 80.3109 19.2826 80.0147 17.3222H90.441L90.4743 16.9306C90.5306 16.3366 90.5306 15.7387 90.4743 15.1447C90.061 11.0597 87.1542 8.63528 83.3382 8.63528ZM80.1754 14.814C80.5898 13.0488 81.8595 11.9566 83.3772 11.9566C84.9776 11.9566 86.113 12.911 86.3322 14.814H80.1754ZM46.699 11.8774L46.2616 8.98556H42.8463V23.7226H47.0388V16.6148C47.0388 14.1353 48.7815 12.6652 51.7205 12.6652H52.3473V8.63528H51.9271C49.2958 8.63528 47.6978 9.67578 46.699 11.8774ZM22.4872 8.98556L19.0431 19.4618L15.7965 8.99015H11.7061L8.44918 21.9494L4.97641 8.99015H0.569153L5.87187 28.2625H10.4261L13.7553 15.2401L16.9009 24.0832H21.7663L26.8968 8.99589L22.4872 8.98556Z" fill="#171417"/>
</svg>
