<svg xmlns="http://www.w3.org/2000/svg" viewBox="148 36 154 28" fill="none" role="img" aria-label="assistant-ui">
  <title>assistant-ui</title>
  <!-- Official assistant-ui logo (chat-bubble mark + wordmark). Source: github.com/assistant-ui/assistant-ui — .github/assets/header.svg. Recoloured from #000 to brand ink zinc-900 #18181b (shadcn primary). -->
  <g stroke="#18181b" stroke-linecap="round" stroke-linejoin="round" stroke-width="3" clip-path="url(#aui-clip)">
    <path d="M165 47a2 2 0 0 1-2 2h-6l-4 4V42c0-1.1.9-2 2-2h8a2 2 0 0 1 2 2zM169 47h2a2 2 0 0 1 2 2v11l-4-4h-6a2 2 0 0 1-2-2v-1"/>
  </g>
  <path fill="#18181b" d="M185 49.64q.32-1.66 1.54-2.56 1.24-.92 3.2-.92 2.28 0 3.46 1.16 1.2 1.16 1.2 3.4v3.64q0 .44.16.62.18.16.5.16h.42V57l-.6.02h-.22q-.92.04-1.64-.28-.72-.34-.84-1.36-.4.84-1.32 1.36-.9.5-2.22.5-1.64 0-2.74-.82-1.08-.82-1.08-2.2 0-1 .46-1.62.48-.62 1.34-.96.86-.36 2.24-.64l2.96-.58q0-1.24-.52-1.82-.52-.6-1.56-.6-.86 0-1.4.46-.54.44-.72 1.32zm2.48 4.5q0 .58.48.94t1.38.36q.74 0 1.3-.36.58-.36.9-1.06.34-.72.34-1.72v-.14l-2.02.36q-.14.02-.3.04-.72.14-1.16.3a1.44 1.44 0 0 0-.68.46q-.24.3-.24.82m16.114-4.34a1.9 1.9 0 0 0-.76-1.24 2.23 2.23 0 0 0-1.4-.48q-.76 0-1.28.38a1.14 1.14 0 0 0-.48 1q.02.6.6.92t1.54.5q1.54.26 2.5.64.98.38 1.48 1.02.52.64.52 1.62 0 1.02-.6 1.72-.6.68-1.62 1.02t-2.3.34q-1.44 0-2.56-.42-1.1-.44-1.76-1.26a3.45 3.45 0 0 1-.72-1.92l2.62-.14q.1.56.4.96t.8.62 1.16.22q.78 0 1.36-.3t.56-.9q0-.42-.26-.68-.24-.26-.62-.38a7 7 0 0 0-.98-.28 5 5 0 0 0-.4-.08q-1.48-.3-2.4-.66t-1.46-.96q-.52-.62-.52-1.56 0-1.04.54-1.78.56-.76 1.58-1.16 1.04-.4 2.44-.4 1.88 0 3.1.94 1.24.94 1.52 2.58zm11.191 0a1.9 1.9 0 0 0-.76-1.24q-.62-.48-1.4-.48-.76 0-1.28.38a1.15 1.15 0 0 0-.48 1q.02.6.6.92t1.54.5q1.54.26 2.5.64.98.38 1.48 1.02.52.64.52 1.62 0 1.02-.6 1.72-.6.68-1.62 1.02t-2.3.34q-1.44 0-2.56-.42-1.1-.44-1.76-1.26a3.45 3.45 0 0 1-.72-1.92l2.62-.14q.1.56.4.96t.8.62 1.16.22q.78 0 1.36-.3t.56-.9q0-.42-.26-.68-.24-.26-.62-.38a7 7 0 0 0-.98-.28 5 5 0 0 0-.4-.08q-1.48-.3-2.4-.66t-1.46-.96q-.52-.62-.52-1.56 0-1.04.54-1.78.56-.76 1.58-1.16 1.04-.4 2.44-.4 1.88 0 3.1.94 1.24.94 1.52 2.58zm7.179-3.4V57h-2.56V46.4zm.06-3.58v2.12h-2.66v-2.12zm8.952 6.98a1.9 1.9 0 0 0-.76-1.24q-.62-.48-1.4-.48-.76 0-1.28.38a1.15 1.15 0 0 0-.48 1q.021.6.6.92.58.32 1.54.5 1.54.26 2.5.64.98.38 1.48 1.02.52.64.52 1.62 0 1.02-.6 1.72-.6.68-1.62 1.02t-2.3.34q-1.44 0-2.56-.42-1.1-.44-1.76-1.26a3.46 3.46 0 0 1-.72-1.92l2.62-.14q.1.56.4.96t.8.62 1.16.22q.78 0 1.36-.3t.56-.9q0-.42-.26-.68-.24-.26-.62-.38a7 7 0 0 0-.98-.28 5 5 0 0 0-.4-.08q-1.479-.3-2.4-.66t-1.46-.96q-.52-.62-.52-1.56 0-1.04.54-1.78.56-.76 1.58-1.16 1.04-.4 2.44-.4 1.88 0 3.1.94 1.24.94 1.52 2.58zm8.125-5.8v9.74q0 .62.3.96.32.32.9.32h1.6V57h-2.02q-1.64 0-2.5-.82-.84-.82-.84-2.44V44zm2.8 2.4v1.98h-7.04V46.4zm1.654 3.24q.32-1.66 1.54-2.56 1.24-.92 3.2-.92 2.28 0 3.46 1.16 1.2 1.16 1.2 3.4v3.64q0 .44.16.62.18.16.5.16h.42V57l-.6.02h-.22q-.92.04-1.64-.28-.72-.34-.84-1.36-.4.84-1.32 1.36-.9.5-2.22.5-1.64 0-2.74-.82-1.08-.82-1.08-2.2 0-1 .46-1.62.48-.62 1.34-.96.86-.36 2.24-.64l2.96-.58q0-1.24-.52-1.82-.52-.6-1.56-.6-.86 0-1.4.46-.54.44-.72 1.32zm2.48 4.5q0 .58.48.94t1.38.36q.74 0 1.3-.36.579-.36.9-1.06.34-.72.34-1.72v-.14l-2.02.36q-.141.02-.3.04-.72.14-1.16.3a1.44 1.44 0 0 0-.68.46q-.24.3-.24.82m12.212-7.74.12 2.98-.32-.16q.22-1.58 1.14-2.32.94-.74 2.32-.74 1.72 0 2.68 1.1.96 1.08.96 2.92V57h-2.58v-6q0-1.4-.42-2.08t-1.42-.68q-1.06 0-1.66.72-.58.7-.58 2.04v6h-2.56V46.4zm13.041-2.4v9.74q0 .62.3.96.321.32.9.32h1.6V57h-2.02q-1.64 0-2.5-.82-.84-.82-.84-2.44V44zm2.8 2.4v1.98h-7.04V46.4zm8.274 3.68v2.16h-6.8v-2.16zM291.34 57l-.06-2.92.32.16q-.24 1.56-1.16 2.28-.921.72-2.28.72-1.68 0-2.64-1.1-.94-1.1-.94-2.92V46.4h2.56v5.98q0 1.42.42 2.1t1.4.68q1.04 0 1.6-.7.58-.72.58-2.08V46.4h2.56V57zm7.518-10.6V57h-2.56V46.4zm.06-3.58v2.12h-2.66v-2.12z"/>
  <defs><clipPath id="aui-clip"><path fill="#fff" d="M151 38h24v24h-24z"/></clipPath></defs>
</svg>
