<svg xmlns="http://www.w3.org/2000/svg" width="77" height="25" viewBox="0 0 77 25" fill="none" role="img" aria-label="Nuvei">
  <path d="M16.7147 12.9219V24.587H11.7424V15.1166C11.7424 13.0885 10.6962 12.058 8.62392 12.058C7.23303 12.058 5.99045 12.6604 5.03446 13.7955L4.96632 13.875V24.587H0V8.27098H4.96632V10.6613L5.4373 10.2546C6.77608 9.0923 8.99669 7.85645 11.2474 7.85645C14.7166 7.85645 16.7147 9.70249 16.7147 12.9219Z" fill="#160850"/>
  <path d="M70.2631 17.8479V16.9685C70.2631 11.5175 66.8159 7.85449 61.6772 7.85449C56.5385 7.85449 52.7246 11.5311 52.7246 16.4087C52.7246 21.2862 56.5085 24.9996 61.9237 24.9996C64.6394 24.9996 67.2488 24.2364 68.812 22.9928L66.7858 20.093C65.7316 20.8775 64.1003 21.3947 62.6132 21.3947C59.7713 21.3947 58.3283 19.7385 57.9535 18.3206C57.8934 18.1791 57.8693 17.8479 57.8693 17.8479H70.2631ZM57.7891 14.9055L57.8493 14.5859C58.1118 13.0749 59.2622 11.4613 61.6792 11.4613C64.2526 11.4613 65.3729 13.1544 65.5452 14.6014L65.5833 14.9074H57.7911L57.7891 14.9055Z" fill="#160850"/>
  <path d="M76.611 8.27051H71.6387V24.5866H76.611V8.27051Z" fill="#160850"/>
  <path d="M30.1322 8.27147H35.0985V24.5875H30.1322V22.2901L29.6612 22.6969C28.3906 23.8166 26.192 25.0001 23.8512 25.0001C20.3519 25.0001 18.4219 23.2277 18.4219 20.0063V8.26953H23.3942V17.8039C23.3942 19.8165 24.4264 20.7986 26.5428 20.7986C28.2924 20.7986 29.4287 19.8533 30.0721 19.0552L30.1322 18.9816V8.26953V8.27147Z" fill="#160850"/>
  <path d="M53.7598 8.27051L47.156 24.5846H41.6506L35.0469 8.27051H40.2898L44.4043 19.3158L48.5169 8.27051H53.7598Z" fill="#160850"/>
  <path d="M77.0002 2.79715C77.0002 4.36619 75.7356 5.5943 74.1202 5.5943C72.5049 5.5943 71.2402 4.36619 71.2402 2.79715C71.2402 1.22811 72.5049 0 74.1202 0C75.7356 0 77.0002 1.22811 77.0002 2.79715Z" fill="#0C98D4"/>
</svg>
