<?xml version="1.0" encoding="UTF-8"?>
<svg version="1.1" viewBox="0 0 892.9 135.7" xmlns="http://www.w3.org/2000/svg" xmlns:cc="http://creativecommons.org/ns#" xmlns:dc="http://purl.org/dc/elements/1.1/" xmlns:rdf="http://www.w3.org/1999/02/22-rdf-syntax-ns#">
 <defs>
  <clipPath id="cvfa">
   <path d="m549.3 0h242.7v60.41h-242.7v-60.41z"/>
  </clipPath>
 </defs>
 <title>Société de transport de Montréal logo</title>
 <metadata>
  <rdf:RDF>
   <cc:Work rdf:about="">
    <dc:format>image/svg+xml</dc:format>
    <dc:type rdf:resource="http://purl.org/dc/dcmitype/StillImage"/>
    <dc:title/>
   </cc:Work>
  </rdf:RDF>
 </metadata>
 <g transform="translate(117.8 -356.6)">
  <g transform="matrix(4.701 0 0 -4.701 -2824 593.6)">
   <g clip-path="url(#cvfa)">
    <g transform="translate(763.4 37.3)">
     <path d="m0 0c-0.941 0.945-2.307 1.436-3.997 1.436-1.664 2e-3 -3.023-0.611-4.132-1.903-1.051 1.481-2.764 1.903-3.791 1.903-1.744 3e-3 -2.612-0.621-3.427-1.4-0.173 0.593-0.529 1.185-1.333 1.185h-0.839c-0.336 0-0.647-0.093-0.873-0.322-0.225-0.229-0.357-0.587-0.357-1.098v-13.14c0-0.511 0.132-0.869 0.357-1.098 0.226-0.23 0.537-0.322 0.873-0.321l1.082-1e-3c0.336 0 0.647 0.092 0.873 0.322 0.225 0.229 0.357 0.587 0.357 1.098v8.654c8e-3 1.923 0.989 2.711 2.395 2.719 1.404-8e-3 2.385-0.796 2.393-2.719v-8.654c0-0.511 0.132-0.869 0.358-1.098 0.225-0.23 0.536-0.322 0.872-0.321l1.082-1e-3c0.336 0 0.646 0.092 0.872 0.314 0.225 0.222 0.358 0.567 0.358 1.051v8.709c8e-3 1.923 0.989 2.711 2.394 2.719 1.405-8e-3 2.386-0.796 2.395-2.719v-8.654c-1e-3 -0.511 0.131-0.869 0.356-1.098 0.226-0.23 0.538-0.322 0.873-0.322l1.082 1e-3c0.336-1e-3 0.647 0.091 0.873 0.321 0.225 0.229 0.357 0.587 0.357 1.098v9.223c0 1.783-0.511 3.175-1.453 4.12m-20.24-12.52c-0.179 0.832-0.661 1.174-1.209 1.169-0.108 0-0.219-0.012-0.331-0.035-0.333-0.062-0.623-0.096-0.873-0.096-0.578 3e-3 -0.926 0.174-1.157 0.621-0.23 0.452-0.323 1.2-0.323 2.33v6.532h2.475c0.336 0 0.647 0.092 0.873 0.321s0.357 0.587 0.357 1.099v0.378c0 0.511-0.131 0.869-0.357 1.098s-0.537 0.322-0.873 0.322h-2.475v2.772c0 0.389-0.115 0.698-0.305 0.91-0.189 0.213-0.452 0.325-0.735 0.325-0.186 0-0.381-0.049-0.571-0.147l-0.866-0.433c-0.521-0.269-0.988-0.629-1.011-1.546v-1.881h-1.393c-0.336 0-0.647-0.093-0.873-0.322-0.225-0.229-0.358-0.587-0.357-1.098v-0.378c-1e-3 -0.512 0.131-0.87 0.357-1.099s0.537-0.321 0.873-0.321h1.339v-6.83c-0.01-3.877 1.378-5.995 4.42-6.044 0.601 0 1.419 0.054 2.214 0.328 0.502 0.179 0.941 0.5 0.938 1.181 0 0.14-0.018 0.295-0.056 0.466l-0.081 0.378zm-16.36 7.652c-0.984 0.162-1.71 0.345-2.179 0.601-0.471 0.259-0.683 0.573-0.685 1.037 0 0.448 0.234 0.831 0.639 1.111 0.405 0.277 0.98 0.444 1.646 0.444 1.259-1e-3 2.259-0.37 3.031-1.327 0.369-0.472 0.697-0.682 1.07-0.681 0.23 0 0.468 0.076 0.741 0.203l0.302 0.164c0.638 0.298 0.902 0.697 0.9 1.124 0 0.194-0.053 0.391-0.141 0.585-0.83 1.792-3.231 3.04-5.768 3.041-2.056 0-3.536-0.675-4.499-1.617-0.963-0.943-1.41-2.15-1.41-3.21-5e-3 -2.908 1.948-4.185 5.954-4.718 1.254-0.175 2.065-0.405 2.553-0.707 0.488-0.304 0.659-0.663 0.662-1.147-1e-3 -0.611-0.309-1.08-0.808-1.407-0.5-0.326-1.191-0.5-1.938-0.5-1.339 2e-3 -2.633 0.423-3.623 1.89-0.291 0.44-0.613 0.715-1.053 0.715-0.218 0-0.459-0.067-0.737-0.206l-0.349-0.161c-0.643-0.299-0.907-0.699-0.904-1.125 0-0.194 0.053-0.391 0.141-0.585 1.017-2.33 3.692-3.636 6.363-3.637 1.877 0 3.474 0.496 4.605 1.394 1.131 0.897 1.791 2.197 1.791 3.784 3e-3 3.102-2.166 4.239-6.304 4.935" style="fill:#009ee0"/>
    </g>
    <g transform="translate(712.5 35.43)">
     <path d="m0 0c-1.015 0-1.994 0.558-2.475 1.532l6.203 3.103c0.935 0.462 1.525 1.427 1.525 2.476 0 1.059-0.59 2.002-1.525 2.471l-6.207 3.107c0.482 0.967 1.462 1.532 2.479 1.532 0.415 0 0.837-0.095 1.234-0.294l8.67-4.345c0.95-0.469 1.537-1.412 1.537-2.471 0-1.049-0.587-2.014-1.537-2.476l-8.67-4.344c-0.396-0.197-0.818-0.291-1.234-0.291" style="fill:#009ee0"/>
    </g>
    <g transform="translate(706.3 35.43)">
     <path d="m0 0c-1.016 0-1.992 0.559-2.47 1.536-0.688 1.37-0.135 3.035 1.231 3.716l3.713 1.859-3.713 1.854c-1.366 0.689-1.919 2.362-1.231 3.724 0.479 0.967 1.454 1.532 2.472 1.532 0.416 0 0.839-0.095 1.237-0.294l2.472-1.238c-0.204-0.404-0.3-0.836-0.297-1.261 8e-3 -1.008 0.567-1.979 1.527-2.463l3.717-1.854-3.717-1.859c-0.96-0.479-1.519-1.444-1.527-2.451-3e-3 -0.426 0.093-0.859 0.297-1.265l3e-3 -4e-3 -2.475-1.241c-0.399-0.197-0.822-0.291-1.239-0.291" style="fill:#ffe400"/>
    </g>
    <g transform="translate(710 36.96)">
     <path d="m0 0-4e-3 4e-3c-0.204 0.407-0.299 0.839-0.296 1.265 8e-3 1.007 0.566 1.973 1.526 2.452l3.717 1.858-3.717 1.855c-0.96 0.484-1.518 1.454-1.526 2.462-3e-3 0.425 0.092 0.857 0.296 1.261l6.207-3.107c0.935-0.469 1.526-1.411 1.526-2.471 0-1.049-0.591-2.014-1.526-2.475l-6.203-3.104" style="fill:#009534"/>
    </g>
    <g transform="translate(583.4 46.1)">
     <path d="m0 0h-1.163c-0.336-2e-3 -0.461-0.105-0.557-0.411l-1.516-4.739-1.515 4.74c-0.096 0.305-0.221 0.408-0.557 0.41h-1.182c-0.337-5e-3 -0.427-0.098-0.433-0.432v-6.244c6e-3 -0.339 0.096-0.431 0.433-0.436h0.463c0.336 5e-3 0.427 0.097 0.432 0.436v4.625l0.043 7e-3 1.467-4.655c0.095-0.292 0.205-0.402 0.47-0.413h0.643c0.278 0.011 0.386 0.122 0.482 0.413l1.514 4.655 0.042-7e-3v-4.625c5e-3 -0.339 0.097-0.431 0.433-0.436h0.501c0.337 5e-3 0.427 0.097 0.433 0.436v6.244c-6e-3 0.334-0.096 0.427-0.433 0.432" style="fill:#009ee0"/>
    </g>
    <g transform="translate(588.3 40.15)">
     <path d="m0 0c-1.026 2e-3 -1.817 0.874-1.819 2.397 2e-3 1.511 0.793 2.374 1.819 2.377 1.008-3e-3 1.808-0.866 1.81-2.377-2e-3 -1.523-0.802-2.395-1.81-2.397m0 6.018c-2.041-1e-3 -3.25-1.5-3.252-3.574 2e-3 -2.189 1.211-3.687 3.252-3.688 2.013 1e-3 3.241 1.499 3.243 3.688-2e-3 2.074-1.23 3.573-3.243 3.574" style="fill:#009ee0"/>
    </g>
    <g transform="translate(598 46.1)">
     <path d="m0 0h-0.55c-0.335-5e-3 -0.427-0.099-0.432-0.432v-3.599c-1e-3 -1.691-0.876-1.91-1.432-1.912-0.572 2e-3 -1.439 0.221-1.439 1.912v3.599c-6e-3 0.333-0.098 0.427-0.434 0.432h-0.548c-0.336-5e-3 -0.427-0.099-0.432-0.432v-3.765c2e-3 -1.99 1.113-2.988 2.853-2.991 1.705 3e-3 2.844 1.002 2.846 2.968v3.788c-5e-3 0.333-0.097 0.427-0.432 0.432" style="fill:#009ee0"/>
    </g>
    <g transform="translate(602 38.98)">
     <path d="m0 0h0.719c0.327 3e-3 0.471 0.097 0.585 0.414l2.139 6.195c0.024 0.075 0.038 0.141 0.038 0.198-2e-3 0.181-0.109 0.303-0.387 0.306h-0.568c-0.335-4e-3 -0.392-0.101-0.5-0.421l-1.657-4.945-1.657 4.945c-0.108 0.32-0.166 0.417-0.5 0.421h-0.587c-0.279-3e-3 -0.385-0.125-0.388-0.306 0-0.057 0.013-0.124 0.039-0.198l2.139-6.195c0.114-0.317 0.258-0.411 0.585-0.414" style="fill:#009ee0"/>
    </g>
    <g transform="translate(610.1 41.98)">
     <path d="m0 0c0.336 5e-3 0.427 0.095 0.433 0.432v0.407c-6e-3 0.338-0.097 0.428-0.433 0.433l-2.207 0.021 0.022 1.535v8e-3 0.023h2.97c0.336 5e-3 0.428 0.094 0.433 0.432v0.397c-5e-3 0.334-0.097 0.427-0.433 0.433h-3.973c-0.337-6e-3 -0.428-0.099-0.433-0.433v-6.244c5e-3 -0.338 0.096-0.431 0.433-0.436h3.973c0.336 5e-3 0.428 0.098 0.433 0.436v0.397c-5e-3 0.334-0.097 0.428-0.433 0.433l-2.962 0.021h-8e-3 -0.022l0.022 1.673v0.011 0.021h2.185z" style="fill:#009ee0"/>
    </g>
    <g transform="translate(619.4 46.1)">
     <path d="m0 0h-1.164c-0.337-2e-3 -0.462-0.105-0.558-0.411l-1.515-4.741-1.515 4.742c-0.097 0.305-0.221 0.408-0.557 0.41h-1.182c-0.336-5e-3 -0.428-0.098-0.434-0.432v-6.244c6e-3 -0.339 0.098-0.431 0.434-0.436h0.463c0.336 5e-3 0.428 0.097 0.433 0.436v4.625l0.042 7e-3 1.466-4.655c0.096-0.292 0.205-0.402 0.471-0.413h0.643c0.278 0.011 0.386 0.122 0.482 0.413l1.514 4.655 0.042-7e-3v-4.625c5e-3 -0.339 0.097-0.431 0.432-0.436h0.503c0.335 5e-3 0.426 0.097 0.431 0.436v6.244c-5e-3 0.334-0.096 0.427-0.431 0.432" style="fill:#009ee0"/>
    </g>
    <g transform="translate(622.8 41.98)">
     <path d="m0 0h2.186c0.335 5e-3 0.427 0.095 0.433 0.432v0.407c-6e-3 0.338-0.098 0.428-0.433 0.433l-2.207 0.021 0.021 1.566h2.971c0.336 5e-3 0.428 0.094 0.433 0.432v0.397c-5e-3 0.334-0.097 0.427-0.433 0.433h-3.974c-0.336-6e-3 -0.427-0.099-0.432-0.433v-6.244c5e-3 -0.338 0.096-0.431 0.432-0.436h3.974c0.336 5e-3 0.428 0.098 0.433 0.436v0.397c-5e-3 0.334-0.097 0.428-0.433 0.433l-2.962 0.021h-9e-3 -0.021l0.021 1.705z" style="fill:#009ee0"/>
    </g>
    <g transform="translate(632.6 46.1)">
     <path d="m0 0h-0.473c-0.335-5e-3 -0.426-0.099-0.432-0.433v-4.145l-0.04-9e-3 -2.317 4.199c-0.162 0.289-0.309 0.385-0.644 0.388h-0.813c-0.338-5e-3 -0.428-0.099-0.433-0.433v-6.244c5e-3 -0.338 0.095-0.431 0.433-0.437h0.471c0.336 6e-3 0.428 0.099 0.433 0.437v4.566l2.528-4.615c0.162-0.289 0.309-0.385 0.644-0.388h0.643c0.336 6e-3 0.428 0.099 0.434 0.437v6.244c-6e-3 0.334-0.098 0.428-0.434 0.433" style="fill:#009ee0"/>
    </g>
    <g transform="translate(639.1 44.82)">
     <path d="m0 0c0.335 6e-3 0.418 0.095 0.423 0.424v0.425c-5e-3 0.334-0.088 0.428-0.423 0.433h-4.58c-0.334-5e-3 -0.418-0.099-0.423-0.433v-0.425c5e-3 -0.329 0.089-0.418 0.423-0.424h1.562v-0.023h0.021v-5.372c5e-3 -0.338 0.099-0.431 0.433-0.436h0.55c0.334 5e-3 0.427 0.098 0.432 0.436l0.021 5.341v0.031 0.023h1.561z" style="fill:#009ee0"/>
    </g>
    <g transform="translate(648.8 40.28)">
     <path d="m0 0-0.245 0.359c-0.084 0.118-0.167 0.163-0.261 0.163-0.097 0-0.211-0.052-0.343-0.139-0.43-0.308-0.945-0.471-1.451-0.471-1.027 3e-3 -1.808 0.888-1.809 2.342 1e-3 1.474 0.782 2.355 1.809 2.358 0.506 0 1.021-0.163 1.451-0.467 0.131-0.091 0.245-0.143 0.343-0.142 0.094 0 0.177 0.045 0.261 0.165l0.245 0.359c0.09 0.129 0.137 0.234 0.137 0.323 0 0.11-0.062 0.208-0.208 0.33-0.572 0.46-1.353 0.713-2.229 0.713-2.041-1e-3 -3.26-1.5-3.261-3.574 1e-3 -2.188 1.22-3.686 3.261-3.688 0.876 0 1.657 0.255 2.229 0.717 0.145 0.119 0.208 0.221 0.208 0.326 0 0.094-0.046 0.195-0.136 0.325l0.017 0.012-0.018-0.011z" style="fill:#009ee0"/>
    </g>
    <g transform="translate(652.8 40.15)">
     <path d="m0 0c-1.027 2e-3 -1.817 0.874-1.819 2.397 2e-3 1.511 0.792 2.374 1.819 2.377 1.007-3e-3 1.807-0.866 1.808-2.377-1e-3 -1.523-0.801-2.395-1.808-2.397m0 6.018c-2.042-1e-3 -3.251-1.5-3.253-3.574 2e-3 -2.189 1.211-3.687 3.253-3.688 2.011 1e-3 3.24 1.499 3.242 3.688-2e-3 2.074-1.231 3.573-3.242 3.574" style="fill:#009ee0"/>
    </g>
    <g transform="translate(658.5 45.66)">
     <path d="m0 0c-6e-3 0.334-0.098 0.427-0.433 0.432h-0.548c-0.337-5e-3 -0.428-0.098-0.433-0.432v-6.244c5e-3 -0.338 0.096-0.431 0.433-0.436h3.632c0.336 5e-3 0.427 0.098 0.433 0.436v0.416c-6e-3 0.334-0.097 0.427-0.433 0.432l-2.651 0.021v5.375z" style="fill:#009ee0"/>
    </g>
    <g transform="translate(666.8 40.27)">
     <path d="m0 0-2.652 0.021v5.375c-5e-3 0.334-0.096 0.427-0.432 0.432h-0.549c-0.335-5e-3 -0.427-0.098-0.433-0.432v-6.244c6e-3 -0.338 0.098-0.431 0.433-0.436h3.633c0.336 5e-3 0.428 0.098 0.433 0.436v0.416c-5e-3 0.334-0.097 0.427-0.433 0.432" style="fill:#009ee0"/>
    </g>
    <g transform="translate(673.1 45.27)">
     <path d="m0 0v0.397c-5e-3 0.334-0.098 0.428-0.432 0.433h-3.968c-0.337-5e-3 -0.427-0.099-0.432-0.433v-6.244c5e-3 -0.337 0.095-0.43 0.432-0.436h3.968c0.334 6e-3 0.427 0.099 0.432 0.436v0.397c-5e-3 0.334-0.098 0.428-0.432 0.433l-2.988 0.021 0.023 1.705h2.18c0.334 5e-3 0.427 0.095 0.433 0.432v0.407c-6e-3 0.338-0.099 0.428-0.433 0.433l-2.203 0.021 0.023 1.565h2.965c0.334 6e-3 0.427 0.095 0.432 0.433" style="fill:#009ee0"/>
    </g>
    <g transform="translate(678.9 40.8)">
     <path d="m0 0c-0.096 0-0.21-0.052-0.342-0.139-0.43-0.308-0.946-0.471-1.451-0.471-1.026 3e-3 -1.807 0.888-1.81 2.343 3e-3 1.473 0.784 2.354 1.81 2.357 0.505 0 1.021-0.163 1.45-0.467 0.133-0.092 0.247-0.142 0.344-0.142 0.094 0 0.177 0.045 0.261 0.165l0.245 0.359c0.09 0.128 0.137 0.234 0.137 0.324 0 0.108-0.062 0.206-0.208 0.329-0.572 0.459-1.353 0.713-2.229 0.713-2.041-1e-3 -3.261-1.499-3.262-3.574 2e-3 -2.188 1.222-3.687 3.262-3.688 0.876 0 1.657 0.255 2.229 0.717 0.146 0.119 0.208 0.221 0.208 0.326 0 0.094-0.046 0.194-0.137 0.325l-0.245 0.359c-0.085 0.118-0.167 0.163-0.262 0.164" style="fill:#009ee0"/>
    </g>
    <g transform="translate(685.5 45.24)">
     <path d="m0 0v0.426c-5e-3 0.334-0.088 0.427-0.423 0.432h-4.58c-0.335-5e-3 -0.417-0.098-0.423-0.432v-0.426c6e-3 -0.329 0.087-0.418 0.423-0.424h1.562v-0.023h0.021v-5.372c4e-3 -0.338 0.096-0.43 0.433-0.435h0.548c0.336 5e-3 0.428 0.097 0.433 0.435l0.021 5.395h1.562c0.335 6e-3 0.418 0.095 0.423 0.424" style="fill:#009ee0"/>
    </g>
    <g transform="translate(687.6 46.1)">
     <path d="m0 0h-0.55c-0.334-5e-3 -0.426-0.099-0.431-0.433v-6.244c5e-3 -0.337 0.097-0.431 0.431-0.436h0.55c0.336 5e-3 0.427 0.099 0.432 0.436v6.244c-5e-3 0.333-0.096 0.428-0.432 0.433" style="fill:#009ee0"/>
    </g>
    <g transform="translate(691.2 43.18)">
     <path d="m0 0h-0.022l0.022 1.659h2.971c0.335 5e-3 0.426 0.094 0.431 0.432v0.397c-5e-3 0.334-0.096 0.428-0.431 0.433h-3.974c-0.336-5e-3 -0.428-0.099-0.432-0.433v-6.244c4e-3 -0.337 0.096-0.431 0.432-0.436h0.549c0.335 5e-3 0.427 0.099 0.432 0.436l0.022 2.461h2.26c0.336 6e-3 0.428 0.098 0.432 0.434v0.407c-4e-3 0.334-0.096 0.428-0.432 0.432l-2.239 0.022h-0.021z" style="fill:#009ee0"/>
    </g>
   </g>
  </g>
 </g>
</svg>
