<svg height="183.755908" viewBox="0 0 40.664502 13.696354" width="544.200189" xmlns="http://www.w3.org/2000/svg"><g transform="translate(-87.512989 -127.75416)"><path d="m91.896528 132.11151c-.424437 0-.675241-.13091-1.001836-.58291l-.533301-.73449c-.265959-.36518-.527787-.52228-1.105186-.52228h-1.158928v1.83968h-.451996v-4.10517h.451996v1.84519h.832334c.544325 0 .806153-.20119 1.127234-.62012l.930176-1.22507h.566374l-.996322 1.30637c-.249424.33211-.418923.51264-.701421.65871v.006c.435462.0868.653189.26734.913638.6215l.490584.6587c.228755.30454.391361.43546.636654.43546h.136426l-.0441.41892zm3.457498 0v-4.10517h3.564985l.04961.4203h-3.162597v1.40835h2.987587v.452h-2.987587v1.37253h3.385838l-.08268.45199zm11.784984 0c-.41892 0-.66973-.13091-.99632-.58291l-.27699-.39136c-.27285-.38172-.5333-.53881-1.09967-.53881h-1.40009v1.51308h-.45062v-4.10517h2.06844c1.02801 0 1.5999.53881 1.5999 1.27468 0 .59807-.40239.96876-.91364 1.12586v.006c.2384.0923.4079.27286.58704.51815l.24529.32659c.22876.31006.39137.43546.64217.43546h.13643l-.0496.41893zm-2.15525-3.68487h-1.61782v1.74597h1.61782c.64767 0 1.11069-.29903 1.11069-.87505 0-.56637-.47404-.87092-1.11069-.87092m5.672-.4203h.452v4.10517h-.452zm8.6279 4.10517-3.79374-3.46852h-.011v3.46852h-.45199v-4.10517h.41892l3.79512 3.47403h.011v-3.47403h.45199v4.10517zm6.70829.11989c-1.97473 0-2.87321-1.01837-2.87321-2.18281 0-1.18098.91915-2.16214 2.78639-2.16214.67524 0 1.33946.13091 1.9389.38171v.46854c-.58291-.26734-1.25264-.43133-1.94441-.43133-1.54616 0-2.29168.79513-2.29168 1.75424 0 .97979.79513 1.75287 2.38401 1.75287.63803 0 1.22508-.14194 1.59577-.31144v-1.0225h-1.70464l.0551-.41893h2.10702v1.71979c-.52779.26734-1.24713.452-2.05328.452"/><path d="m107.31815 136.03479c0 .12264.0648.0193.22324.0193.16399 0 .22187.10336.22187-.0193 0-.12265-.0992-.22324-.22187-.22324-.12264 0-.22324.10059-.22324.22324"/><path d="m108.70033 136.03479c0 .12264-.0648.0193-.22325.0193-.16398 0-.22186.10336-.22186-.0193 0-.12265.0992-.22324.22186-.22324.12265 0 .22325.10059.22325.22324"/><path d="m108.00855 136.32142c.0593 0 .10611.0303.10611.11851 0 .0882-.062.24942-.10611.24942-.0427 0-.10611-.16123-.10611-.24942 0-.0882.0482-.11851.10611-.11851"/><path d="m108.00855 137.80143c.18052.0689.38034.1254.60358.15985-.0606.062-.11851.12403-.17501.18742-.16674.18603-.30868.37069-.42857.55535-.11851-.18466-.26045-.36932-.42857-.55535-.0551-.0634-.11438-.1254-.17363-.18742.22324-.0345.42306-.0909.6022-.15985m0 3.3886c-.41617 0-.39274-.72898-.39274-.73725.003-.46302.11576-.93431.39274-1.4056.27836.47129.39136.94258.39412 1.4056 0 .008.0234.73725-.39412.73725m0-6.18601s.74414-.0331 1.14791.35691c.18741.17914.27422.42305.27422.72347 0 .32659-.20946.72622-.57463 1.01147-.23841.18604-.52642.35968-.8475.48783-.31971-.12815-.60771-.30179-.84612-.48783-.36517-.28525-.57464-.68488-.57464-1.01147 0-.30042.0868-.54433.27286-.72347.40514-.38999 1.1479-.35691 1.1479-.35691m1.02939 2.8043c.46854-.43132 1.04869-.85852 1.72944-1.27606 1.29122-.791 2.59485-1.32567 3.04409-1.50069-.051.2012-.17088.55949-.43408.95498-.36932.55398-1.10381 1.28847-2.5039 1.63436-.6463.15985-1.27055.22049-1.83555.18741m-3.89295-.18741c-1.40147-.34589-2.13459-1.08038-2.5039-1.63436-.26321-.39549-.38309-.75378-.43408-.95498.44786.17502 1.75286.70969 3.04409 1.50069.68075.41754 1.25952.84474 1.72943 1.27606-.56499.0331-1.18924-.0276-1.83554-.18741m2.86356-2.7988s-.81717-.0276-1.27055.40928c-.22738.21911-.33486.4961-.33486.85301 0 .3886.23702.82958.65181 1.15342.1378.10886.3638.28663.67662.44234-.16124.0482-.33073.0854-.50299.10474-.50161-.48094-1.13413-.95636-1.89067-1.41801-1.60266-.98254-3.22323-1.57234-3.23976-1.57923l-.14883-.0537.0193.15709c.004.0234.0772.56776.50023 1.20165.38861.58429 1.15755 1.35462 2.61827 1.71566.83234.20533 1.51998.23978 2.07671.18328.0965.0951.18741.19155.27422.28663.17915.19982.33487.39963.46578.59945-.29214.51401-.41065 1.0225-.41479 1.5434 0 .0234.0179.5402.21773.75517.10198.11024.18053.14193.30179.14193.12265 0 .2012-.0317.30317-.14193.19982-.21497.21773-.73174.21773-.75517-.004-.5209-.12402-1.02939-.41479-1.5434.13092-.19982.28663-.39963.46578-.59945.0854-.0951.17777-.19154.27285-.28663.55811.0565 1.24575.0221 2.0767-.18328 1.46073-.36104 2.23105-1.13137 2.61965-1.71566.42306-.63389.4961-1.17822.49886-1.20165l.0207-.15709-.14883.0537c-.0165.007-1.63849.59669-3.24115 1.57923-.75516.46165-1.38768.93707-1.88928 1.41801-.17364-.0193-.34176-.0565-.50437-.10474.31419-.15571.54019-.33348.678-.44234.41479-.32384.65181-.76482.65181-1.15342 0-.35691-.10749-.6339-.33486-.85301-.45338-.43684-1.27193-.40928-1.27193-.40928"/><path d="m107.56896 135.4946c-.33762 0-.50712.24529-.50712.52641 0 .37344.3514.8723.94671 1.08313.59669-.21083.94809-.70969.94809-1.08313 0-.28112-.1695-.52641-.50712-.52641-.2825 0-.43546.18741-.44097.19154-.004-.004-.15848-.19154-.43959-.19154m.43959.0193s.12265-.18328.49196-.17088c.40101.0124.60358.35416.60358.66836 0 .45061-.43408 1.0225-1.09554 1.2044-.66008-.18191-1.09416-.75379-1.09416-1.20441 0-.31419.20257-.65595.60358-.66835.36794-.0124.49058.17088.49058.17088"/></g></svg>