<svg xmlns="http://www.w3.org/2000/svg" viewBox="0 0 214 32" width="214" height="32" role="img" aria-labelledby="title desc">
  <title id="title">Carbon Design System</title>
  <desc id="desc">White Carbon Design System wordmark for a black documentation header.</desc>
  <rect width="214" height="32" fill="#161616"/>
  <g fill="#f4f4f4">
    <path d="M15.9 5.2c3.5 3.7 5.9 7.1 5.9 11.3 0 6.1-4.3 10.3-9.7 10.3-4.8 0-8.1-3.4-8.1-8.2 0-3.8 2.4-6.7 5-9.2.9 2.1.7 4.3.1 6.4 2.9-2.7 5.5-6.2 6.8-10.6Z"/>
    <path d="M18.1 15.2c2.2 2 3.2 4 3.2 6.3 0 2.8-1.8 5.3-4.6 6.3 1-2.3.6-4.5-.7-6.7-.8 1.4-1.7 2.7-2.8 4 0-3.8 2.5-6.6 4.9-9.9Z" opacity=".72"/>
  </g>
  <text x="34" y="21" fill="#f4f4f4" font-family="'IBM Plex Sans', Arial, sans-serif" font-size="14" font-weight="400" letter-spacing=".16px">Carbon Design System</text>
</svg>
