<svg width="177" height="24" viewBox="0 0 177 24" fill="none" xmlns="http://www.w3.org/2000/svg">
<g id="logo" clip-path="url(#clip0_1436_41967)">
<path id="Vector" d="M1.11166 17.9376L0.0436853 22.2098C-0.183445 23.1186 0.503754 23.999 1.44045 23.999H11.3526C12.1394 23.999 12.7807 23.3672 12.7923 22.5804L12.9564 11.4162C12.9654 10.8135 12.4792 10.3203 11.8765 10.3203H9.57677C9.02927 10.3203 8.56833 10.7301 8.50414 11.2741L7.5901 19.0436C7.54741 19.4061 7.24011 19.6794 6.87502 19.6794H6.7478C6.30894 19.6794 6.05218 19.2902 6.1155 18.8557L6.24823 17.9431C6.31155 17.5089 5.97463 17.1194 5.53576 17.1194H2.15902C1.66351 17.1194 1.23162 17.4566 1.11137 17.9373L1.11166 17.9376Z" fill="#ED3024"/>
<path id="Vector_2" d="M15.3131 10.3203H23.3306C23.8261 10.3203 24.258 10.6575 24.3783 11.1382L25.29 14.7851C25.4035 15.2393 25.0599 15.6797 24.5914 15.6797H21.2275C20.8702 15.6797 20.5673 15.418 20.5153 15.0645L20.337 13.8522C20.2887 13.5234 20.0067 13.28 19.6745 13.28H19.5946C19.1938 13.28 18.9626 13.6297 19.0093 14.0279L19.5995 19.0433C19.6422 19.4058 19.9495 19.6791 20.3146 19.6791H20.4407C20.8801 19.6791 21.1369 19.2891 21.073 18.8545L20.9391 17.9443C20.8752 17.5098 21.2121 17.1197 21.6512 17.1197H25.0306C25.5261 17.1197 25.958 17.4569 26.0782 17.9376L27.1462 22.2098C27.3734 23.1186 26.6862 23.999 25.7495 23.999H15.8373C15.0505 23.999 14.4092 23.3672 14.3976 22.5804L14.2335 11.4162C14.2245 10.8135 14.7104 10.3203 15.3131 10.3203Z" fill="#ED3024"/>
<path id="Vector_3" d="M6.71992 0.000976562H20.4697C21.1305 0.000976562 21.7065 0.45059 21.8665 1.09161L23.4782 7.53839C23.6487 8.22007 23.1331 8.88026 22.4305 8.88026H9.13819C8.24535 8.88026 7.48758 9.53493 7.35746 10.4182L6.67432 15.0645C6.62233 15.418 6.3191 15.6796 5.96214 15.6796H2.59818C2.12968 15.6796 1.78608 15.2396 1.89965 14.7851L5.32287 1.0919C5.48319 0.45088 6.05915 0.00126685 6.71963 0.00126685L6.71992 0.000976562ZM9.32727 4.30599C9.23259 4.73731 9.53465 5.12041 9.96974 5.12041H17.2208C17.6559 5.12041 17.9579 4.73731 17.8632 4.30599C17.7845 3.94816 17.456 3.68066 17.0947 3.68066H10.0958C9.73477 3.68066 9.40598 3.94816 9.32727 4.30599Z" fill="#1897F2"/>
<path id="Vector_4" d="M75.3989 7.32031C73.3419 7.32031 71.7993 7.62877 70.2565 8.4002V11.9997C71.542 11.357 72.8275 10.9198 74.3704 10.9198C75.7509 10.9198 76.9225 11.3758 77.1543 12.7607C76.6405 12.6358 75.8923 12.5141 75.1418 12.5141C71.5423 12.5141 68.9709 14.314 68.9709 17.3994C68.9709 19.4564 70.5135 21.3077 73.0849 21.3077C75.1418 21.3077 76.4273 20.4849 77.1988 19.1993H77.2502V20.9992H82.5982V13.2858C82.5982 9.17192 79.7698 7.32031 75.3989 7.32031ZM77.1988 15.3422C77.1988 16.8848 76.1703 17.9132 75.1418 17.9132C74.3704 17.9132 73.8563 17.3991 73.8563 16.6277C73.8563 15.5992 74.8848 15.0851 76.1703 15.0851C76.556 15.0851 76.9417 15.1624 77.1988 15.2394V15.3422Z" fill="#ED3024"/>
<path id="Vector_5" d="M46.4734 13.7998C46.4734 15.3424 46.2164 16.6796 44.6735 16.6796C43.1307 16.6796 42.8736 15.3427 42.8736 13.7998V13.2857H36.9601V13.7998C36.9601 19.4563 40.1739 21.3076 44.6735 21.3076C49.1732 21.3076 52.644 19.4563 52.644 13.7998V3.00098H46.4732L46.4734 13.7998Z" fill="#ED3024"/>
<path id="Vector_6" d="M61.5147 7.32031C57.4008 7.32031 54.3153 9.68572 54.3153 14.314C54.3153 18.9423 57.4008 21.3077 62.0288 21.3077C64.0857 21.3077 65.6283 20.9992 67.1711 20.2278V16.6283C65.8856 17.2711 64.6001 17.7082 63.0572 17.7082C61.1269 17.7082 60.3561 16.9545 60.0918 15.5998H67.9426V14.3143C67.9426 9.6863 65.6286 7.32031 61.5147 7.32031ZM61.5147 10.4057C62.5951 10.4057 62.948 11.3532 63.0334 13.0282H59.9956C60.081 11.3529 60.4339 10.4057 61.5144 10.4057H61.5147Z" fill="#ED3024"/>
<path id="Vector_7" d="M170.584 7.62891V15.3423C170.584 16.3708 170.455 17.1422 169.556 17.1422C168.656 17.1422 168.527 16.3708 168.527 15.3423V7.62891H162.742V16.8852C162.742 19.4562 164.027 21.3076 166.856 21.3076C168.656 21.3076 170.198 20.4847 170.841 18.6851H170.892V20.9991H176.369V7.6292L170.584 7.62891Z" fill="#ED3024"/>
<path id="Vector_8" d="M158.5 3.68095H152.714V7.62901H150.657V11.4859H152.714V15.8568C152.714 19.4563 154 21.3077 157.085 21.3077C158.628 21.3077 159.914 20.9992 161.071 20.4848V16.8853C160.685 17.014 160.171 17.1938 159.656 17.1938C158.628 17.1938 158.499 16.3709 158.499 15.3424V11.4856H161.07V7.62872H158.499V3.68066L158.5 3.68095Z" fill="#ED3024"/>
<path id="Vector_9" d="M94.1682 7.3206C92.3683 7.3206 90.8257 8.14344 90.1829 9.94306H90.1315V7.62906H84.6548V20.999H90.44V13.2855C90.44 12.2571 90.5687 11.4856 91.4685 11.4856C92.3683 11.4856 92.4969 12.2571 92.4969 13.2855V20.999H98.2821V11.7427C98.2821 9.17163 96.9966 7.3206 94.1682 7.3206Z" fill="#ED3024"/>
<path id="Vector_10" d="M143.433 15.3423C143.433 16.3708 143.304 17.1422 142.404 17.1422C141.504 17.1422 141.376 16.3708 141.376 15.3423V7.62891H135.59V16.8852C135.59 19.4562 136.876 21.3076 139.704 21.3076C141.504 21.3076 143.047 20.4847 143.69 18.6851H143.741V20.9991H149.218V7.6292H143.433V15.3423Z" fill="#ED3024"/>
<path id="Vector_11" d="M103.708 11.9995C103.708 18.1704 107.822 21.3072 113.479 21.3072C115.021 21.3072 116.821 20.9987 117.85 20.7414V16.1134C117.078 16.3704 116.05 16.6792 114.764 16.6792C111.936 16.6792 110.136 14.8279 110.136 11.9998C110.136 9.17169 111.936 7.32038 114.764 7.32038C116.05 7.32038 117.078 7.62884 117.85 7.88617V3.25817C116.821 3.00113 115.021 2.69238 113.479 2.69238C107.822 2.69238 103.708 5.82922 103.708 12.0001V11.9995Z" fill="#ED3024"/>
<path id="Vector_12" d="M126.592 7.32031C122.221 7.32031 119.135 9.68572 119.135 14.314C119.135 18.9423 122.221 21.3077 126.592 21.3077C130.962 21.3077 134.048 18.9423 134.048 14.314C134.048 9.68572 130.962 7.32031 126.592 7.32031ZM126.592 17.4506C125.563 17.4506 125.306 16.3707 125.306 14.3137C125.306 12.2568 125.563 11.1769 126.592 11.1769C127.62 11.1769 127.877 12.2568 127.877 14.3137C127.877 16.3707 127.62 17.4506 126.592 17.4506Z" fill="#ED3024"/>
</g>
<defs>
<clipPath id="clip0_1436_41967">
<rect width="176.4" height="24" fill="white"/>
</clipPath>
</defs>
</svg>
