<?xml version="1.0" encoding="UTF-8" standalone="no"?>
<svg
   viewBox="0 0 1000 209.82666"
   height="209.82666"
   width="1000"
   xml:space="preserve"
   id="svg2"
   version="1.1"
   sodipodi:docname="LOGO_SAFRAN_rvb - Copie.svg"
   inkscape:version="1.1.1 (3bf5ae0d25, 2021-09-20)"
   xmlns:inkscape="http://www.inkscape.org/namespaces/inkscape"
   xmlns:sodipodi="http://sodipodi.sourceforge.net/DTD/sodipodi-0.dtd"
   xmlns="http://www.w3.org/2000/svg"
   xmlns:svg="http://www.w3.org/2000/svg"
   xmlns:rdf="http://www.w3.org/1999/02/22-rdf-syntax-ns#"
   xmlns:cc="http://creativecommons.org/ns#"
   xmlns:dc="http://purl.org/dc/elements/1.1/"><sodipodi:namedview
     id="namedview125"
     pagecolor="#ffffff"
     bordercolor="#666666"
     borderopacity="1.0"
     inkscape:pageshadow="2"
     inkscape:pageopacity="0.0"
     inkscape:pagecheckerboard="0"
     showgrid="false"
     inkscape:zoom="0.63332286"
     inkscape:cx="592.90454"
     inkscape:cy="0.78948674"
     inkscape:window-width="1920"
     inkscape:window-height="991"
     inkscape:window-x="-9"
     inkscape:window-y="-9"
     inkscape:window-maximized="1"
     inkscape:current-layer="svg2" /><metadata
     id="metadata8"><rdf:RDF><cc:Work
         rdf:about=""><dc:format>image/svg+xml</dc:format><dc:type
           rdf:resource="http://purl.org/dc/dcmitype/StillImage" /></cc:Work></rdf:RDF></metadata><defs
     id="defs6"><clipPath
       id="clipPath18"
       clipPathUnits="userSpaceOnUse"><path
         id="path16"
         d="M 0,379.973 H 1107.854 V 0 H 0 Z" /></clipPath><radialGradient
       id="radialGradient42"
       spreadMethod="pad"
       gradientTransform="matrix(130.14829,0,0,130.14829,240.86587,345.4015)"
       gradientUnits="userSpaceOnUse"
       r="1"
       cy="0"
       cx="0"
       fy="0"
       fx="0"><stop
         id="stop36"
         offset="0"
         style="stop-opacity:1;stop-color:#84cfec" /><stop
         id="stop38"
         offset="0.72454843"
         style="stop-opacity:1;stop-color:#0056a5" /><stop
         id="stop40"
         offset="1"
         style="stop-opacity:1;stop-color:#0056a5" /></radialGradient><linearGradient
       id="linearGradient64"
       spreadMethod="pad"
       gradientTransform="matrix(176.37202,100.03043,-100.03043,176.37202,171.73177,216.37677)"
       gradientUnits="userSpaceOnUse"
       y2="0"
       x2="1"
       y1="0"
       x1="0"><stop
         id="stop58"
         offset="0"
         style="stop-opacity:1;stop-color:#5cb9e9" /><stop
         id="stop60"
         offset="0.9021444"
         style="stop-opacity:1;stop-color:#0061a7" /><stop
         id="stop62"
         offset="1"
         style="stop-opacity:1;stop-color:#0061a7" /></linearGradient><clipPath
       id="clipPath74"
       clipPathUnits="userSpaceOnUse"><path
         id="path72"
         d="M 0,379.973 H 1107.854 V 0 H 0 Z" /></clipPath><clipPath
       id="clipPath82"
       clipPathUnits="userSpaceOnUse"><path
         id="path80"
         d="M 136.085,263.352 H 260.263 V 155.701 H 136.085 Z" /></clipPath><linearGradient
       id="linearGradient92"
       spreadMethod="pad"
       gradientTransform="matrix(-103.97642,-59.307107,59.307107,-103.97644,324.10351,253.57078)"
       gradientUnits="userSpaceOnUse"
       y2="0"
       x2="1"
       y1="0"
       x1="0"><stop
         id="stop88"
         offset="0"
         style="stop-opacity:1;stop-color:#84cfec" /><stop
         id="stop90"
         offset="1"
         style="stop-opacity:1;stop-color:#0056a5" /></linearGradient><clipPath
       id="clipPath114"
       clipPathUnits="userSpaceOnUse"><path
         id="path112"
         d="m 183.164,207.635 h 75.964 v -66.587 h -75.964 z" /></clipPath><clipPath
       id="clipPath118"
       clipPathUnits="userSpaceOnUse"><path
         id="path116"
         d="m 192.652,206.665 c -10.819,3.436 -13.881,-3.041 -1.221,-7.19 6.226,-2.04 14.378,-4.809 21.138,-7.017 22.385,-7.312 42.793,-16.752 39.028,-39.658 -0.927,-4.662 -1.535,-6.816 -5.192,-11.752 0.547,0.726 10.84,5.151 12.442,16.603 3.106,22.218 -20.03,33.358 -44.745,41.903 -6.212,2.148 -14.45,4.887 -21.45,7.111" /></clipPath><linearGradient
       id="linearGradient132"
       spreadMethod="pad"
       gradientTransform="matrix(-8.9472656,-14.885147,-14.885147,8.9472656,232.24512,198.91846)"
       gradientUnits="userSpaceOnUse"
       y2="0"
       x2="1"
       y1="0"
       x1="0"><stop
         id="stop124"
         offset="0"
         style="stop-opacity:1;stop-color:#ffffff" /><stop
         id="stop126"
         offset="0.0814819"
         style="stop-opacity:1;stop-color:#ffffff" /><stop
         id="stop128"
         offset="0.71176084"
         style="stop-opacity:0;stop-color:#ffffff" /><stop
         id="stop130"
         offset="1"
         style="stop-opacity:0;stop-color:#ffffff" /></linearGradient><mask
       id="mask134"
       height="1"
       width="1"
       y="0"
       x="0"
       maskUnits="userSpaceOnUse"><g
         id="g144"><g
           id="g142"><g
             id="g140"><g
               id="g138"><path
                 id="path136"
                 style="fill:url(#linearGradient132);stroke:none"
                 d="M -32768,32767 H 32767 V -32767 H -32768 Z" /></g></g></g></g></mask><linearGradient
       id="linearGradient154"
       spreadMethod="pad"
       gradientTransform="matrix(-11.929687,19.846862,-19.846862,-11.929687,309.66015,241.40606)"
       gradientUnits="userSpaceOnUse"
       y2="0"
       x2="1"
       y1="0"
       x1="0"><stop
         id="stop146"
         offset="0"
         style="stop-opacity:1;stop-color:#ffffff" /><stop
         id="stop148"
         offset="0.0814819"
         style="stop-opacity:1;stop-color:#ffffff" /><stop
         id="stop150"
         offset="0.71176084"
         style="stop-opacity:1;stop-color:#ffffff" /><stop
         id="stop152"
         offset="1"
         style="stop-opacity:1;stop-color:#ffffff" /></linearGradient><clipPath
       id="clipPath180"
       clipPathUnits="userSpaceOnUse"><path
         id="path178"
         d="m 192.302,192.458 h 59.746 v -77.727 h -59.746 z" /></clipPath><linearGradient
       id="linearGradient190"
       spreadMethod="pad"
       gradientTransform="matrix(61.063496,48.589496,-48.589496,61.063474,258.31119,281.5825)"
       gradientUnits="userSpaceOnUse"
       y2="0"
       x2="1"
       y1="0"
       x1="0"><stop
         id="stop186"
         offset="0"
         style="stop-opacity:1;stop-color:#ffffff" /><stop
         id="stop188"
         offset="1"
         style="stop-opacity:1;stop-color:#0069b5" /></linearGradient><clipPath
       id="clipPath212"
       clipPathUnits="userSpaceOnUse"><path
         id="path210"
         d="M 100.665,222.498 H 224.65 V 114.731 H 100.665 Z" /></clipPath><linearGradient
       id="linearGradient222"
       spreadMethod="pad"
       gradientTransform="matrix(123.9854,0,0,-123.9854,100.66455,168.61475)"
       gradientUnits="userSpaceOnUse"
       y2="0"
       x2="1"
       y1="0"
       x1="0"><stop
         id="stop218"
         offset="0"
         style="stop-opacity:1;stop-color:#84cfec" /><stop
         id="stop220"
         offset="1"
         style="stop-opacity:1;stop-color:#0056a5" /></linearGradient><linearGradient
       id="linearGradient232"
       spreadMethod="pad"
       gradientTransform="matrix(123.9854,0,0,-123.9854,100.66455,168.61475)"
       gradientUnits="userSpaceOnUse"
       y2="0"
       x2="1"
       y1="0"
       x1="0"><stop
         id="stop228"
         offset="0"
         style="stop-opacity:1;stop-color:#84cfec" /><stop
         id="stop230"
         offset="1"
         style="stop-opacity:1;stop-color:#0056a5" /></linearGradient><linearGradient
       id="linearGradient278"
       spreadMethod="pad"
       gradientTransform="matrix(31.774841,255.80975,-255.80975,31.774841,231.46939,122.35659)"
       gradientUnits="userSpaceOnUse"
       y2="0"
       x2="1"
       y1="0"
       x1="0"><stop
         id="stop270"
         offset="0"
         style="stop-opacity:1;stop-color:#84cfec" /><stop
         id="stop272"
         offset="0.28986605"
         style="stop-opacity:1;stop-color:#0056a5" /><stop
         id="stop274"
         offset="0.938766"
         style="stop-opacity:1;stop-color:#0056a5" /><stop
         id="stop276"
         offset="1"
         style="stop-opacity:1;stop-color:#0056a5" /></linearGradient><clipPath
       id="clipPath18-2"
       clipPathUnits="userSpaceOnUse"><path
         id="path16-8"
         d="M 0,379.973 H 1107.854 V 0 H 0 Z" /></clipPath></defs><path
     style="fill:#4f5569;fill-opacity:1;fill-rule:nonzero;stroke:none;stroke-width:1.08557"
     d="m 530.23251,73.304536 v 27.139384 l 61.51629,0.0521 -3.73981,17.6113 h -57.77648 v 38.84621 h -28.1088 V 55.628106 h 99.16187 l -3.75609,17.67643 z"
     id="path1748" /><path
     id="path1746"
     style="fill:#4f5569;fill-opacity:1;fill-rule:nonzero;stroke:none;stroke-width:1.08557"
     d="M 793.28788,55.626736 745.58669,156.95417 h 20.31155 l 9.36789,-20.48494 h 54.09381 l 9.70651,20.48494 h 32.21903 c 0,0 -41.96796,-83.675004 -45.45265,-90.828954 -3.72244,-7.60988 -6.41681,-10.49848 -13.59138,-10.49848 z m 8.56478,22.74301 19.13807,40.427614 h -37.63685 z" /><path
     id="path1742"
     style="fill:#4f5569;fill-opacity:1;fill-rule:nonzero;stroke:none;stroke-width:1.08557"
     d="m 410.23137,55.626736 -47.7123,101.327434 h 20.32432 l 9.36626,-20.48494 h 54.09537 l 9.69543,20.48494 h 32.23014 c 0,0 -41.98066,-83.675004 -45.46536,-90.828954 -3.71266,-7.60988 -6.4044,-10.49848 -13.58983,-10.49848 z m 8.5664,22.74301 19.13803,40.427614 h -37.63681 z" /><path
     style="fill:#4f5569;fill-opacity:1;fill-rule:nonzero;stroke:none;stroke-width:1.08557"
     d="m 303.56548,160.18746 c 36.22999,0 52.97715,-13.26898 52.97715,-32.5564 0,-16.86984 -15.17742,-25.44697 -48.49698,-34.546264 -19.83563,-5.41702 -32.19925,-6.56664 -32.19925,-13.25053 0,-6.42335 11.5896,-9.84943 29.38001,-8.96902 22.32811,1.1062 36.62297,10.47905 36.62297,10.47905 l 8.78664,-14.03214 c 0,0 -20.03863,-14.91689 -52.04791,-14.91689 -34.85348,0 -53.1465,10.62453 -53.1465,30.12797 0,19.297194 20.82134,25.964794 51.21961,34.666764 18.70121,5.35298 29.47662,6.34953 29.47662,13.50021 0,5.49084 -5.63739,12.42659 -30.48729,11.18686 -23.91631,-1.19197 -44.65839,-14.98962 -44.65839,-14.98962 l -10.59631,12.89228 c 0,0 22.77211,20.40773 63.16963,20.40773"
     id="path1738" /><path
     style="fill:#4f5569;fill-opacity:1;fill-rule:nonzero;stroke:none;stroke-width:1.08557"
     d="m 979.24162,55.628106 v 60.441584 c 0,0 -59.3495,-47.368004 -64.2172,-51.252184 -8.753,-6.98025 -12.7826,-9.1894 -22.5919,-9.1894 h -7.2473 V 156.95571 h 20.7714 V 97.378256 c 0,0 58.8783,46.960894 63.7471,50.845084 8.752,6.98133 13.2408,8.73237 23.049,8.73237 H 1000 V 55.628106 Z"
     id="path1736" /><path
     id="path1734"
     style="fill:#4f5569;fill-opacity:1;fill-rule:nonzero;stroke:none;stroke-width:1.08557"
     d="M 618.7159,55.626736 V 156.95417 h 28.10675 v -34.29263 h 0.32599 28.51543 1.96549 c 0,0 11.44356,15.11032 15.99103,21.07013 4.12519,5.40616 10.99691,13.2225 22.29774,13.2225 h 18.99656 l -29.83057,-37.46349 c 13.15605,-3.83208 23.75279,-12.21186 23.75279,-30.340974 v -0.0111 c -0.012,-31.18858 -31.32041,-33.51184 -53.17304,-33.51184 h -28.51543 z m 28.10675,17.46674 0.32599,0.20672 h 29.66832 c 14.91471,0 21.61239,5.21059 21.61239,15.83838 v 0.0111 c 0,10.62777 -6.69768,15.838374 -21.61239,15.838374 h -29.66832 l -0.32599,0.20672 z" /><g
     id="g24"
     transform="matrix(1.0855753,0,0,-1.0855753,-101.32902,311.15712)"><g
       id="g26"><g
         id="g32"><g
           id="g34"><path
             id="path44"
             style="fill:url(#radialGradient42);stroke:none;stroke-width:1.33333"
             d="m 124.45508,308.62891 c 20.696,43.48666 65.04278,73.54492 116.41211,73.54492 51.36266,0 95.71087,-30.05826 116.4082,-73.54492 h -2.79883 c -25.54266,35.05333 -66.91737,57.83984 -113.60937,57.83984 -46.696,0 -88.06928,-22.78651 -113.61328,-57.83984 z"
             transform="matrix(0.75000002,0,0,-0.75000002,0,379.97301)" /></g></g></g></g><g
     id="g46"
     transform="matrix(1.0855753,0,0,-1.0855753,-101.32902,311.15712)"><g
       id="g48"><g
         id="g54"><g
           id="g56"><path
             id="path66"
             style="fill:url(#linearGradient64);stroke:none;stroke-width:1.33333"
             d="m 209.72852,155.49414 c -0.45734,0 -25.59234,0.0866 -51.01368,19.08789 -15.26533,11.42 -21.54337,23.13494 -23.7207,33.84961 -10.77467,53.02 94.04499,74.09969 134.20898,87.17969 21.99067,7.16266 24.98603,16.75494 24.80469,24.34961 -0.42666,17.74933 -25.47074,33.69398 -25.58008,33.69531 20.412,-0.32 48.05141,-12.46707 64.69141,-31.17773 6.22933,-6.996 11.87952,-16.58656 13.10352,-23.44922 6.06266,-31.684 -23.44086,-47.90216 -58.24219,-60.04883 -27.16933,-9.47733 -49.59563,-16.02858 -68.6543,-21.89258 -30.27333,-9.31333 -35.4013,-18.22337 -35.16797,-27.85937 0.26934,-11.22934 12.11946,-25.39705 25.57813,-33.73438 z"
             transform="matrix(0.75000002,0,0,-0.75000002,0,379.97301)" /></g></g></g></g><g
     id="g76"
     transform="matrix(1.0855753,0,0,-1.0855753,-101.32902,311.15712)"><g
       id="g78" /><g
       id="g106"><g
         style="opacity:0.699997"
         id="g104"
         clip-path="url(#clipPath82)"><g
           id="g102"><g
             id="g100"><g
               id="g98"><g
                 id="g96"><path
                   id="path94"
                   style="fill:url(#linearGradient92);stroke:none;stroke-width:1.33333"
                   d="m 209.73633,155.49414 c -19.58667,12.07733 -26.18935,23.69739 -27.91602,32.38672 -2.352,11.796 6.09152,21.7587 35.10352,30.83203 19.01866,5.948 41.46906,12.39881 68.65039,21.88281 22.788,7.956 42.40247,16.36734 52.86914,30.25 9.72533,12.89867 7.7793,28.1836 7.7793,28.1836 6.06266,-31.684 -23.44086,-47.90216 -58.24219,-60.04883 -27.16933,-9.47733 -49.59563,-16.02858 -68.6543,-21.89258 -30.27333,-9.31467 -35.40192,-18.22337 -35.16992,-27.85937 0.27067,-11.22934 12.12141,-25.39705 25.58008,-33.73438 z"
                   transform="matrix(0.75000002,0,0,-0.75000002,0,379.97301)" /></g></g></g></g></g></g></g><g
     id="g174"
     transform="matrix(1.0855753,0,0,-1.0855753,-101.32902,311.15712)"><g
       id="g176" /><g
       id="g204"><g
         style="opacity:0.300003"
         id="g202"
         clip-path="url(#clipPath180)"><g
           id="g200"><g
             id="g198"><g
               id="g196"><g
                 id="g194" /></g></g></g></g></g></g><g
     id="g206"
     transform="matrix(1.0855753,0,0,-1.0855753,-101.32902,311.15712)"><g
       id="g208" /><g
       id="g256"><g
         style="opacity:0.699997"
         id="g254"
         clip-path="url(#clipPath212)"><g
           id="g242"><g
             id="g240"><g
               id="g238"><g
                 id="g236"><path
                   id="path234"
                   style="fill:url(#linearGradient222);stroke:none"
                   d="m 201.39,114.771 c -0.021,-0.012 -0.05,-0.029 -0.068,-0.04 0.002,0 0.027,0.014 0.068,0.04" /></g></g></g></g><g
           id="g252"><g
             id="g250"><g
               id="g248"><g
                 id="g246"><path
                   id="path244"
                   style="fill:url(#linearGradient232);stroke:none"
                   d="m 203.589,160.925 c -8.902,2.572 -19.828,5.815 -32.856,9.684 -10.031,2.975 -22.802,7.516 -34.679,12.772 -31.816,14.068 -35.838,31.121 -35.021,39.117 -6.346,-38.921 71.039,-54.519 100.869,-64.234 16.493,-5.372 18.741,-12.565 18.604,-18.261 -0.31,-12.879 -17.898,-24.49 -19.116,-25.232 2.524,1.441 20.814,12.194 22.888,23.463 1.957,10.736 -3.646,17.804 -20.689,22.691" /></g></g></g></g></g></g></g><g
     id="g258"
     transform="matrix(1.0855753,0,0,-1.0855753,-101.32902,311.15712)"><g
       id="g260"><g
         id="g266"><g
           id="g268"><path
             id="path280"
             style="fill:url(#linearGradient278);stroke:none;stroke-width:1.33333"
             d="m 240.86719,124.45898 c -51.36933,0 -95.71611,30.05764 -116.41211,73.54297 h 2.79883 c 25.544,-35.052 66.91728,-57.83593 113.61328,-57.83593 46.692,0 88.06671,22.78393 113.60937,57.83593 h 2.79883 c -20.69733,-43.48533 -65.04554,-73.54297 -116.4082,-73.54297 z"
             transform="matrix(0.75000002,0,0,-0.75000002,0,379.97301)" /></g></g></g></g></svg>
