<svg xmlns="http://www.w3.org/2000/svg" width="65.504" height="25.055"><path d="M4.025 6.472q.385 0 .64.06t.401.2a.75.75 0 0 1 .208.36q.06.224.06.543v.674q0 .226-.106.314-.106.089-.327.088l-3.825-.004v.171q0 .333.17.481.17.15.663.151l3.16.003q.135 0 .135.128v.595q0 .128-.137.128l-3.265-.004q-.515 0-.859-.079a1.3 1.3 0 0 1-.553-.252.97.97 0 0 1-.299-.447 2.1 2.1 0 0 1-.09-.656v-1.02q0-.381.092-.656a.96.96 0 0 1 .3-.445q.209-.174.554-.255.345-.08.858-.08zM1.077 8.076l3.068.004q.128 0 .128-.122v-.297q.001-.22-.097-.312t-.364-.092H1.91q-.492-.003-.662.143-.17.145-.17.486zm5.987-3.04q.165 0 .166.156v.673q-.001.164-.167.163H6.32q-.173 0-.173-.164v-.673q0-.156.174-.155zm-.001 1.439q.166 0 .166.162l-.004 3.572q0 .156-.166.156h-.743q-.166 0-.167-.157l.004-3.57q0-.165.167-.164zm5.71.005.001-1.267q0-.156.167-.156h.743q.165 0 .166.156l-.004 3.728q0 .381-.092.656a.96.96 0 0 1-.3.445q-.208.174-.556.25a4 4 0 0 1-.856.078l-2.121-.001a4 4 0 0 1-.86-.079 1.3 1.3 0 0 1-.552-.253.96.96 0 0 1-.299-.447 2 2 0 0 1-.09-.654V7.914q0-.382.093-.654.09-.273.298-.447.209-.173.554-.255.345-.08.86-.08zm-.836 3.04q.25 0 .408-.038a.6.6 0 0 0 .255-.128.5.5 0 0 0 .132-.237q.038-.148.039-.376V7.33l-2.74-.003q-.244-.001-.402.04a.56.56 0 0 0-.255.126.5.5 0 0 0-.132.241 1.6 1.6 0 0 0-.038.372v.63a1.5 1.5 0 0 0 .037.375q.036.15.132.24a.55.55 0 0 0 .253.126q.16.04.402.04zm6.729-3.033q.508 0 .856.082t.556.255a.97.97 0 0 1 .299.447q.09.273.09.656v1.021q0 .382-.091.655a1 1 0 0 1-.3.446q-.21.174-.558.251a4 4 0 0 1-.856.077l-2.144-.003q-.514 0-.858-.078a1.3 1.3 0 0 1-.554-.252.97.97 0 0 1-.298-.447 2 2 0 0 1-.09-.656v-1.02q.001-.383.092-.656a.96.96 0 0 1 .3-.445q.209-.175.554-.255.345-.082.858-.081zm-2.865 2.278q0 .227.037.376a.5.5 0 0 0 .132.238.6.6 0 0 0 .255.128q.157.038.401.038l1.93.003q.25 0 .41-.038a.55.55 0 0 0 .255-.128.5.5 0 0 0 .132-.236q.037-.15.038-.376v-.674q0-.22-.037-.368a.5.5 0 0 0-.132-.241.5.5 0 0 0-.253-.128 2 2 0 0 0-.41-.036l-1.932-.003q-.24 0-.4.036a.5.5 0 0 0-.254.127.5.5 0 0 0-.134.241 1.5 1.5 0 0 0-.037.368zm10.356-2.271q.136 0 .136.128v.567q0 .128-.137.126l-3.416-.003q-.234 0-.325.082-.092.08-.091.237v.107a.28.28 0 0 0 .09.222q.09.082.326.082l2.552.003q.636 0 .91.249.27.248.271.701v.398q0 .233-.06.417a.7.7 0 0 1-.202.312.9.9 0 0 1-.368.195 2 2 0 0 1-.56.066l-3.879-.004q-.136 0-.136-.128v-.566q0-.129.138-.127l3.589.003q.236 0 .33-.077.095-.078.095-.262V9.03a.27.27 0 0 0-.094-.22q-.095-.078-.33-.077l-2.545-.003q-.636-.001-.908-.245-.272-.246-.272-.714V7.46q0-.219.061-.4a.7.7 0 0 1 .202-.308.9.9 0 0 1 .366-.194q.228-.067.562-.067zm13.028-.486 1.672 5.06-5.303-1.682zM33.61 7.877l1.256 2.326-3.311.794z" style="fill:#000;fill-opacity:1;fill-rule:nonzero;stroke:none;stroke-width:1.33333"/><path d="m40.128 0 9.016 9.968h2.49l-16.82 15.087L65.503 10.3ZM27.026 6.492v.104h.185v.515h.126v-.515h.185v-.104Zm.988 0-.112.423-.112-.423h-.19v.619h.118v-.487l.122.487h.122l.124-.487v.487h.117v-.619Zm-22.336 5.39q.507 0 .852.083.343.082.556.256a.9.9 0 0 1 .298.445q.088.274.087.656l-.003 2.296q0 .156-.167.156H6.56q-.168-.001-.167-.157l.001-2.055q0-.22-.029-.372a.5.5 0 0 0-.113-.241.47.47 0 0 0-.235-.127 1.6 1.6 0 0 0-.401-.04l-1.334-.001-.003 2.835q0 .156-.174.156l-.743-.001q-.167 0-.165-.156L3.2 12.78l-1.288-.001q-.243 0-.402.039a.56.56 0 0 0-.254.128.5.5 0 0 0-.132.24 1.6 1.6 0 0 0-.039.372l-.001 2.054q0 .156-.168.156H.175q-.174 0-.175-.156l.003-2.296q0-.383.092-.656.09-.272.299-.446.21-.173.553-.254a3.8 3.8 0 0 1 .86-.081zm6.612.007q.508 0 .856.082t.556.255a.97.97 0 0 1 .299.448q.09.272.09.655v1.02q0 .384-.091.656a.97.97 0 0 1-.3.446q-.21.173-.558.25a4 4 0 0 1-.856.078l-2.144-.003q-.515 0-.858-.079a1.3 1.3 0 0 1-.554-.252.97.97 0 0 1-.298-.446 2.1 2.1 0 0 1-.091-.656v-1.02q0-.383.093-.656.09-.272.3-.446.208-.173.553-.254t.859-.082zm-2.865 2.278q0 .227.037.376a.5.5 0 0 0 .132.238.6.6 0 0 0 .253.127q.16.04.402.04l1.932.002q.249 0 .409-.038a.54.54 0 0 0 .253-.129.47.47 0 0 0 .134-.235q.037-.15.038-.377v-.673q0-.22-.037-.368a.5.5 0 0 0-.132-.241.5.5 0 0 0-.253-.128 2 2 0 0 0-.41-.036l-1.932-.001a1.8 1.8 0 0 0-.401.035.5.5 0 0 0-.253.126.5.5 0 0 0-.134.242 1.5 1.5 0 0 0-.038.368zm9.515-2.272q.508 0 .856.083.348.082.556.255a.97.97 0 0 1 .299.448q.09.271.09.654l-.002 2.296q0 .156-.167.156h-.743q-.166 0-.166-.156l.003-2.056q0-.218-.03-.372a.5.5 0 0 0-.117-.241.5.5 0 0 0-.239-.127 1.6 1.6 0 0 0-.393-.04l-2.016-.003q-.242 0-.401.039a.6.6 0 0 0-.254.128.5.5 0 0 0-.133.24 1.6 1.6 0 0 0-.037.373l-.003 2.055q0 .156-.167.156l-.743-.001q-.173 0-.173-.156l.001-2.296a2.1 2.1 0 0 1 .092-.656.97.97 0 0 1 .3-.445q.208-.173.553-.255a3.8 3.8 0 0 1 .86-.081zm3.25.004v-.936q0-.155.167-.155h.75q.167 0 .166.156v.936l1.326.001q.136 0 .136.128l-.001.58q0 .128-.136.128l-1.325-.001-.003 1.644q0 .298.129.436.128.139.507.139h.734q.136 0 .136.128v.581q0 .127-.136.127h-.917a3 3 0 0 1-.75-.079 1.05 1.05 0 0 1-.473-.25.9.9 0 0 1-.245-.438 2.7 2.7 0 0 1-.068-.645v-1.644l-.718-.001q-.138 0-.136-.127v-.581q0-.129.136-.127zm7.104.007q.136 0 .136.128v.594q0 .128-.137.128l-2.015-.003q-.241 0-.401.04a.56.56 0 0 0-.253.127.47.47 0 0 0-.134.24 1.6 1.6 0 0 0-.038.372l-.001 2.105q0 .156-.167.155h-.743q-.174 0-.173-.156V13.34q0-.382.093-.656a.96.96 0 0 1 .3-.445q.208-.175.553-.255.345-.082.859-.081zm4.598.004q.385.001.64.062.255.06.401.198a.74.74 0 0 1 .208.362q.06.223.06.542v.674q0 .226-.106.314t-.327.088l-3.825-.004v.17q0 .336.17.482.171.15.663.15l3.159.004q.136 0 .136.128l-.001.595q0 .128-.136.128l-3.264-.004a4 4 0 0 1-.86-.08 1.3 1.3 0 0 1-.553-.251.97.97 0 0 1-.3-.447q-.09-.272-.088-.656v-1.02a2.1 2.1 0 0 1 .092-.656.96.96 0 0 1 .3-.445q.207-.174.553-.255.345-.081.859-.081zm-2.948 1.606 3.068.004q.128 0 .128-.122v-.297q0-.22-.098-.312t-.362-.092l-1.903-.003q-.491 0-.663.145-.17.145-.17.486z" style="fill:#000;fill-opacity:1;fill-rule:nonzero;stroke:none;stroke-width:1.33333"/><path d="M39.376 11.916q.508 0 .856.083.348.082.556.256a.96.96 0 0 1 .298.446q.092.273.091.655l-.003 1.885q0 .17-.027.28a.35.35 0 0 1-.09.174.34.34 0 0 1-.171.088 1.2 1.2 0 0 1-.272.025l-3.605-.004q-.334 0-.558-.061a.9.9 0 0 1-.358-.182.64.64 0 0 1-.194-.31 1.6 1.6 0 0 1-.057-.455l.001-.34q0-.22.057-.392a.66.66 0 0 1 .194-.295.9.9 0 0 1 .36-.18q.222-.06.557-.06l3.083.003v-.134q-.001-.17-.038-.29a.4.4 0 0 0-.129-.196.6.6 0 0 0-.25-.11 2 2 0 0 0-.409-.035l-3.166-.004q-.136 0-.136-.128v-.595q0-.127.137-.126zm.497 3.112q.12-.001.17-.053.05-.055.05-.188v-.624l-2.772-.003q-.236 0-.33.089-.094.088-.094.257l-.001.15q0 .191.095.28.094.09.329.089zm3.034-4.533q.166 0 .166.156l-.005 5.003q0 .156-.166.156h-.743q-.166-.001-.167-.157l.005-5.003q0-.156.167-.155z" style="fill:#000;fill-opacity:1;fill-rule:nonzero;stroke:none;stroke-width:1.33333"/></svg>