<?xml version="1.0" encoding="UTF-8"?><svg id="BRP-Digital_and_Campaign-W" xmlns="http://www.w3.org/2000/svg" width="100" height="100" viewBox="0 0 100 100"><g id="brp"><path d="M60.134,63.186c1.022-2.64-.298-5.727-4.236-5.727h-10.346l-5.897,16.222h10.985c4.151,0,6.408-1.341,7.345-3.768.617-1.618.426-3.215-.383-4.194,1.192-.468,2.065-1.32,2.533-2.533ZM53.747,68.466c-.319.852-.937,1.277-2.129,1.277h-5.684l.979-2.704h5.961c.873,0,1.192.532.873,1.426ZM55.706,62.782c-.319.852-.937,1.277-2.129,1.277h-5.578l.979-2.704h5.854c.873,0,1.192.532.873,1.426Z" fill="#fff"/><path d="M94.239,57.46h-10.197l-5.918,16.222h4.811l2.108-5.769h5.471c4.62,0,6.962-1.15,8.026-4.066,1.235-3.428-.319-6.387-4.3-6.387ZM94.175,62.782c-.319.852-.937,1.277-2.129,1.277h-5.578l.979-2.704h5.854c.873,0,1.192.532.873,1.426Z" fill="#fff"/><path d="M79.351,63.846c1.256-3.428-.298-6.387-4.279-6.387h-10.197l-5.897,16.222h4.79l2.108-5.769h3.853l1.512,5.769h4.854l-1.724-5.982c2.661-.468,4.173-1.661,4.982-3.853ZM75.008,62.782c-.319.852-.937,1.277-2.129,1.277h-5.578l.979-2.704h5.854c.873,0,1.192.532.873,1.426Z" fill="#fff"/></g><g id="gear"><path d="M19.03,52.797c-.301-17.151,13.756-31.496,30.91-31.528,17.135-.033,31.036,13.848,31.036,30.975h19.025c0-2.289-.156-4.541-.455-6.748-.043-.316-.281-.571-.592-.64l-10.982-2.416c-2.083-.458-2.905-2.988-1.489-4.583l7.467-8.412c.212-.239.254-.585.103-.866-2.151-3.996-4.829-7.664-7.942-10.914-.22-.23-.563-.296-.855-.169l-10.298,4.498c-1.955.854-4.106-.71-3.899-2.832l1.096-11.196c.031-.317-.137-.622-.424-.761-4.01-1.938-8.319-3.357-12.838-4.168-.314-.056-.629.091-.791.366l-5.692,9.699c-1.08,1.84-3.739,1.84-4.819,0l-5.692-9.699c-.161-.275-.477-.422-.791-.366-4.519.811-8.828,2.23-12.838,4.168-.287.139-.455.444-.424.761l1.096,11.196c.208,2.123-1.944,3.686-3.899,2.832l-10.298-4.498c-.292-.128-.634-.061-.855.169-3.113,3.25-5.791,6.919-7.942,10.914-.151.281-.109.627.103.866l7.467,8.412c1.416,1.595.594,4.125-1.489,4.583l-10.982,2.416c-.312.069-.55.324-.592.64C.156,47.703,0,49.955,0,52.244s.156,4.541.455,6.749c.043.316.281.571.592.64l10.982,2.416c2.083.458,2.905,2.988,1.489,4.583l-7.467,8.412c-.212.239-.254.585-.103.866,4.896,9.094,12.524,16.496,21.787,21.111l6.542-18.085c-8.979-5.301-15.052-15.002-15.247-26.138Z" fill="#fff"/></g></svg>