<svg width="222" height="40" data-name="Layer 1" xmlns="http://www.w3.org/2000/svg" viewBox="0 0 759.28 137.25" class="icon icon-logo icon-aldo-logo"><polygon  points="254.14 2.95 221.77 2.95 221.76 134.94 365.2 134.94 365.2 105.8 254.14 105.8 254.14 2.95"/><path d="M530,20.24C514,8.32,491.8,3.62,469.66,3.58H388.11V135.79l81.35,0c22.23,0,44.58-4.71,60.59-16.68,17.27-12.91,27-30.47,27-49.45S547.26,33.15,530,20.24Zm-58.76,86.81H421.28V32.31h49.9c31,0,52.82,16.19,52.83,37.37S502.21,107.05,471.22,107.05Z" transform="translate(0.05 -0.87)"/><path  d="M0,135.81H37.27l15.16-20.09h98.29l15,20.09h39.07L102.28.89Zm131.57-47H71.63l30-40.39Z" transform="translate(0.05 -0.87)"/><path  d="M731.22,19.6C715.07,7.52,692.52.87,670.08.87h-6.17c-22.44,0-45,6.65-61.14,18.73-17.43,13-28,30.75-28,49.9s10.63,36.86,28.07,49.89C619,131.47,641.55,138.12,664,138.12h6c22.44,0,45-6.65,61.16-18.73,17.44-13,28.06-30.75,28.07-49.89S748.65,32.63,731.22,19.6ZM670,109.78h-6c-31.27,0-55.72-18.91-55.73-40.29s24.41-40.28,55.68-40.28h6.13c31.27,0,55.7,18.91,55.68,40.28S701.28,109.78,670,109.78Z" transform="translate(0.05 -0.87)"/></svg>