<svg xmlns="http://www.w3.org/2000/svg" xmlns:xlink="http://www.w3.org/1999/xlink" width="115" height="48" viewBox="0 0 115 48">
  <defs>
    <clipPath id="clip-metro-logo">
      <rect width="115" height="48"/>
    </clipPath>
  </defs>
  <g id="metro-logo" clip-path="url(#clip-metro-logo)">
    <g id="logo_metro-fr" transform="translate(0.5 1.608)">
      <g id="fierement_dici" transform="translate(-385.544 -28.035)">
        <rect id="background" width="113.25" height="17.1" rx="8.55" transform="translate(385.87 55.719)" fill="#167bd9"/>
        <g id="text" transform="translate(0 1)">
          <path id="Caminho_60447" data-name="Caminho 60447" d="M.715,10h1.58l.54-3.88h1l.13-1.02h-.98l.04-.3a.586.586,0,0,1,.63-.56,1.528,1.528,0,0,1,.43.05l.12-.82a1.36,1.36,0,0,0-.96-.27,1.694,1.694,0,0,0-1.8,1.6l-.04.3H.785L.645,6.12h.61Zm4.83-5.28a.845.845,0,1,0-.85-.84A.835.835,0,0,0,5.545,4.72ZM3.925,10h1.58l.68-4.9H4.605Zm5.02-5.39H9.9l-.36-1.48H7.845Zm.07,5.5a2.31,2.31,0,0,0,1.75-.63l.11-.82a3.323,3.323,0,0,1-1.31.27c-.72,0-1.39-.15-1.39-1.06V7.86h2.85a2.388,2.388,0,0,0,.28-1.15,1.764,1.764,0,0,0-2-1.73,2.657,2.657,0,0,0-2.71,2.88A2.128,2.128,0,0,0,9.015,10.11Zm.23-4.14c.38,0,.68.2.68.77a2.714,2.714,0,0,1-.04.41H8.235C8.345,6.53,8.635,5.97,9.245,5.97ZM11.575,10h1.58l.24-1.7c.21-1.49.91-1.9,2.04-1.81l.16-1.2a.529.529,0,0,0-.53-.26c-.51,0-1.13.43-1.49,1.68a3.936,3.936,0,0,0-.09-1.61h-1.23Zm6.51.11a2.31,2.31,0,0,0,1.75-.63l.11-.82a3.323,3.323,0,0,1-1.31.27c-.72,0-1.39-.15-1.39-1.06V7.86h2.85a2.388,2.388,0,0,0,.28-1.15,1.764,1.764,0,0,0-2-1.73,2.657,2.657,0,0,0-2.71,2.88A2.128,2.128,0,0,0,18.085,10.11Zm.23-4.14c.38,0,.68.2.68.77a2.714,2.714,0,0,1-.04.41H17.3C17.415,6.53,17.7,5.97,18.315,5.97Zm4.25,1.6c.14-.98.52-1.44,1.03-1.44.43,0,.58.29.5.9L23.675,10h1.58l.34-2.43c.14-.98.52-1.44,1.03-1.44.43,0,.59.29.51.9L26.715,10h1.58l.42-2.97c.2-1.43-.38-2.05-1.29-2.05a1.943,1.943,0,0,0-1.79,1.4c-.02-.93-.48-1.4-1.24-1.4A1.779,1.779,0,0,0,22.7,6.34a2.413,2.413,0,0,0-.16-1.24h-1.22l-.68,4.9h1.58Zm9.16,2.54a2.31,2.31,0,0,0,1.75-.63l.11-.82a3.323,3.323,0,0,1-1.31.27c-.72,0-1.39-.15-1.39-1.06V7.86h2.85a2.388,2.388,0,0,0,.28-1.15,1.764,1.764,0,0,0-2-1.73A2.657,2.657,0,0,0,29.3,7.86,2.128,2.128,0,0,0,31.725,10.11Zm.23-4.14c.38,0,.68.2.68.77a2.714,2.714,0,0,1-.04.41h-1.65C31.055,6.53,31.345,5.97,31.955,5.97ZM34.285,10h1.58l.34-2.43c.13-.96.56-1.44,1.13-1.44.46,0,.68.27.6.86L37.505,10H39.1l.42-3.01c.19-1.41-.44-2.01-1.4-2.01a1.838,1.838,0,0,0-1.77,1.35,2.3,2.3,0,0,0-.16-1.23h-1.22Zm7.69.13a1.418,1.418,0,0,0,1.21-.48l.1-.74a2,2,0,0,1-.64.1c-.52,0-.72-.2-.64-.78l.3-2.11h1.38l.13-1.02h-1.37l.18-1.29h-.92c-.34.96-.65,1.43-1.48,1.5l-.11.81h.6l-.3,2.16A1.432,1.432,0,0,0,41.975,10.13Zm7.27-1.15a1.777,1.777,0,0,0,.18,1.02h1.21l.95-6.73H50L49.6,6.1a1.334,1.334,0,0,0-1.44-1.11c-1.33,0-2.32,1.18-2.32,2.96,0,1.26.61,2.16,1.76,2.16A1.754,1.754,0,0,0,49.245,8.98Zm-1.82-1.02c0-1.08.41-1.9,1.15-1.9.5,0,.86.34.86,1.09,0,1.22-.56,1.9-1.19,1.9C47.705,9.05,47.425,8.62,47.425,7.96Zm5.82-2.06.54-2.29h-1.5l-.17,2.29ZM55.3,4.72a.845.845,0,1,0-.85-.84A.835.835,0,0,0,55.3,4.72ZM53.675,10h1.58l.68-4.9h-1.58Zm4.99.12a1.854,1.854,0,0,0,1.51-.57l.13-.86a3.246,3.246,0,0,1-1.24.28c-.71,0-1.16-.28-1.16-1.09,0-1.05.39-1.64,1.27-1.64a2.266,2.266,0,0,1,1.31.38l.14-1.01a1.766,1.766,0,0,0-1.56-.63,2.629,2.629,0,0,0-2.73,2.86A2.126,2.126,0,0,0,58.665,10.12Zm3.84-5.4a.845.845,0,1,0-.85-.84A.835.835,0,0,0,62.505,4.72ZM60.885,10h1.58l.68-4.9h-1.58ZM67.9,3.45h-1.82l-.2,4.41h.92Zm-1.72,6.65a.905.905,0,1,0,0-1.81.905.905,0,0,0,0,1.81Z" transform="translate(408.225 56.689)" fill="#fff"/>
        </g>
      </g>
      <path id="logo" d="M100.773,23.684a14.143,14.143,0,0,1-2.651-.238,8.7,8.7,0,0,1-1.391-.326,9.162,9.162,0,0,1-3.122-1.6,7.24,7.24,0,0,1-2-2.508,7.59,7.59,0,0,1-.711-3.3,10.072,10.072,0,0,1,.16-1.754,10.867,10.867,0,0,1,1.686-4.2,11.529,11.529,0,0,1,3.079-3.038A15.109,15.109,0,0,1,104.2,4.268h.033A13.629,13.629,0,0,1,108.681,5a9.75,9.75,0,0,1,2.109,1.034A7,7,0,0,1,113.1,8.463a7.3,7.3,0,0,1,.9,3.644,10.488,10.488,0,0,1-.178,1.887,10.664,10.664,0,0,1-1.96,4.634,11.144,11.144,0,0,1-3.375,2.98,15.776,15.776,0,0,1-7.682,2.075Zm-1.4-5.269a2.491,2.491,0,0,0,.808.508,3.833,3.833,0,0,0,1.379.246h.035a3.95,3.95,0,0,0,1.686-.365,3.6,3.6,0,0,0,1.364-1.021,5.753,5.753,0,0,0,1.022-1.664,10.153,10.153,0,0,0,.641-2.263,9.64,9.64,0,0,0,.163-1.654,5.355,5.355,0,0,0-.175-1.428,3.1,3.1,0,0,0-.554-1.077,2.524,2.524,0,0,0-1.364-.8,4.1,4.1,0,0,0-.957-.108h-.035a4.058,4.058,0,0,0-3.009,1.269A5.378,5.378,0,0,0,99.3,11.665a8.843,8.843,0,0,0-.678,2.292,9.3,9.3,0,0,0-.175,1.716V15.7A3.576,3.576,0,0,0,99.37,18.415ZM44.744,23.684a20.98,20.98,0,0,1-2.832-.187,6.759,6.759,0,0,1-.729-.112,13.024,13.024,0,0,1-1.838-.463,7.894,7.894,0,0,1-5.139-7.5v-.008a9.285,9.285,0,0,1,.1-1.3,13.528,13.528,0,0,1,1.159-3.919A9.638,9.638,0,0,1,37.8,7.079a10.26,10.26,0,0,1,3.652-2.05,16.121,16.121,0,0,1,5.078-.74c.156,0,.317.007.465.007a10.287,10.287,0,0,1,2.9.5c.065.026.126.042.192.065a9.279,9.279,0,0,1,2.795,1.52A7.611,7.611,0,0,1,54.9,8.824a7.474,7.474,0,0,1,.774,3.369,10.169,10.169,0,0,1-.326,2.455L55.249,15h-.428l-13.931-.045-.012.009c0,.081,0,.145,0,.225a3.854,3.854,0,0,0,1.46,2.879,5.492,5.492,0,0,0,2.037,1.078,6.6,6.6,0,0,0,1.9.261c.188,0,.375,0,.581-.019a19.611,19.611,0,0,0,5.95-1.158l.971-.378-1.718,4.528-.185.09a18.866,18.866,0,0,1-7.086,1.211Zm4.48-12.292.007-.011a5.391,5.391,0,0,0,.042-.613v-.012A2.573,2.573,0,0,0,48.5,8.8a2.686,2.686,0,0,0-1.349-.624,4.2,4.2,0,0,0-.816-.083H46.3a4.656,4.656,0,0,0-4.483,3.281v.017ZM60.745,21.8a6.232,6.232,0,0,1-1.739-1.912,5.219,5.219,0,0,1-.686-2.659,6.765,6.765,0,0,1,.175-1.509l1.534-6.481H57.322l.859-4.355h2.654l.61-3.037L68.774,0,67.759,4.883h4.775l-.843,4.355H67.047l-1.346,5.6a3.961,3.961,0,0,0-.1.834,4.134,4.134,0,0,0,.167,1.121c.558,1.8,2.228,1.946,3.925,1.73l-.863,4.633a15.411,15.411,0,0,1-3.017.288h0c-.061,0-.125,0-.187,0A8.445,8.445,0,0,1,60.745,21.8ZM22.339,23.174l2.568-11.782a2.36,2.36,0,0,0,.033-.333v-.012a1.312,1.312,0,0,0-.432-.963,2.371,2.371,0,0,0-.316-.2,1.692,1.692,0,0,0-.784-.179H23.4a2.374,2.374,0,0,0-2.273,1.675L18.655,23.174h-7.5l2.761-11.84A1.79,1.79,0,0,0,13.961,11v-.014a1.256,1.256,0,0,0-.432-.95,1.328,1.328,0,0,0-.39-.248,1.74,1.74,0,0,0-.724-.143,2.365,2.365,0,0,0-2.271,1.68L7.328,23.174H0L2.565,11.857a13.778,13.778,0,0,1,.992-2.926A8.52,8.52,0,0,1,5.3,6.467,7.7,7.7,0,0,1,8.043,4.754a11.4,11.4,0,0,1,4-.631c.3,0,.62,0,.951.019.392.028.769.071,1.132.132A7.283,7.283,0,0,1,18.378,6.61l.008.007.025-.007A13.575,13.575,0,0,1,21.7,4.868a11.061,11.061,0,0,1,3.669-.725h.142a11.716,11.716,0,0,1,2.514.232c.259.057.5.113.739.187a5.921,5.921,0,0,1,2.174,1.152,4.6,4.6,0,0,1,1.225,1.761,5.935,5.935,0,0,1,.378,2.2,9.661,9.661,0,0,1-.259,2.171l-2.541,11.33Zm49.944-.018L75.95,4.883H83.32s-.31,1.569-.432,2.2l-.007.059.041-.037a8.971,8.971,0,0,1,2.866-1.762,11.408,11.408,0,0,1,1.99-.61,8.052,8.052,0,0,1,1.174-.171c.425-.037.866-.057,1.29-.057.406,0,.8.02,1.123.044l.545.06L90.6,10.8h-.474a10.007,10.007,0,0,0-1.146-.053,13.835,13.835,0,0,0-1.683.09,6.934,6.934,0,0,0-1.357.288,10.227,10.227,0,0,0-2.006.846,5.269,5.269,0,0,0-1.361,1.042,4.425,4.425,0,0,0-.873,1.279,8.418,8.418,0,0,0-.555,1.6c-.5,1.988-1.537,7.267-1.537,7.267Z" fill="#d81e05" stroke="rgba(0,0,0,0)" stroke-miterlimit="10" stroke-width="1"/>
    </g>
  </g>
</svg>
