<?xml version="1.0" standalone="no"?><!-- Generator: Gravit.io --><svg xmlns="http://www.w3.org/2000/svg" xmlns:xlink="http://www.w3.org/1999/xlink" style="isolation:isolate" viewBox="0 0 474 119" width="474" height="119"><defs><clipPath id="_clipPath_fqu07Hj1zDlwvIMNKETSbumOGKww4MRs"><rect width="474" height="119"/></clipPath></defs><g clip-path="url(#_clipPath_fqu07Hj1zDlwvIMNKETSbumOGKww4MRs)"><path d=" M 85.215 66.585 L 75.133 56.503 L 85.215 46.421 C 90.782 40.861 99.802 40.864 105.365 46.429 C 110.927 51.993 110.927 61.013 105.365 66.578 C 99.802 72.143 90.782 72.146 85.215 66.585 Z  M 106.795 40.757 C 102.619 36.581 96.955 34.234 91.049 34.234 C 85.143 34.234 79.479 36.581 75.303 40.757 L 59.556 56.503 L 75.303 72.25 C 80.928 77.875 89.128 80.072 96.812 78.013 C 104.497 75.954 110.5 69.952 112.559 62.267 C 114.618 54.582 112.421 46.383 106.795 40.757" fill="rgb(0,47,95)"/><path d=" M 66.886 28.102 L 56.804 38.224 L 46.722 28.102 C 42.642 24.024 41.422 17.89 43.628 12.561 C 45.835 7.231 51.036 3.756 56.804 3.756 C 62.572 3.756 67.772 7.231 69.979 12.561 C 72.186 17.89 70.965 24.024 66.886 28.102 Z  M 41.058 6.522 C 36.881 10.698 34.535 16.362 34.535 22.268 C 34.535 28.174 36.881 33.838 41.058 38.015 L 56.804 53.761 L 72.55 38.015 C 78.176 32.389 80.373 24.189 78.314 16.505 C 76.255 8.82 70.252 2.817 62.567 0.758 C 54.883 -1.301 46.683 0.896 41.058 6.522" fill="rgb(0,47,95)"/><path d=" M 28.403 46.421 L 38.525 56.503 L 28.403 66.585 C 24.325 70.665 18.19 71.886 12.861 69.679 C 7.532 67.472 4.057 62.272 4.057 56.503 C 4.057 50.735 7.532 45.535 12.861 43.328 C 18.19 41.121 24.325 42.342 28.403 46.421 Z  M 6.822 72.25 C 10.996 76.431 16.661 78.78 22.569 78.78 C 28.476 78.78 34.142 76.431 38.315 72.25 L 54.061 56.503 L 38.315 40.757 C 29.619 32.061 15.519 32.061 6.822 40.757 C -1.874 49.453 -1.874 63.553 6.822 72.25 Z " fill="rgb(0,47,95)"/><path d=" M 46.722 84.905 L 56.804 74.832 L 66.886 84.905 C 70.965 88.983 72.186 95.117 69.979 100.446 C 67.772 105.775 62.572 109.25 56.804 109.25 C 51.036 109.25 45.835 105.775 43.628 100.446 C 41.422 95.117 42.642 88.983 46.722 84.905 Z  M 72.55 106.495 C 76.731 102.321 79.081 96.656 79.081 90.748 C 79.081 84.841 76.731 79.176 72.55 75.002 L 56.804 59.246 L 41.058 75.002 C 32.361 83.698 32.361 97.798 41.058 106.495 C 49.754 115.191 63.854 115.191 72.55 106.495 Z " fill="rgb(202,0,93)"/><path d=" M 159.19 60.313 L 152.977 45.135 L 146.754 60.313 L 159.19 60.313 Z  M 157.993 33.088 L 177.21 78.253 C 177.366 78.616 177.331 79.033 177.117 79.365 C 176.903 79.697 176.538 79.901 176.143 79.908 L 167.168 79.908 L 162.88 69.408 L 143.095 69.408 L 138.816 79.908 L 130.121 79.908 C 129.722 79.906 129.351 79.705 129.131 79.373 C 128.911 79.041 128.871 78.621 129.024 78.253 L 148.22 33.088 L 157.993 33.088 Z " fill="rgb(0,47,95)"/><path d=" M 180.062 56.633 L 180.062 56.503 C 180.012 50.009 182.593 43.771 187.216 39.21 C 191.839 34.649 198.111 32.153 204.604 32.29 C 213.031 32.29 218.117 34.574 222.993 38.713 L 217.259 45.633 C 216.839 46.13 216.1 46.201 215.594 45.793 C 212.445 43.108 208.412 41.687 204.275 41.804 C 196.776 41.804 190.832 48.436 190.832 56.394 L 190.832 56.523 C 190.832 65.08 196.716 71.362 205.003 71.362 C 208.451 71.47 211.846 70.489 214.706 68.56 L 214.706 61.868 L 204.335 61.868 L 204.335 52.953 L 224.668 52.953 L 224.668 73.287 C 219.118 78.094 212.016 80.729 204.674 80.706 C 190.094 80.706 180.062 70.475 180.062 56.633 Z " fill="rgb(0,47,95)"/><path d=" M 255.273 55.835 C 260.26 55.835 263.172 53.163 263.172 49.214 L 263.172 49.084 C 263.172 44.666 260.09 42.392 255.084 42.392 L 244.842 42.392 L 244.842 55.835 L 255.273 55.835 Z  M 234.551 33.098 L 255.922 33.098 C 261.905 33.098 266.482 34.764 269.564 37.845 C 272.281 40.728 273.72 44.587 273.553 48.545 L 273.553 48.675 C 273.553 56.234 269.474 60.981 263.521 63.185 L 273.682 78.044 C 273.938 78.41 273.966 78.888 273.755 79.282 C 273.545 79.675 273.131 79.917 272.685 79.908 L 262.902 79.908 L 252.87 64.95 L 244.773 64.95 L 244.773 79.908 L 234.551 79.908 L 234.551 33.098 Z " fill="rgb(0,47,95)"/><path d=" M 319.795 56.633 L 319.795 56.503 C 319.795 48.525 313.911 41.784 305.614 41.784 C 297.317 41.784 291.583 48.346 291.583 56.374 L 291.583 56.503 C 291.583 64.481 297.457 71.213 305.754 71.213 C 314.05 71.213 319.795 64.661 319.795 56.633 M 280.813 56.633 L 280.813 56.503 C 280.813 43.2 291.304 32.29 305.744 32.29 C 320.183 32.29 330.555 43.061 330.555 56.374 L 330.555 56.503 C 330.555 69.806 320.054 80.706 305.624 80.706 C 291.194 80.706 280.853 69.936 280.853 56.633" fill="rgb(0,47,95)"/><path d=" M 358.158 56.703 C 363.314 56.703 366.316 53.621 366.316 49.612 L 366.316 49.483 C 366.316 44.866 363.114 42.392 357.959 42.392 L 349.981 42.392 L 349.981 56.703 L 358.158 56.703 Z  M 339.689 33.098 L 358.836 33.098 C 369.995 33.098 376.787 39.72 376.787 49.283 L 376.787 49.413 C 376.787 60.253 368.36 65.867 357.839 65.867 L 350.011 65.867 L 350.011 79.908 L 339.689 79.908 L 339.689 33.098 Z " fill="rgb(0,47,95)"/><path d=" M 383.628 59.844 L 383.628 33.098 L 393.929 33.098 L 393.929 59.575 C 393.929 67.204 397.738 71.143 404.021 71.143 C 410.304 71.143 414.113 67.333 414.113 59.914 L 414.113 33.098 L 424.454 33.098 L 424.454 59.515 C 424.454 73.686 416.476 80.636 403.931 80.636 C 391.386 80.636 383.667 73.656 383.667 59.844" fill="rgb(0,47,95)"/><path d=" M 455.03 55.835 C 460.016 55.835 462.928 53.163 462.928 49.214 L 462.928 49.084 C 462.928 44.666 459.846 42.392 454.83 42.392 L 444.598 42.392 L 444.598 55.835 L 455.03 55.835 Z  M 434.307 33.098 L 455.698 33.098 C 461.681 33.098 466.268 34.764 469.34 37.845 C 472.06 40.727 473.499 44.586 473.329 48.545 L 473.329 48.675 C 473.319 56.234 469.33 60.981 463.346 63.155 L 473.508 78.014 C 473.756 78.381 473.78 78.855 473.571 79.246 C 473.362 79.637 472.954 79.88 472.511 79.878 L 462.738 79.878 L 452.696 64.92 L 444.598 64.92 L 444.598 79.878 L 434.307 79.878 L 434.307 33.098 Z " fill="rgb(0,47,95)"/><path d=" M 128.924 91.416 L 135.675 91.416 C 141.499 91.416 147.353 93.92 147.353 102.077 C 147.353 110.234 141.499 113.047 135.675 113.047 L 128.924 113.047 L 128.924 91.416 Z  M 132.594 94.747 L 132.594 109.706 L 134.997 109.706 C 139.594 109.706 143.593 108.19 143.593 102.087 C 143.593 96.203 139.604 94.757 134.967 94.757 L 132.594 94.747 Z " fill="rgb(0,47,95)"/><path d=" M 149.816 108.768 C 149.816 105.318 152.628 103.712 156.108 103.712 C 157.146 103.738 158.174 103.916 159.16 104.241 L 159.16 103.244 C 159.16 101.698 157.834 100.741 156.168 100.741 C 154.659 100.738 153.277 101.587 152.598 102.935 L 150.215 100.691 C 151.508 98.654 153.787 97.457 156.198 97.549 C 159.958 97.549 162.64 99.404 162.64 103.254 L 162.64 113.017 L 159.19 113.017 L 159.19 111.85 C 157.983 112.863 156.447 113.399 154.872 113.356 C 152.209 113.356 149.816 111.66 149.816 108.768 Z  M 155.61 110.274 C 156.913 110.297 158.183 109.855 159.19 109.028 L 159.19 107.292 C 158.189 106.898 157.124 106.692 156.049 106.684 C 154.443 106.684 153.366 107.332 153.366 108.559 C 153.336 109.476 154.074 110.274 155.61 110.274 Z " fill="rgb(0,47,95)"/><path d=" M 168.464 91.137 C 169.05 91.129 169.615 91.357 170.031 91.77 C 170.448 92.182 170.681 92.745 170.678 93.331 C 170.69 94.234 170.155 95.055 169.324 95.408 C 168.493 95.761 167.531 95.576 166.889 94.941 C 166.248 94.305 166.054 93.345 166.4 92.51 C 166.745 91.676 167.561 91.133 168.464 91.137 Z  M 166.679 97.918 L 170.16 97.918 L 170.16 113.017 L 166.649 113.017 L 166.679 97.918 Z " fill="rgb(0,47,95)"/><path d=" M 183.253 101.05 C 183.067 101.04 182.881 101.04 182.695 101.05 C 179.155 101.05 178.048 103.044 178.048 107.123 L 178.048 113.017 L 174.537 113.017 L 174.537 97.918 L 177.988 97.918 L 177.988 99.554 C 179.119 98.22 180.835 97.53 182.575 97.709 C 182.665 97.709 182.884 97.709 183.253 97.709 L 183.253 101.05 Z " fill="rgb(0,47,95)"/><path d=" M 188.459 119 L 190.802 113.206 L 184.819 97.918 L 188.808 97.918 L 192.797 108.828 L 196.786 97.918 L 200.605 97.918 L 192.159 119 L 188.459 119 Z " fill="rgb(0,47,95)"/><path d=" M 230.123 109.287 C 228.095 111.967 224.885 113.486 221.527 113.356 C 215.055 113.356 210.248 108.858 210.248 102.266 C 210.118 99.268 211.249 96.351 213.367 94.225 C 215.486 92.099 218.398 90.957 221.397 91.077 C 224.704 90.953 227.857 92.477 229.814 95.146 L 227.441 97.609 C 226.127 95.591 223.865 94.392 221.457 94.438 C 217.199 94.438 213.998 97.739 213.998 102.266 C 213.936 105.603 216.061 108.589 219.234 109.623 C 222.408 110.657 225.884 109.497 227.8 106.764 L 230.123 109.287 Z " fill="rgb(0,47,95)"/><path d=" M 239.587 97.549 C 242.794 97.505 245.711 99.402 246.97 102.352 C 248.229 105.302 247.582 108.721 245.331 111.006 C 243.08 113.291 239.672 113.991 236.703 112.776 C 233.734 111.562 231.793 108.675 231.789 105.468 C 231.74 103.374 232.542 101.35 234.012 99.858 C 235.481 98.366 237.493 97.533 239.587 97.549 L 239.587 97.549 Z  M 239.587 110.184 C 242.02 110.184 243.775 108.19 243.775 105.468 C 243.775 102.745 242.02 100.761 239.587 100.761 C 237.154 100.761 235.359 102.755 235.359 105.468 C 235.359 108.18 237.114 110.184 239.587 110.184 Z " fill="rgb(0,47,95)"/><path d=" M 257.916 97.549 C 261.123 97.505 264.04 99.402 265.299 102.352 C 266.558 105.302 265.911 108.721 263.66 111.006 C 261.409 113.291 258.001 113.991 255.032 112.776 C 252.064 111.562 250.122 108.675 250.118 105.468 C 250.069 103.374 250.871 101.35 252.341 99.858 C 253.81 98.366 255.822 97.533 257.916 97.549 L 257.916 97.549 Z  M 257.916 110.184 C 260.349 110.184 262.105 108.19 262.105 105.468 C 262.105 102.745 260.349 100.761 257.916 100.761 C 255.483 100.761 253.698 102.755 253.698 105.468 C 253.698 108.18 255.453 110.184 257.916 110.184 Z " fill="rgb(0,47,95)"/><path d=" M 276.864 113.356 C 275.332 113.383 273.839 112.871 272.645 111.91 L 272.645 119 L 269.135 119 L 269.135 97.918 L 272.585 97.918 L 272.585 99.275 C 273.681 98.088 275.251 97.455 276.864 97.549 C 281.212 97.549 284.233 100.94 284.233 105.468 C 284.233 109.995 281.241 113.356 276.864 113.356 Z  M 276.624 110.274 C 279.307 110.274 280.613 108.03 280.613 105.497 C 280.613 102.964 279.257 100.721 276.624 100.721 C 273.992 100.721 272.585 102.974 272.585 105.497 C 272.585 108.02 273.942 110.274 276.654 110.274 L 276.624 110.274 Z " fill="rgb(0,47,95)"/><path d=" M 290.396 106.515 C 290.413 107.539 290.849 108.512 291.603 109.205 C 292.357 109.899 293.363 110.253 294.385 110.184 C 295.964 110.209 297.441 109.402 298.274 108.06 L 300.648 110.274 C 299.196 112.271 296.853 113.423 294.385 113.356 C 289.858 113.356 286.806 110.155 286.806 105.567 C 286.806 101.189 289.489 97.589 293.866 97.589 C 298.733 97.589 300.767 101.509 300.767 105.328 C 300.767 105.846 300.767 106.555 300.767 106.555 L 290.396 106.515 Z  M 290.576 103.712 L 297.018 103.712 C 297.056 102.881 296.732 102.074 296.129 101.5 C 295.527 100.926 294.705 100.642 293.876 100.721 C 292.18 100.745 290.766 102.027 290.576 103.712 Z " fill="rgb(0,47,95)"/><path d=" M 313.193 101.05 C 313.01 101.04 312.827 101.04 312.644 101.05 C 309.094 101.05 307.987 103.044 307.987 107.123 L 307.987 113.017 L 304.477 113.017 L 304.477 97.918 L 307.927 97.918 L 307.927 99.554 C 309.061 98.223 310.776 97.534 312.515 97.709 C 312.614 97.709 312.824 97.709 313.193 97.709 L 313.193 101.05 Z " fill="rgb(0,47,95)"/><path d=" M 314.988 108.768 C 314.988 105.318 317.79 103.712 321.27 103.712 C 322.308 103.738 323.336 103.916 324.322 104.241 L 324.322 103.244 C 324.322 101.698 322.996 100.741 321.33 100.741 C 319.821 100.738 318.439 101.587 317.76 102.935 L 315.387 100.711 C 316.682 98.675 318.959 97.479 321.37 97.569 C 325.13 97.569 327.812 99.424 327.812 103.274 L 327.812 113.017 L 324.362 113.017 L 324.362 111.85 C 323.155 112.863 321.619 113.399 320.044 113.356 C 317.321 113.356 314.988 111.66 314.988 108.768 Z  M 320.782 110.274 C 322.077 110.279 323.332 109.823 324.322 108.988 L 324.322 107.253 C 323.321 106.859 322.256 106.652 321.181 106.644 C 319.575 106.644 318.498 107.292 318.498 108.519 C 318.498 109.476 319.236 110.274 320.742 110.274 L 320.782 110.274 Z " fill="rgb(0,47,95)"/><path d=" M 332.918 107.691 L 332.918 101.05 L 330.714 101.05 L 330.714 97.908 L 332.938 97.908 L 332.938 93.69 L 336.418 93.69 L 336.418 97.908 L 340.028 97.908 L 340.028 101.05 L 336.399 101.05 L 336.399 107.153 C 336.399 109.347 336.897 109.895 338.862 109.895 C 339.201 109.895 340.009 109.835 340.009 109.835 L 340.009 113.017 C 340.009 113.017 339.33 113.076 338.124 113.076 C 334.185 113.017 332.918 111.511 332.918 107.691 Z " fill="rgb(0,47,95)"/><path d=" M 345.673 91.137 C 346.261 91.127 346.828 91.353 347.247 91.766 C 347.665 92.179 347.899 92.743 347.897 93.331 C 347.818 94.499 346.848 95.406 345.678 95.406 C 344.507 95.406 343.537 94.499 343.459 93.331 C 343.456 92.745 343.689 92.182 344.106 91.77 C 344.522 91.357 345.087 91.129 345.673 91.137 Z  M 343.888 97.918 L 347.398 97.918 L 347.398 113.017 L 343.888 113.017 L 343.888 97.918 Z " fill="rgb(0,47,95)"/><path d=" M 359.485 113.017 L 355.645 113.017 L 350.29 97.918 L 354.079 97.918 L 357.56 108.489 L 361.04 97.918 L 364.83 97.918 L 359.485 113.017 Z " fill="rgb(0,47,95)"/><path d=" M 369.706 106.515 C 369.726 107.538 370.163 108.509 370.916 109.202 C 371.67 109.895 372.674 110.25 373.695 110.184 C 375.282 110.206 376.761 109.387 377.584 108.03 L 379.958 110.244 C 378.51 112.241 376.17 113.394 373.705 113.326 C 369.178 113.326 366.126 110.125 366.126 105.537 C 366.126 101.159 368.809 97.559 373.177 97.559 C 378.053 97.559 380.087 101.479 380.087 105.298 C 380.087 105.817 380.087 106.525 380.087 106.525 L 369.706 106.515 Z  M 369.896 103.712 L 376.338 103.712 C 376.373 102.882 376.048 102.077 375.446 101.504 C 374.844 100.931 374.024 100.645 373.196 100.721 C 371.5 100.745 370.086 102.027 369.896 103.712 L 369.896 103.712 Z " fill="rgb(0,47,95)"/></g></svg>