<svg xmlns="http://www.w3.org/2000/svg" xmlns:xlink="http://www.w3.org/1999/xlink" width="932.847" height="205.1" viewBox="0 0 93.285 20.51" fill="#fff" fill-rule="evenodd" stroke="#000" stroke-linecap="round" stroke-linejoin="round"><use width="100%" height="100%" x=".5" y=".5" xlink:href="#a"/><symbol id="a" overflow="visible" transform="translate(-.5 -.5)"><g fill-rule="nonzero" stroke="none"><path d="M.28 18.093h27v2.417h-27zM17.448 4.955l1.822 4.56 3.22-1.693-2.8-6.176h-4.057L9.937 12.279s2.804-.098 4.6-1.43c.444-.267 1.728-3.62 2.9-5.883z" fill="#006c50"/><path d="M22.5 7.815l-3.22 1.688c-2.755 1.413-5.372 2.666-6.78 3.048-3.715 1.07-8.242 1.7-9.87.27-1.528-1.355 2-7.043 8.682-8.3a5.73 5.73 0 011.715-.173c.577.029-.458-1.946-.813-2.346a1.66 1.66 0 00-1.715-.644C9.055 1.458 2.901 3.086.475 8.21c-1.333 2.915.444 5.856 1.608 6.705.542.395 4.04 3.528 12.126.373a85.87 85.87 0 0015.107-7.954V4.055L22.5 7.805z" fill="#009597"/><path d="M20.42 12.477l1.37 3.32a1.13 1.13 0 001 .64h3.715l-2.782-5.732-3.3 1.773z" fill="#006c50"/><path d="M29.307 2.795l-5.243 2.808c-.89.36-1.253-.116-1.364-.284a11.615 11.615 0 01-.706-1.777 1.96 1.96 0 00.804-.09c.622-.17 6.483-3.457 6.51-3.452z" fill="#ed1c24"/><path d="M37.205 3.789a4.82 4.82 0 012.798.89l-.627.807a3.35 3.35 0 00-2.089-.729c-1.48 0-2.635.926-2.635 2.27 0 1.344 1.156 2.27 2.635 2.27a3.63 3.63 0 002.208-.756l.627.814a5.14 5.14 0 01-2.917.926c-2.035 0-3.954-1.204-3.954-3.256 0-2.052 1.92-3.232 3.954-3.232zm4.253.098h3.4c1.58 0 2.862.638 2.862 2.035 0 1.075-.8 1.64-1.858 1.882l2.055 2.374H46.34l-1.865-2.187H42.8v2.164h-1.357zm3.3 3.1c.95 0 1.56-.393 1.56-1.075 0-.682-.583-1.017-1.567-1.017h-1.947v2.106zm4.45 1.357V3.878h5.684v1.017h-4.338v1.516h3.98v.963h-3.98v.97c0 .546.258.807.787.807h3.676v1.017H51.02c-1.146-.014-1.8-.685-1.8-1.825zm4.33-6.26l-1.04 1.102H51.35l.8-1.102zm3.086 1.794h2.835c2.42 0 4.036 1.255 4.036 3.137 0 1.882-1.615 3.14-4.035 3.14h-2.835zm2.923 5.274c1.526 0 2.547-.85 2.547-2.126 0-1.276-1.017-2.143-2.547-2.143H57.97v4.27zm5.372-5.274h1.357v6.277H64.92zm2.683 1.004V3.875h6.17v1.017h-2.4v5.263h-1.357V4.881zM38.66 16.778h-3.463l-.753 1.513h-1.357l3.256-6.277H37.7l3.256 6.277h-1.543zm-.495-.98l-1.238-2.493-1.234 2.493zm7.16-3.9a4.86 4.86 0 012.798.885l-.644.83a3.39 3.39 0 00-2.092-.726c-1.48 0-2.635.906-2.635 2.252 0 1.346 1.017 2.286 2.6 2.286a3.303 3.303 0 001.777-.485v-1.215h-1.892v-.96h3.235V17.4a5.39 5.39 0 01-3.174.987c-2.374 0-3.937-1.397-3.937-3.256 0-2.052 1.92-3.235 3.975-3.235zm4.833.105h3.4c1.577 0 2.86.638 2.86 2.035 0 1.078-.8 1.64-1.855 1.886l2.035 2.374H55.02l-1.865-2.187h-1.68v2.187H50.12zm3.307 3.113c.95 0 1.56-.393 1.56-1.075 0-.682-.583-1.017-1.57-1.017h-1.947v2.106zm4.667-3.113h1.357v6.277h-1.36zm6.817-.105a4.846 4.846 0 012.798.885l-.627.83a3.37 3.37 0 00-2.089-.726c-1.48 0-2.635.922-2.635 2.27 0 1.348 1.156 2.27 2.635 2.27.8-.002 1.574-.27 2.204-.76l.63.817a5.12 5.12 0 01-2.917.922c-2.035 0-3.954-1.2-3.954-3.256s1.92-3.252 3.954-3.252zm3.402 3.246c0-1.777 1.648-3.246 3.97-3.246s3.97 1.468 3.97 3.246-1.648 3.246-3.97 3.246-3.97-1.472-3.97-3.246zm1.397 0c0 1.265 1.048 2.27 2.574 2.27 1.526 0 2.574-1.017 2.574-2.27 0-1.253-1.048-2.27-2.574-2.27-1.526 0-2.577 1.004-2.577 2.27zm7.797-3.14H78.9v5.274h4v1.017h-5.348zm6.176 4.466v-4.465h5.694v1.017h-4.34v1.516h3.98v.977h-3.988v.967a.7.7 0 00.79.807h3.676v1.017h-3.998c-1.15-.024-1.814-.695-1.814-1.835zm9.564.926" fill="#006c50"/></g></symbol></svg>