<svg xmlns="http://www.w3.org/2000/svg" width="51.66" height="35.26" viewBox="0 0 51.66 35.26" fill="#1a1a1a" role="img" aria-label="Sid Lee"><title>Sid Lee</title><path d="M46.54 6.14H31.92V1.97h14.62v4.17Zm3.6 20.88c-.92 2.71-4.24 6.27-10.65 6.27s-11.62-3.61-11.62-11.85S32.73 9.08 39.29 9.08s10.37 3.72 11.23 9.24c.16 1.06.23 2.48.2 4.47H33.96c.27 6.71 7.27 6.92 9.58 4.24h6.62Zm-16.05-8.35h10.37c-.22-3.23-2.37-4.63-5.17-4.63-3.06 0-4.76 1.6-5.2 4.63ZM14.1 33.26H.59V2.01h14.52c11.44.17 11.65 11.37 5.68 14.42 7.23 2.63 7.47 16.83-6.7 16.83ZM6.86 14.5h7.48c5.24 0 6.07-6.27-.65-6.27H6.86v6.27Zm7.08 6.27H6.86v6.3h6.98c6.38 0 5.99-6.3.1-6.3Z"/></svg>
