<svg xmlns="http://www.w3.org/2000/svg" viewBox="0 0 611 201" role="img" aria-label="Groq">
  <!--
    Official Groq lockup, assembled from svgl official assets (api.svgl.app id 24,
    https://groq.com/): the Groq squircle app mark (groq.svg) + the Groq wordmark
    (groq_wordmark_light.svg). No paths drawn by hand. The official square tile is
    presented with rounded corners (rx) to match Groq's real squircle icon; the
    wordmark is tinted to the theme primary ink (#2d2f33) for the cream header.
  -->
  <!-- Groq squircle mark (official svgl path) -->
  <rect width="201" height="201" rx="44" fill="#F54F35"/>
  <path fill="#FEFBFB" d="m128 49 1.895 1.52C136.336 56.288 140.602 64.49 142 73c.097 1.823.148 3.648.161 5.474l.03 3.247.012 3.482.017 3.613c.01 2.522.016 5.044.02 7.565.01 3.84.041 7.68.072 11.521.007 2.455.012 4.91.016 7.364l.038 3.457c-.033 11.717-3.373 21.83-11.475 30.547-4.552 4.23-9.148 7.372-14.891 9.73l-2.387 1.055c-9.275 3.355-20.3 2.397-29.379-1.13-5.016-2.38-9.156-5.17-13.234-8.925 3.678-4.526 7.41-8.394 12-12l3.063 2.375c5.572 3.958 11.135 5.211 17.937 4.625 6.96-1.384 12.455-4.502 17-10 4.174-6.784 4.59-12.222 4.531-20.094l.012-3.473c.003-2.414-.005-4.827-.022-7.241-.02-3.68 0-7.36.026-11.04-.003-2.353-.008-4.705-.016-7.058l.025-3.312c-.098-7.996-1.732-13.21-6.681-19.47-6.786-5.458-13.105-8.211-21.914-7.792-7.327 1.188-13.278 4.7-17.777 10.601C75.472 72.012 73.86 78.07 75 85c2.191 7.547 5.019 13.948 12 18 5.848 3.061 10.892 3.523 17.438 3.688l2.794.103c2.256.082 4.512.147 6.768.209v16c-16.682.673-29.615.654-42.852-10.848-8.28-8.296-13.338-19.55-13.71-31.277.394-9.87 3.93-17.894 9.562-25.875l1.688-2.563C84.698 35.563 110.05 34.436 128 49Z"/>
  <!-- Groq wordmark (official svgl path), tinted to theme ink -->
  <g transform="translate(229 35.5) scale(0.4265)" fill="#2d2f33">
    <path d="M499.3.5c-57.6 0-104.4 46.7-104.4 104.4s46.7 104.4 104.4 104.4 104.4-46.7 104.4-104.4C603.6 47.3 556.9.6 499.3.5zm0 169.6c-36 0-65.2-29.2-65.2-65.2s29.2-65.2 65.2-65.2 65.2 29.2 65.2 65.2-29.2 65.2-65.2 65.2zM355.2.9c-3.6-.4-7.1-.6-10.7-.6-1.8 0-3.5 0-5.2.1s-3.5.2-5.2.3c-7 .5-14 1.7-20.8 3.6-13.9 3.7-27 10.3-38.3 19.2-11.6 9.2-20.8 21-27.1 34.4-3.1 6.7-5.4 13.8-6.9 21-.7 3.6-1.2 7.2-1.6 10.8-.1 1.8-.3 3.6-.3 5.4l-.1 2.7v2.5l.1 35 .1 34.9.2 34.9h39.1l.2-34.9.1-34.9.1-35v-3.7c0-1.1.2-2.2.2-3.3.2-2.2.6-4.3 1-6.5.9-4.2 2.2-8.3 4-12.2 3.6-7.8 9-14.6 15.7-20 7-5.6 15.1-9.7 23.7-12 4.4-1.2 9-2 13.6-2.4 1.2-.1 2.3-.2 3.5-.2s2.4-.1 3.5-.1c2.2 0 4.5.1 6.7.3 8.9.9 17.5 3.6 25.4 8l19.5-33.9C383.3 7.1 369.5 2.5 355.2.9zM105.3 0C47.7-.5.5 45.8 0 103.4s45.8 104.8 103.4 105.3h36.2v-39.1h-34.3c-36 .4-65.6-28.4-66-64.5s28.4-65.6 64.5-66h1.5c36 0 65.2 29.2 65.4 65.2v96.1c0 35.7-29.1 64.8-64.7 65.2-17.1-.1-33.4-7-45.4-19.1l-27.7 27.7c19.2 19.3 45.2 30.3 72.4 30.5h1.4c56.9-.8 102.6-47 102.9-103.9v-99.1C208.2 45.2 161.9.1 105.3 0zM729.7.5c-57.6 0-104.4 46.7-104.3 104.4 0 57.6 46.7 104.3 104.3 104.3h35.7v-39.1h-35.7c-36 0-65.2-29.2-65.2-65.2s29.2-65.2 65.2-65.2c33.8 0 62 25.9 65 59.6h-.1v200.4h39.1V104.9C833.7 47.3 787.2.5 729.7.5zM894.2 15.2c0 8.6-6.7 15.3-15.3 15.3-8.6 0-15.2-6.7-15.2-15.2S870.4 0 879 0c8.7 0 15.2 6.6 15.2 15.2zm-1.6 0c0-7.7-5.8-13.6-13.6-13.6s-13.7 6-13.7 13.6 5.9 13.6 13.6 13.6c7.8.1 13.7-6 13.7-13.6zm-9.8 2.5 4.1 6.2h-2.3l-3.8-5.8h-5.5V24H873V6.5h6.7c4.3 0 6.9 2.2 6.9 5.8.1 2.7-1.4 4.6-3.8 5.4zm1.7-5.4c0-2.5-1.8-3.9-4.8-3.9h-4.4v7.9h4.4c3 0 4.8-1.5 4.8-4z"/>
  </g>
</svg>
