<svg xmlns="http://www.w3.org/2000/svg" class="w-100 transition origin-left" viewBox="0 0 100 19"><path d="M9.78571 9.06547C9.76018 8.72531 9.66753 8.39357 9.51311 8.0894C9.35868 7.78523 9.14555 7.51466 8.886 7.2933C8.62646 7.07194 8.32564 6.90417 8.00091 6.79968C7.67619 6.6952 7.33398 6.65606 6.99405 6.68452C4.57143 6.68452 3.77381 9.15476 3.77381 11.2024C3.77381 13.25 4.54762 15.5833 6.91667 15.5833C8.66667 15.5833 9.67857 14.4583 9.89286 12.7619H13.5357C13.0952 16.4345 10.5595 18.4524 6.94048 18.4524C2.79167 18.4524 0 15.4762 0 11.3095C0 6.99405 2.55357 3.79167 7.01786 3.79167C10.2619 3.79167 13.244 5.5119 13.4821 9.06547H9.78571ZM21.4286 15.5714C24.006 15.5714 24.7738 13.3393 24.7738 11.1369C24.7738 8.93452 24.006 6.67262 21.4286 6.67262C18.8512 6.67262 18.1012 8.90476 18.1012 11.1369C18.1012 13.369 18.881 15.5714 21.4286 15.5714ZM21.4286 3.79167C25.7619 3.79167 28.5714 6.69643 28.5714 11.1369C28.5714 15.5774 25.7679 18.4524 21.4286 18.4524C17.0893 18.4524 14.3333 15.5476 14.3333 11.1369C14.3333 6.72619 17.125 3.79167 21.4286 3.79167ZM32.5893 13.5595C32.5893 15.2262 33.994 15.8988 35.4881 15.8988C36.5774 15.8988 37.9583 15.4643 37.9583 14.1131C37.9583 12.9583 36.3929 12.5536 33.6786 11.9643C31.5 11.4821 29.3155 10.7024 29.3155 8.25C29.3155 4.67857 32.3452 3.78571 35.2679 3.78571C38.1905 3.78571 41.0714 4.81548 41.3631 8.23214H37.7917C37.6845 6.75 36.5655 6.34524 35.2143 6.34524C34.3631 6.34524 33.1131 6.5119 33.1131 7.6369C33.1131 9.0119 35.2381 9.19643 37.3929 9.70833C39.5476 10.2202 41.75 11.0298 41.75 13.6131C41.7321 17.2619 38.5952 18.4524 35.4583 18.4524C32.3214 18.4524 29.1667 17.2619 29 13.5595H32.5893ZM46.0833 13.5595C46.0833 15.2262 47.4881 15.8988 48.9821 15.8988C50.0714 15.8988 51.4524 15.4643 51.4524 14.1131C51.4524 12.9583 49.881 12.5536 47.1726 11.9643C44.9881 11.4821 42.8095 10.7024 42.8095 8.25C42.8095 4.67857 45.8393 3.78571 48.7619 3.78571C51.6845 3.78571 54.5357 4.80952 54.8274 8.22619H51.256C51.1488 6.74405 50.0298 6.33928 48.6726 6.33928C47.8214 6.33928 46.5774 6.50595 46.5774 7.63095C46.5774 9.00595 48.7024 9.19047 50.8571 9.70238C53.0119 10.2143 55.2143 11.0238 55.2143 13.6071C55.2262 17.2619 52.0893 18.4524 48.9524 18.4524C45.8155 18.4524 42.6488 17.2619 42.494 13.5595H46.0833ZM65.756 9.63095C65.4107 7.69048 64.5655 6.65476 62.7798 6.65476C62.3751 6.63207 61.9701 6.69225 61.5896 6.83162C61.209 6.97099 60.861 7.18662 60.5667 7.46528C60.2724 7.74394 60.0382 8.07976 59.8783 8.45216C59.7184 8.82456 59.6363 9.22568 59.6369 9.63095H65.756ZM59.6131 12.0476C59.7202 14.4702 60.8929 15.5714 62.994 15.5714C64.506 15.5714 65.7321 14.631 65.9702 13.7857H69.2976C68.2321 17.0536 65.9702 18.4524 62.8571 18.4524C58.5238 18.4524 55.8393 15.4405 55.8393 11.1369C55.8393 6.97024 58.6845 3.79167 62.8571 3.79167C67.5417 3.79167 69.7976 7.77381 69.5357 12.0476H59.6131ZM86.3095 6.72619H83.5417V13.6131C83.5417 14.8988 83.8631 15.2262 85.1369 15.2262C85.5363 15.2301 85.9351 15.1942 86.3274 15.119V18.0952C85.5959 18.1975 84.8576 18.2433 84.119 18.2321C81.8095 18.2321 79.7857 17.6905 79.7857 14.9226V6.72619H75.3155V13.6131C75.3155 14.8988 75.6369 15.2262 76.9107 15.2262C77.3101 15.2301 77.7089 15.1942 78.1012 15.119V18.0952C77.3697 18.1973 76.6314 18.2431 75.8929 18.2321C73.5774 18.2321 71.5595 17.6905 71.5595 14.9226V6.72619H69.2262V4.16667H71.5119V0H75.2857V4.16667H79.7619V0H83.5357V4.16667H86.3095V6.72619ZM96.2143 9.63095C95.869 7.69048 95.0238 6.65476 93.2083 6.65476C92.8042 6.63291 92.3998 6.69371 92.02 6.83346C91.6401 6.97321 91.2928 7.18897 90.9992 7.46754C90.7056 7.74612 90.4718 8.08165 90.3123 8.45363C90.1528 8.82561 90.0708 9.22621 90.0714 9.63095H96.2143ZM90.0595 12.0476C90.1667 14.4702 91.3393 15.5714 93.4405 15.5714C94.9524 15.5714 96.1786 14.631 96.4167 13.7857H99.7381C98.6786 17.0536 96.4286 18.4524 93.3036 18.4524C88.9702 18.4524 86.3095 15.4405 86.3095 11.1369C86.3095 6.97024 89.1548 3.79167 93.3274 3.79167C98.006 3.79167 100.268 7.77381 100 12.0476H90.0595Z"></path></svg>