<svg xmlns="http://www.w3.org/2000/svg" width="129" height="18" viewBox="0 0 129 18" fill="none">
<path d="M0.577979 17.7048C0.213853 17.7048 0 17.4928 0 17.1388V16.9521C0 16.599 0.170503 16.4338 0.486466 16.3161L1.19064 16.0807C1.6771 15.894 1.84664 15.6801 1.84664 15.1851V3.73365C1.84664 3.23867 1.6771 3.02669 1.19064 2.83804L0.481649 2.60269C0.165687 2.48502 0 2.32252 0 1.96671V1.77993C0 1.42598 0.218669 1.21399 0.582796 1.21399H5.37039C5.73548 1.21399 5.95415 1.42598 5.95415 1.77993V1.96671C5.95415 2.31973 5.78364 2.48502 5.46769 2.60269L4.75869 2.83617C4.24815 3.02294 4.07764 3.23681 4.07764 3.73178V15.1814C4.07764 15.6763 4.24815 15.8883 4.75869 16.077L5.46287 16.3123C5.77882 16.4301 5.94933 16.5925 5.94933 16.9483V17.1351C5.94933 17.489 5.73066 17.7011 5.36558 17.7011L0.577979 17.7048Z" fill="#1a4631"></path>
<path d="M7.40686 17.7206C7.04274 17.7206 6.82888 17.5086 6.82888 17.1546V16.9903C6.82888 16.6606 6.99842 16.4953 7.33847 16.401L7.82011 16.2599C8.30177 16.118 8.47613 15.8865 8.47613 15.3643V9.26224C8.47613 8.55528 8.28346 8.2723 7.3587 8.06031C6.97337 7.96692 6.82406 7.82497 6.82406 7.49998V7.35429C6.82406 7.09466 6.96952 6.90602 7.33365 6.78834L9.49721 5.96371C10.0752 5.75171 10.4451 5.96371 10.4451 6.553V7.07131C10.4451 7.30665 10.6378 7.37763 10.8304 7.25809L11.2157 7.0461C12.3823 6.33914 13.6944 5.89087 15.0063 5.89087C16.9994 5.89087 18.0687 7.09279 18.0687 9.1894V15.3662C18.0687 15.8846 18.2391 16.1199 18.7488 16.2618L19.2111 16.4029C19.5512 16.4963 19.7207 16.6625 19.7207 16.9922V17.1565C19.7207 17.5104 19.5021 17.7225 19.1379 17.7225H16.537C16.1719 17.7225 15.9533 17.5104 15.9533 17.1565V9.66289C15.9533 8.2723 15.5891 7.56628 14.3494 7.56628C13.1096 7.56628 11.8226 8.03323 11.1175 8.46096C10.6802 8.69723 10.5588 8.92791 10.5588 9.37991V15.3662C10.5588 15.8846 10.7283 16.1199 11.2148 16.2618L11.6964 16.4029C12.0374 16.4963 12.207 16.6625 12.207 16.9922V17.1565C12.207 17.5104 11.9883 17.7225 11.629 17.7225L7.40686 17.7206Z" fill="#1a4631"></path>
<path d="M25.3286 17.7207H21.0879C20.7223 17.7207 20.503 17.5082 20.503 17.1537V16.9882C20.503 16.6575 20.6736 16.4921 21.0148 16.3976L21.5023 16.2558C21.9897 16.114 22.1602 15.8778 22.1602 15.358V7.91527C22.1602 7.74988 22.0384 7.63173 21.8678 7.63173H20.9904C20.6249 7.63173 20.4055 7.39546 20.4055 7.04104V6.87565C20.4055 6.54486 20.5761 6.35584 20.8686 6.21408L21.1366 6.09594C21.5266 5.88329 21.6241 5.7179 21.6972 5.2926L21.819 4.15847C22.2089 1.37041 23.8662 0 26.8152 0C27.8388 0 28.8868 0.259906 29.5936 0.543436C29.7398 0.61432 29.8617 0.61432 30.0322 0.543436L31.2509 0.0945107C31.8357 -0.141765 32.2256 0.0945107 32.2256 0.685203V15.358C32.2256 15.8778 32.3963 16.114 32.908 16.2558L33.3955 16.3976C33.7367 16.4921 33.9073 16.6575 33.9073 16.9882V17.1537C33.9073 17.5082 33.6636 17.7207 33.2981 17.7207H29.0817C28.6918 17.7207 28.4725 17.5082 28.4725 17.1537V16.9882C28.4725 16.6575 28.6431 16.4921 28.9843 16.3976L29.4718 16.2558C29.9835 16.114 30.1542 15.8778 30.1542 15.358V3.68591C30.1542 3.26061 29.9835 3.00071 29.5936 2.69356C28.6674 1.98472 27.327 1.5358 26.0841 1.5358C24.4024 1.5358 23.647 2.3864 23.647 3.78043C23.647 5.24535 24.4024 6.09594 26.4984 6.09594H26.9127C27.2783 6.09594 27.4976 6.30859 27.4976 6.663V7.06468C27.4976 7.41908 27.2783 7.63173 26.9127 7.63173H24.573C24.4024 7.63173 24.2563 7.74988 24.2563 7.91527V15.358C24.2563 15.8778 24.4268 16.114 24.9142 16.2558L25.4017 16.3976C25.7429 16.4921 25.9134 16.6575 25.9134 16.9882V17.1537C25.9134 17.5082 25.6942 17.7207 25.3286 17.7207Z" fill="#1a4631"></path>
<path d="M44.4301 15.4785C43.8713 16.7271 42.3166 18 39.6435 18C36.2411 18 33.7134 15.6204 33.7134 11.9688C33.7134 8.29302 36.1438 5.93678 39.2784 5.93678C41.6865 5.93678 43.5554 7.23303 44.09 9.56592C44.1863 10.0133 44.0178 10.2252 43.6527 10.3429L36.4356 12.9345C36.3989 12.9479 36.3654 12.9683 36.3369 12.9944C36.3085 13.0206 36.2856 13.0519 36.2698 13.0867C36.2539 13.1214 36.2453 13.159 36.2446 13.1969C36.2437 13.2349 36.2508 13.2727 36.2651 13.308C36.8239 14.933 38.185 16.0406 40.153 16.0406C41.6846 16.0406 42.7539 15.4803 43.3608 14.7687C43.6768 14.439 44.0178 14.3018 44.3337 14.509C44.6246 14.6771 44.6497 14.9835 44.4301 15.4785ZM35.8038 11.0956C35.8026 11.1896 35.8106 11.2834 35.8278 11.3758C35.8519 11.5168 35.9492 11.5878 36.1438 11.4935L41.3928 9.56219C41.6115 9.49121 41.757 9.39688 41.6597 9.11391C41.2714 8.01004 40.2994 7.47118 39.206 7.47118C37.2862 7.47118 35.8038 8.85802 35.8038 11.0956Z" fill="#1a4631"></path>
<path d="M45.3784 11.968C45.3784 8.36311 47.6633 5.96018 50.8952 5.96018C51.6725 5.96018 52.134 6.17218 52.6697 6.17218C53.2524 6.17218 53.471 5.96018 53.763 5.96018C54.0789 5.96018 54.2003 6.1012 54.3458 6.38418L55.5364 8.92811C55.7068 9.30167 55.5855 9.58838 55.3177 9.70605L55.2213 9.75275C54.9323 9.91805 54.6435 9.84614 54.3958 9.56597C53.0819 8.08014 52.2062 7.39745 50.8952 7.39745C49.0967 7.39745 47.4928 8.7871 47.4928 11.2377C47.4928 14.0394 49.2181 16.0435 51.9153 16.0435C53.2283 16.0435 54.0298 15.7139 54.6376 15.1246C55.0229 14.7715 55.2937 14.7006 55.5855 14.8658C55.8523 15.0303 55.9988 15.2899 55.6588 15.8791C54.9777 17.1511 53.3467 17.9991 51.4058 17.9991C47.7115 17.9991 45.3784 15.5961 45.3784 11.968Z" fill="#1a4631"></path>
<path d="M57.9665 15.5961V7.98574C57.9677 7.94864 57.9611 7.91168 57.947 7.87717C57.9328 7.84265 57.9116 7.8113 57.8845 7.78504C57.8575 7.75879 57.8251 7.7382 57.7895 7.72452C57.7539 7.71086 57.7158 7.70441 57.6775 7.70559H56.8029C56.4387 7.70559 56.2201 7.49359 56.2201 7.18726V7.02009C56.2201 6.73992 56.3164 6.55315 56.6324 6.33648C57.4588 5.74812 58.0908 5.01781 58.796 4.05122C59.0145 3.72157 59.2573 3.60389 59.5242 3.60389C59.8893 3.60389 60.1321 3.83924 60.1321 4.21653V5.88914C60.1308 5.92625 60.1375 5.96321 60.1516 5.99773C60.1657 6.03225 60.1868 6.0636 60.214 6.08985C60.2411 6.1161 60.2734 6.13669 60.3091 6.15036C60.3446 6.16404 60.3827 6.17047 60.4211 6.16931H62.6809C63.046 6.16931 63.2646 6.38131 63.2646 6.72965V7.1303C63.2646 7.48424 63.046 7.69624 62.6809 7.69624H60.3237C60.2854 7.69508 60.2473 7.70153 60.2116 7.71519C60.1761 7.72886 60.1438 7.74945 60.1167 7.7757C60.0896 7.80195 60.0684 7.83332 60.0543 7.86783C60.0402 7.90235 60.0335 7.9393 60.0348 7.97641V15.2328C60.0348 15.9873 60.3998 16.3404 61.1531 16.3404C62.3919 16.3404 62.5143 15.7801 63.073 15.7801C63.1357 15.7788 63.1979 15.7901 63.2558 15.8134C63.3138 15.8367 63.3661 15.8714 63.4096 15.9152C63.4528 15.9592 63.4864 16.0113 63.5079 16.0684C63.5293 16.1255 63.5384 16.1864 63.5344 16.247C63.5344 17.1192 62.5142 17.9906 60.7158 17.9906C58.8412 17.999 57.9665 17.08 57.9665 15.5961Z" fill="#1a4631"></path>
<path d="M65.3067 17.7636C64.9426 17.7636 64.724 17.5517 64.724 17.1977V17.0333C64.724 16.7036 64.8945 16.5384 65.2345 16.4441L65.7162 16.3031C66.2026 16.161 66.3722 15.9294 66.3722 15.4074V9.352C66.3722 8.64596 66.1794 8.363 65.2547 8.151C64.8694 8.05762 64.7201 7.91566 64.7201 7.58506V7.44404C64.7201 7.18535 64.8656 6.9967 65.2306 6.8837L67.4905 6.01144C68.0983 5.79944 68.4625 6.01144 68.4625 6.60072V15.4093C68.4625 15.9276 68.6329 16.1629 69.1185 16.3049L69.6002 16.4458C69.9402 16.5393 70.1097 16.7055 70.1097 17.0351V17.1996C70.1097 17.5535 69.891 17.7655 69.5317 17.7655L65.3067 17.7636ZM65.5253 2.47289C65.5253 1.64826 66.2064 1.01227 67.1543 1.01227C68.1022 1.01227 68.7823 1.64826 68.7823 2.47289C68.7823 3.29752 68.1003 3.93351 67.1524 3.93351C66.2045 3.93351 65.5235 3.27418 65.5235 2.47289H65.5253Z" fill="#1a4631"></path>
<path d="M70.0926 11.9678C70.0926 8.38631 72.6203 5.93575 75.9254 5.93575C79.2304 5.93575 81.7572 8.38631 81.7572 11.9678C81.7572 15.5493 79.2304 17.9989 75.9254 17.9989C72.6203 17.9989 70.0926 15.5484 70.0926 11.9678ZM79.6437 12.5095C79.6437 9.89455 78.2094 7.6532 75.5603 7.6532C73.6164 7.6532 72.2071 9.01948 72.2071 11.3991C72.2071 14.0383 73.6655 16.2758 76.2895 16.2758C78.2334 16.2787 79.6437 14.9124 79.6437 12.5141V12.5095Z" fill="#1a4631"></path>
<path d="M82.5595 17.7636C82.1944 17.7636 81.9757 17.5517 81.9757 17.1978V17.0333C81.9757 16.7037 82.1462 16.5384 82.4862 16.4441L82.9679 16.3031C83.4496 16.1611 83.6249 15.9295 83.6249 15.4074V9.30535C83.6249 8.59838 83.4322 8.31541 82.5065 8.10342C82.1211 8.01003 81.9719 7.86807 81.9719 7.54307V7.39738C81.9719 7.13776 82.1174 6.94911 82.4824 6.83144L84.645 6.00681C85.2287 5.79481 85.5929 6.00681 85.5929 6.5961V7.11442C85.5929 7.34976 85.7856 7.42073 85.9782 7.30119L86.3636 7.08921C87.5302 6.38223 88.843 5.93396 90.1551 5.93396C92.1482 5.93396 93.2174 7.1359 93.2174 9.2325V15.4093C93.2174 15.9276 93.387 16.1629 93.8976 16.305L94.3589 16.4459C94.6989 16.5393 94.8695 16.7055 94.8695 17.0352V17.1996C94.8695 17.5536 94.6508 17.7655 94.2915 17.7655H91.7012C91.3371 17.7655 91.1184 17.5536 91.1184 17.1996V9.70599C91.1184 8.31541 90.7533 7.60938 89.5144 7.60938C88.2757 7.60938 86.9868 8.07634 86.2817 8.50405C85.8443 8.74034 85.7229 8.97101 85.7229 9.42302V15.4093C85.7229 15.9276 85.8934 16.1629 86.3789 16.305L86.8606 16.4459C87.2006 16.5393 87.3711 16.7055 87.3711 17.0352V17.1996C87.3711 17.5536 87.1525 17.7655 86.7874 17.7655L82.5595 17.7636Z" fill="#1a4631"></path>
<path d="M122.148 17.7533H117.347C116.981 17.7533 116.762 17.5406 116.762 17.1863V16.9973C116.762 16.6429 116.933 16.4774 117.249 16.3593L117.956 16.1231C118.444 15.9341 118.614 15.7214 118.614 15.2252V3.74214C118.614 3.24596 118.444 3.03332 117.956 2.84429L117.249 2.60802C116.933 2.48988 116.762 2.32449 116.762 1.97007V1.78104C116.762 1.42664 116.981 1.21399 117.347 1.21399H122.148C122.514 1.21399 122.733 1.42664 122.733 1.78104V1.97007C122.733 2.32449 122.563 2.48988 122.246 2.60802L121.539 2.84429C121.027 3.03332 120.856 3.24596 120.856 3.74214V15.2252C120.856 15.7214 121.027 15.9341 121.539 16.1231L122.246 16.3593C122.563 16.4774 122.733 16.6429 122.733 16.9973V17.1863C122.733 17.5406 122.514 17.7533 122.148 17.7533Z" fill="#1a4631"></path>
<path d="M104.523 17.7533H100.209C99.8195 17.7533 99.6001 17.5406 99.6001 17.1863V17.0209C99.6001 16.7137 99.7219 16.572 100.039 16.4538L100.575 16.2412C101.233 15.9813 101.574 15.6268 101.818 15.0598L106.107 4.14382C106.351 3.52949 106.132 3.17508 105.571 2.96244L104.742 2.67891C104.231 2.48988 104.109 2.25361 104.206 1.89919L104.255 1.71016C104.353 1.37938 104.548 1.21399 104.937 1.21399H107.765C108.13 1.21399 108.398 1.37938 108.52 1.71016L113.882 14.7999C114.223 15.6268 114.54 15.9341 115.125 16.194L115.637 16.4066C115.953 16.5483 116.075 16.7374 116.075 16.9973V17.1863C116.075 17.5406 115.856 17.7533 115.49 17.7533H110.908C110.519 17.7533 110.299 17.5406 110.299 17.1863V16.9973C110.299 16.7374 110.421 16.5483 110.738 16.4538L111.201 16.2884C111.81 16.0758 111.883 15.8632 111.688 15.3434L110.884 13.2404C110.835 13.0987 110.714 13.0278 110.543 13.0278H104.645C104.474 13.0278 104.353 13.0987 104.304 13.2641L103.597 15.1307C103.378 15.7214 103.548 16.0522 104.231 16.3357L104.669 16.5011C104.986 16.5956 105.108 16.7846 105.108 17.0209V17.1863C105.108 17.5406 104.889 17.7533 104.523 17.7533ZM105.279 11.5865H109.86C110.08 11.5865 110.177 11.4684 110.104 11.2557L107.74 5.20706C107.643 4.97079 107.448 4.97079 107.35 5.20706L105.035 11.2557C104.962 11.4684 105.084 11.5865 105.279 11.5865Z" fill="#1a4631"></path>
<path d="M125.244 3.49114H124.289C124.203 3.49114 124.159 3.44906 124.159 3.3709V3.34685C124.159 3.28673 124.196 3.24465 124.265 3.22661L124.395 3.18453C124.507 3.14846 124.544 3.11239 124.544 3.01018V1.72963C124.544 1.63945 124.5 1.59737 124.426 1.59737H124.414C124.246 1.59737 124.153 1.70558 123.917 2.04826C123.874 2.10838 123.824 2.1144 123.775 2.09035L123.75 2.08434C123.694 2.06029 123.669 2.02422 123.694 1.95207L123.905 1.3148C123.924 1.26069 123.961 1.23664 124.004 1.23664H124.017C124.054 1.23664 124.091 1.24867 124.128 1.26671C124.172 1.28474 124.221 1.30278 124.296 1.30278H125.232C125.307 1.30278 125.362 1.28474 125.4 1.26671C125.437 1.24867 125.474 1.23664 125.511 1.23664H125.524C125.567 1.23664 125.61 1.26069 125.629 1.3148L125.834 1.95207C125.858 2.02422 125.834 2.06029 125.778 2.08434L125.753 2.09035C125.703 2.1144 125.654 2.10838 125.617 2.04826C125.381 1.69356 125.282 1.59737 125.114 1.59737H125.102C125.027 1.59737 124.984 1.63945 124.984 1.72963V3.01018C124.984 3.11239 125.021 3.14846 125.133 3.18453L125.263 3.22661C125.331 3.25066 125.369 3.28673 125.369 3.34685V3.3709C125.369 3.44906 125.325 3.49114 125.244 3.49114ZM126.894 3.49114H126.113C126.026 3.49114 125.982 3.44906 125.982 3.3709V3.35287C125.982 3.29275 126.013 3.25667 126.082 3.23864L126.181 3.20858C126.292 3.17251 126.33 3.13042 126.33 3.02822V1.7657C126.33 1.6635 126.292 1.62141 126.181 1.58534L126.082 1.55528C126.013 1.53725 125.982 1.50117 125.982 1.44105V1.42302C125.982 1.34486 126.026 1.30278 126.113 1.30278H126.627C126.702 1.30278 126.751 1.33284 126.789 1.39296L127.427 2.39696C127.452 2.43303 127.477 2.43303 127.502 2.39696L128.134 1.39296C128.171 1.32683 128.221 1.30278 128.289 1.30278H128.779C128.86 1.30278 128.903 1.34486 128.903 1.42302V1.44707C128.903 1.50719 128.872 1.54326 128.798 1.56731L128.705 1.60338C128.593 1.64546 128.556 1.68153 128.556 1.78374V3.01018C128.556 3.11239 128.593 3.14846 128.705 3.19054L128.798 3.22661C128.866 3.25066 128.903 3.28673 128.903 3.34685V3.3709C128.903 3.44906 128.86 3.49114 128.779 3.49114H127.911C127.824 3.49114 127.781 3.44906 127.781 3.3709V3.34685C127.781 3.28673 127.818 3.25066 127.88 3.22661L127.979 3.19054C128.091 3.14846 128.128 3.11239 128.128 3.01018V2.10237C128.128 2.06029 128.091 2.04826 128.066 2.09035L127.508 2.95006C127.458 3.02822 127.341 3.02822 127.291 2.95006L126.739 2.09035C126.708 2.04826 126.671 2.06029 126.671 2.10237V3.02822C126.671 3.13042 126.708 3.17251 126.82 3.20858L126.919 3.23864C126.987 3.25667 127.018 3.29275 127.018 3.35287V3.3709C127.018 3.44906 126.975 3.49114 126.894 3.49114Z" fill="#1a4631"></path>
</svg>
