<svg width="91" height="24" viewBox="0 0 91 24" fill="none" xmlns="http://www.w3.org/2000/svg" role="img" aria-label="Vidéotron">
<g fill="#ffd200">
  <path d="M6.06859 17.3608H3.73833L0 6.01953H2.12412L4.91392 14.8004L7.72077 6.01953H9.82475L6.06859 17.3608Z" fill="currentColor"/>
  <path d="M12.248 17.3608V6.01953H14.2397V17.3608H12.248Z" fill="currentColor"/>
  <path d="M25.1468 15.6916C24.7553 16.2084 24.2811 16.6569 23.7434 17.0191C23.3968 17.2228 23.0064 17.34 22.605 17.3608H17.4082V6.01953H22.605C23.0121 6.02298 23.411 6.13421 23.7612 6.34191C24.2814 6.73439 24.7417 7.20065 25.1274 7.72596C25.3424 8.0439 25.4487 8.42287 25.4304 8.80623V14.6106C25.4441 14.9909 25.3455 15.3669 25.1468 15.6916V15.6916ZM22.4725 15.4638C22.4725 15.4638 22.5864 15.4638 22.605 15.4452C22.8708 15.2902 23.4396 14.8004 23.4396 14.5726V8.86435C23.4396 8.83192 23.4333 8.79981 23.421 8.76981C23.2143 8.42807 22.9279 8.14144 22.5864 7.93441C22.5312 7.91784 22.4734 7.91153 22.4159 7.91582H19.4006V15.4645L22.4725 15.4638Z" fill="currentColor"/>
  <path d="M28.5957 17.3608V6.01953H35.7252V7.91582H30.585V10.7831H35.3633V12.6794H30.5842V15.4692H35.7244V17.3663L28.5957 17.3608Z" fill="currentColor"/>
  <path d="M46.9721 15.7489C46.5735 16.2635 46.108 16.7227 45.588 17.1143C45.2314 17.3264 44.8264 17.4437 44.4117 17.4553H41.5289C41.1137 17.4466 40.708 17.329 40.3525 17.1143C39.8278 16.7282 39.3617 16.2683 38.9685 15.7489C38.7607 15.4259 38.6549 15.0479 38.6647 14.664V8.7279C38.6556 8.34553 38.7614 7.96922 38.9685 7.64763C39.3615 7.12809 39.8277 6.66818 40.3525 6.28218C40.708 6.0673 41.1136 5.94946 41.5289 5.94043H44.4117C44.8265 5.95227 45.2314 6.06991 45.588 6.28218C46.1082 6.67361 46.5737 7.13283 46.9721 7.64763C47.1789 7.96929 47.2844 8.3456 47.2751 8.7279V14.664C47.2851 15.0478 47.1796 15.4258 46.9721 15.7489ZM40.6571 14.6485C40.6571 14.6485 40.6571 14.705 40.6757 14.726C40.8985 15.0492 41.1819 15.326 41.5103 15.5412C41.5399 15.5547 41.5723 15.5611 41.6048 15.5598H44.3357C44.3681 15.5597 44.4002 15.5534 44.4303 15.5412C44.7588 15.3262 45.0423 15.0493 45.2649 14.726C45.2765 14.7017 45.2829 14.6753 45.2835 14.6485V8.78835C45.2835 8.78835 45.2835 8.71085 45.2649 8.6938C45.042 8.36504 44.7588 8.08156 44.4303 7.85842C44.4006 7.84508 44.3682 7.83872 44.3357 7.83982H41.6048C41.6048 7.83982 41.5273 7.83982 41.5103 7.85842C41.1819 8.08174 40.8987 8.36518 40.6757 8.6938C40.6636 8.72387 40.6573 8.75594 40.6571 8.78835V14.6485Z" fill="currentColor"/>
  <path d="M54.1787 7.91582V17.3608H52.1871V7.91582H49.1152V6.01953H57.2521V7.91582H54.1787Z" fill="currentColor"/>
  <path d="M67.4791 11.4627C67.1766 11.8357 66.8332 12.1737 66.4554 12.4702C66.3059 12.584 66.1393 12.6734 65.9618 12.7352L68.2184 17.3608H66.0563L63.9516 12.8879H61.7709V17.3639H59.7793V6.01953H65.1086C65.5886 6.02387 66.0569 6.16882 66.4554 6.43645C66.834 6.74539 67.1773 7.0952 67.4791 7.47952C67.7031 7.82377 67.8218 8.22583 67.8209 8.63651V10.305C67.8247 10.7163 67.7057 11.1194 67.4791 11.4627V11.4627ZM65.8301 8.65589C65.8309 8.61095 65.8243 8.56619 65.8107 8.52337C65.6975 8.31491 65.3938 7.93519 65.2047 7.91582H61.7717V10.9885H65.1094C65.2798 10.9885 65.6596 10.6281 65.8107 10.3631C65.8226 10.3389 65.8292 10.3125 65.8301 10.2856V8.65589Z" fill="currentColor"/>
  <path d="M79.0717 15.7489C78.6732 16.2637 78.2078 16.7229 77.6876 17.1143C77.331 17.3264 76.926 17.4437 76.5113 17.4553H73.6285C73.2133 17.4466 72.8076 17.329 72.4521 17.1143C71.9273 16.7283 71.4611 16.2684 71.0681 15.7489C70.8604 15.4259 70.7545 15.0479 70.7643 14.664V8.7279C70.7552 8.34553 70.861 7.96922 71.0681 7.64763C71.461 7.12794 71.9272 6.668 72.4521 6.28218C72.8076 6.0673 73.2132 5.94946 73.6285 5.94043H76.5113C76.9261 5.95227 77.331 6.06991 77.6876 6.28218C78.2079 6.67344 78.6734 7.13268 79.0717 7.64763C79.2787 7.96922 79.3845 8.34553 79.3754 8.7279V14.664C79.3852 15.0479 79.2794 15.4259 79.0717 15.7489V15.7489ZM72.7567 14.6485C72.7567 14.6485 72.7567 14.705 72.7753 14.726C72.9978 15.0491 73.281 15.326 73.6091 15.5412C73.639 15.5548 73.6716 15.5612 73.7044 15.5598H76.4353C76.4677 15.5597 76.4998 15.5534 76.5299 15.5412C76.8584 15.3262 77.1419 15.0493 77.3645 14.726C77.3761 14.7017 77.3824 14.6753 77.3831 14.6485V8.78835C77.3831 8.78835 77.3831 8.71085 77.3645 8.6938C77.1416 8.36504 76.8584 8.08156 76.5299 7.85842C76.5002 7.84503 76.4678 7.83866 76.4353 7.83982H73.7044C73.7044 7.83982 73.6269 7.83982 73.6091 7.85842C73.281 8.08178 72.998 8.36523 72.7753 8.6938C72.763 8.72381 72.7567 8.75592 72.7567 8.78835V14.6485Z" fill="currentColor"/>
  <path d="M88.2573 17.3608L84.3314 9.83148V17.3608H82.3398V6.01953H84.4833L88.3712 13.6434V6.01953H90.3621V17.3608H88.2573Z" fill="currentColor"/>
  <path d="M34.8601 3H32.6856L31.248 4.85987H33.0606L34.8601 3Z" fill="currentColor"/>
</g>
</svg>
