<svg width="116" height="32" viewBox="0 0 116 32" fill="none" xmlns="http://www.w3.org/2000/svg">
<path d="M50.7898 11.1711C49.2779 12.7756 49.2779 12.7756 49.2779 12.7756C48.2597 11.7574 47.118 11.1711 45.6061 11.1711C42.9833 11.1711 41.0086 13.2384 41.0086 16.1389C41.0086 19.0393 42.9833 21.1067 45.6061 21.1067C47.118 21.1067 48.4139 20.4587 49.3705 19.5022C50.7898 21.1067 50.7898 21.1067 50.7898 21.1067C49.5556 22.526 47.7968 23.2666 45.7295 23.2666C41.4097 23.2666 38.6018 20.181 38.6018 16.1389C38.6018 12.0042 41.4097 8.91864 45.7295 8.91864C47.766 8.91864 49.5556 9.75175 50.7898 11.1711Z" fill="#333357"/>
<path d="M67.6679 16.1389C67.6679 20.181 64.5824 23.2666 60.4477 23.2666C56.2205 23.2666 53.1349 20.181 53.1349 16.1389C53.1349 12.0042 56.2205 8.91864 60.4477 8.91864C64.5515 8.91864 67.6679 12.0042 67.6679 16.1389ZM55.5725 16.1389C55.5725 19.0393 57.6398 21.1067 60.4477 21.1067C63.163 21.1067 65.2303 19.0393 65.2303 16.1389C65.2303 13.2384 63.163 11.1711 60.4477 11.1711C57.609 11.1711 55.5725 13.2384 55.5725 16.1389Z" fill="#333357"/>
<path d="M77.7887 22.9888H74.9808L69.149 9.28888H71.7718L76.3693 20.6438L80.9668 9.28888H83.497L77.7887 22.9888Z" fill="#333357"/>
<path d="M98.3077 16.0463C98.3077 16.4166 98.3077 16.6943 98.3077 16.972C87.5082 16.972 87.5082 16.972 87.5082 16.972C87.7859 19.7799 89.7607 21.1992 92.1057 21.1992C93.8028 21.1992 95.1913 20.6438 96.4255 19.5947C97.6598 21.1992 97.6598 21.1992 97.6598 21.1992C95.9627 22.8037 94.1113 23.2666 92.044 23.2666C87.9093 23.2666 85.0089 20.4587 85.0089 16.1389C85.0089 11.9116 87.9094 8.91864 91.8589 8.91864C95.5924 8.91864 98.3077 11.9116 98.3077 16.0463ZM87.5391 14.9972C95.9936 14.9972 95.9936 14.9972 95.9936 14.9972C95.7159 12.6522 94.1114 11.0477 91.8589 11.0477C89.4213 11.0785 87.9094 12.6522 87.5391 14.9972Z" fill="#333357"/>
<path d="M115.957 16.1389C115.957 20.181 112.872 23.2666 108.737 23.2666C104.51 23.2666 101.424 20.181 101.424 16.1389C101.424 12.0042 104.51 8.91864 108.737 8.91864C112.872 8.91864 115.957 12.0042 115.957 16.1389ZM103.862 16.1389C103.862 19.0393 105.929 21.1067 108.737 21.1067C111.452 21.1067 113.52 19.0393 113.52 16.1389C113.52 13.2384 111.452 11.1711 108.737 11.1711C105.929 11.1711 103.862 13.2384 103.862 16.1389Z" fill="#333357"/>
<path d="M27.1852 4.62966C24.4391 1.8835 20.9524 0.340716 17.3422 0.00130269C16.9103 -0.029553 16.6634 0.494994 16.972 0.803552L22.742 6.57357C22.7728 6.60443 22.742 6.66614 22.6803 6.63529C21.0449 5.43191 19.1319 4.75309 17.188 4.56795C16.8794 4.5371 16.7251 4.90736 16.9411 5.12335L20.8598 9.04203C20.8907 9.07289 20.8598 9.1346 20.7981 9.10374C19.7181 8.36321 18.4839 7.93123 17.2188 7.8078C17.0028 7.77695 16.8794 8.05465 17.0337 8.17807L23.6985 14.8429C23.8528 14.9972 24.0996 14.8738 24.0688 14.6578C23.9454 13.3927 23.5134 12.1893 22.7729 11.1094C22.742 11.0785 22.8037 11.0168 22.8346 11.0477L26.599 14.8121C26.815 15.028 27.1852 14.8429 27.1544 14.5652C26.9692 12.6213 26.2904 10.7391 25.087 9.07289C25.0562 9.04203 25.1179 8.98032 25.1487 9.01118L30.9805 14.8121C31.289 15.1206 31.8136 14.8738 31.7827 14.4418C31.4742 10.8625 29.9314 7.37582 27.1852 4.62966Z" fill="#00ADFF"/>
<path d="M4.62966 4.62966C7.37582 1.8835 10.8625 0.340716 14.4418 0.00130269C14.8738 -0.029553 15.1206 0.494994 14.8121 0.803552L9.07289 6.57357C9.04203 6.60443 9.07289 6.66614 9.1346 6.63529C10.77 5.43191 12.683 4.75309 14.6269 4.56795C14.9355 4.5371 15.0898 4.90736 14.8738 5.12335L10.9242 9.04203C10.8934 9.07289 10.9242 9.1346 10.9859 9.10374C12.0659 8.36321 13.3001 7.93123 14.5652 7.8078C14.7812 7.77695 14.9046 8.05465 14.7503 8.17807L8.05465 14.8738C7.90037 15.028 7.65352 14.9046 7.68438 14.6886C7.8078 13.4235 8.23978 12.2202 8.98032 11.1402C9.01118 11.1094 8.94946 11.0477 8.91861 11.0785L5.12335 14.8429C4.90736 15.0589 4.5371 14.8738 4.56795 14.5961C4.75309 12.6522 5.43191 10.77 6.63529 9.10374C6.66614 9.07289 6.60443 9.01118 6.57357 9.04203L0.803552 14.8121C0.494994 15.1206 -0.029553 14.8738 0.00130269 14.4418C0.340716 10.8625 1.8835 7.37582 4.62966 4.62966Z" fill="#F05245"/>
<path d="M4.62966 27.3703C7.37582 30.1165 10.8625 31.6593 14.4726 31.9987C14.9046 32.0296 15.1515 31.505 14.8429 31.1965L9.07289 25.4264C9.04203 25.3956 9.07289 25.3339 9.1346 25.3647C10.77 26.5681 12.683 27.2469 14.6269 27.4321C14.9355 27.4629 15.0898 27.0926 14.8738 26.8766L10.9242 22.9271C10.8934 22.8963 10.9242 22.8345 10.9859 22.8654C12.0659 23.6059 13.3001 24.0379 14.5652 24.1613C14.7812 24.1922 14.9046 23.9145 14.7503 23.7911L8.05465 17.0954C7.90037 16.9411 7.65352 17.0645 7.68438 17.2805C7.8078 18.5456 8.23978 19.749 8.98032 20.8289C9.01118 20.8598 8.94946 20.9215 8.91861 20.8906L5.12335 17.1262C4.90736 16.9102 4.5371 17.0954 4.56795 17.3731C4.75309 19.317 5.43191 21.1992 6.63529 22.8654C6.66614 22.8963 6.60443 22.958 6.57357 22.9271L0.803552 17.1571C0.494994 16.8485 -0.029553 17.0954 0.00130269 17.5274C0.340716 21.1375 1.8835 24.6242 4.62966 27.3703Z" fill="#1CEBCF"/>
<path d="M27.1852 27.3704C24.4391 30.1165 20.9524 31.6593 17.3422 31.9987C16.9103 32.0296 16.6634 31.505 16.972 31.1965L22.742 25.4265C22.7728 25.3956 22.742 25.3339 22.6803 25.3647C21.0449 26.5373 19.1319 27.2469 17.188 27.4012C16.8794 27.4321 16.7251 27.0618 16.9411 26.8458L20.8598 22.9271C20.8907 22.8963 20.8598 22.8346 20.7981 22.8654C19.7181 23.606 18.4839 24.0379 17.2188 24.1614C17.0028 24.1922 16.8794 23.9145 17.0337 23.7911L23.6985 17.1263C23.8528 16.972 24.0996 17.0954 24.0688 17.3114C23.9454 18.5765 23.5134 19.7799 22.7729 20.8598C22.742 20.8907 22.8037 20.9524 22.8346 20.9215L26.599 17.1571C26.815 16.9411 27.1852 17.1263 27.1544 17.404C26.9692 19.3479 26.2904 21.2301 25.087 22.8963C25.0562 22.9271 25.1179 22.9889 25.1487 22.958L30.9188 17.188C31.2273 16.8794 31.7519 17.1263 31.721 17.5582C31.4742 21.1375 29.9314 24.6242 27.1852 27.3704Z" fill="#FFE300"/>
</svg>
