<?xml version="1.0" encoding="UTF-8" standalone="no"?>
<!-- Created with Inkscape (http://www.inkscape.org/) -->
<svg
   xmlns:dc="http://purl.org/dc/elements/1.1/"
   xmlns:cc="http://creativecommons.org/ns#"
   xmlns:rdf="http://www.w3.org/1999/02/22-rdf-syntax-ns#"
   xmlns:svg="http://www.w3.org/2000/svg"
   xmlns="http://www.w3.org/2000/svg"
   xmlns:sodipodi="http://sodipodi.sourceforge.net/DTD/sodipodi-0.dtd"
   xmlns:inkscape="http://www.inkscape.org/namespaces/inkscape"
   width="381.04086"
   height="115.36508"
   id="svg4812"
   sodipodi:version="0.32"
   inkscape:version="0.46"
   version="1.0"
   sodipodi:docname="Logo Quebecor.svg"
   inkscape:output_extension="org.inkscape.output.svg.inkscape">
  <defs
     id="defs4814">
    <clipPath
       clipPathUnits="userSpaceOnUse"
       id="clipPath2738">
      <path
         d="M 0,900.03 L 774,900.03 L 774,0.03 L 0,0.03 L 0,900.03 z"
         id="path2740" />
    </clipPath>
    <clipPath
       clipPathUnits="userSpaceOnUse"
       id="clipPath2730">
      <path
         d="M 0,900 L 774,900 L 774,0 L 0,0 L 0,900 z"
         id="path2732" />
    </clipPath>
    <clipPath
       clipPathUnits="userSpaceOnUse"
       id="clipPath2722">
      <path
         d="M 696.081,681.886 L 752.894,681.886 L 752.894,662.676 L 696.081,662.676 L 696.081,681.886 z"
         clip-rule="evenodd"
         id="path2724" />
    </clipPath>
    <inkscape:perspective
       sodipodi:type="inkscape:persp3d"
       inkscape:vp_x="0 : 526.18109 : 1"
       inkscape:vp_y="0 : 1000 : 0"
       inkscape:vp_z="744.09448 : 526.18109 : 1"
       inkscape:persp3d-origin="372.04724 : 350.78739 : 1"
       id="perspective4820" />
  </defs>
  <sodipodi:namedview
     id="base"
     pagecolor="#ffffff"
     bordercolor="#666666"
     borderopacity="1.0"
     inkscape:pageopacity="0.0"
     inkscape:pageshadow="2"
     inkscape:zoom="1.4"
     inkscape:cx="292.13372"
     inkscape:cy="177.14286"
     inkscape:document-units="px"
     inkscape:current-layer="layer1"
     showgrid="false"
     inkscape:window-width="1280"
     inkscape:window-height="968"
     inkscape:window-x="-4"
     inkscape:window-y="-4" />
  <metadata
     id="metadata4817">
    <rdf:RDF>
      <cc:Work
         rdf:about="">
        <dc:format>image/svg+xml</dc:format>
        <dc:type
           rdf:resource="http://purl.org/dc/dcmitype/StillImage" />
      </cc:Work>
    </rdf:RDF>
  </metadata>
  <g
     inkscape:label="Calque 1"
     inkscape:groupmode="layer"
     id="layer1"
     transform="translate(1081.7041,494.271)">
    <g
       transform="matrix(8.2574678,0,0,-8.2574678,-6849.2729,5108.2475)"
       id="g2718">
      <g
         id="g2720"
         clip-path="url(#clipPath2722)">
        <g
           id="g2726">
          <g
             id="g2728"
             clip-path="url(#clipPath2730)">
            <g
               id="g2734">
              <g
                 id="g2736"
                 clip-path="url(#clipPath2738)">
                <g
                   id="g2742"
                   transform="translate(728.384,676.295)">
                  <path
                     d="M 0,0 L 0,0.012 C 0,1.206 1.126,2.184 2.675,2.184 C 4.224,2.184 5.335,1.218 5.335,0.024 L 5.335,0.012 C 5.335,-1.182 4.209,-2.16 2.66,-2.16 C 1.111,-2.16 0,-1.194 0,0 z M 4.18,0 L 4.18,0.012 C 4.18,0.732 3.549,1.332 2.66,1.332 C 1.771,1.332 1.154,0.744 1.154,0.024 L 1.154,0.012 C 1.154,-0.708 1.785,-1.308 2.675,-1.308 C 3.564,-1.308 4.18,-0.72 4.18,0"
                     style="fill:#231f20;fill-opacity:1;fill-rule:nonzero;stroke:none"
                     id="path2744" />
                </g>
                <g
                   id="g2746"
                   transform="translate(734.414,678.407)">
                  <path
                     d="M 0,0 L 2.295,0 C 2.933,0 3.428,-0.15 3.758,-0.426 C 4.038,-0.66 4.188,-0.99 4.188,-1.386 L 4.188,-1.398 C 4.188,-2.076 3.751,-2.502 3.113,-2.7 L 4.339,-4.2 L 3.048,-4.2 L 1.972,-2.856 L 1.105,-2.856 L 1.105,-4.2 L 0,-4.2 L 0,0 z M 2.223,-2.04 C 2.761,-2.04 3.07,-1.8 3.07,-1.446 L 3.07,-1.434 C 3.07,-1.038 2.74,-0.834 2.202,-0.834 L 1.105,-0.834 L 1.105,-2.04 L 2.223,-2.04"
                     style="fill:#231f20;fill-opacity:1;fill-rule:nonzero;stroke:none"
                     id="path2748" />
                </g>
                <g
                   id="g2750"
                   transform="translate(714.427,664.508)">
                  <path
                     d="M 0,0 C 0,0 9.219,14.377 30.185,9.204 C 30.185,9.204 11.745,12.499 0,0"
                     style="fill:#65a6df;fill-opacity:1;fill-rule:nonzero;stroke:none"
                     id="path2752" />
                </g>
                <g
                   id="g2754"
                   transform="translate(702.619,674.495)">
                  <path
                     d="M 0,0 C -0.423,-0.228 -0.932,-0.36 -1.491,-0.36 C -3.04,-0.36 -4.152,0.606 -4.152,1.8 L -4.152,1.812 C -4.152,3.006 -3.026,3.984 -1.477,3.984 C 0.072,3.984 1.183,3.018 1.183,1.824 L 1.183,1.812 C 1.183,1.374 1.026,0.954 0.739,0.606 L 1.255,0.24 L 0.553,-0.414 L 0,0 z M -0.817,0.606 L -1.635,1.188 L -0.932,1.848 L -0.107,1.224 C -0.014,1.398 0.029,1.59 0.029,1.8 L 0.029,1.812 C 0.029,2.532 -0.602,3.132 -1.491,3.132 C -2.38,3.132 -2.997,2.544 -2.997,1.824 L -2.997,1.812 C -2.997,1.092 -2.366,0.492 -1.477,0.492 C -1.233,0.492 -1.011,0.534 -0.817,0.606"
                     style="fill:#231f20;fill-opacity:1;fill-rule:nonzero;stroke:none"
                     id="path2756" />
                </g>
                <g
                   id="g2758"
                   transform="translate(704.419,676.007)">
                  <path
                     d="M 0,0 L 0,2.4 L 1.104,2.4 L 1.104,0.024 C 1.104,-0.66 1.513,-1.014 2.187,-1.014 C 2.861,-1.014 3.27,-0.672 3.27,-0.006 L 3.27,2.4 L 4.374,2.4 L 4.374,0.03 C 4.374,-1.242 3.521,-1.866 2.173,-1.866 C 0.825,-1.866 0,-1.236 0,0"
                     style="fill:#231f20;fill-opacity:1;fill-rule:nonzero;stroke:none"
                     id="path2760" />
                </g>
                <g
                   id="g2762"
                   transform="translate(709.632,678.407)">
                  <path
                     d="M 0,0 L 3.786,0 L 3.786,-0.822 L 1.097,-0.822 L 1.097,-1.674 L 3.464,-1.674 L 3.464,-2.496 L 1.097,-2.496 L 1.097,-3.378 L 3.822,-3.378 L 3.822,-4.2 L 0,-4.2 L 0,0"
                     style="fill:#231f20;fill-opacity:1;fill-rule:nonzero;stroke:none"
                     id="path2764" />
                </g>
                <g
                   id="g2766"
                   transform="translate(714.287,678.407)">
                  <path
                     d="M 0,0 L 2.33,0 C 2.904,0 3.356,-0.132 3.642,-0.372 C 3.872,-0.564 3.987,-0.798 3.987,-1.086 L 3.987,-1.098 C 3.987,-1.572 3.685,-1.836 3.327,-2.004 C 3.908,-2.19 4.266,-2.472 4.266,-3.036 L 4.266,-3.048 C 4.266,-3.816 3.52,-4.2 2.388,-4.2 L 0,-4.2 L 0,0 z M 2.093,-1.698 C 2.581,-1.698 2.89,-1.566 2.89,-1.254 L 2.89,-1.242 C 2.89,-0.966 2.631,-0.81 2.165,-0.81 L 1.075,-0.81 L 1.075,-1.698 L 2.093,-1.698 z M 2.388,-3.39 C 2.875,-3.39 3.169,-3.246 3.169,-2.934 L 3.169,-2.922 C 3.169,-2.64 2.918,-2.466 2.352,-2.466 L 1.075,-2.466 L 1.075,-3.39 L 2.388,-3.39"
                     style="fill:#231f20;fill-opacity:1;fill-rule:nonzero;stroke:none"
                     id="path2768" />
                </g>
                <g
                   id="g2770"
                   transform="translate(719.227,678.407)">
                  <path
                     d="M 0,0 L 3.786,0 L 3.786,-0.822 L 1.097,-0.822 L 1.097,-1.674 L 3.464,-1.674 L 3.464,-2.496 L 1.097,-2.496 L 1.097,-3.378 L 3.822,-3.378 L 3.822,-4.2 L 0,-4.2 L 0,0"
                     style="fill:#231f20;fill-opacity:1;fill-rule:nonzero;stroke:none"
                     id="path2772" />
                </g>
                <g
                   id="g2774"
                   transform="translate(723.522,676.295)">
                  <path
                     d="M 0,0 L 0,0.012 C 0,1.206 1.076,2.184 2.618,2.184 C 3.564,2.184 4.131,1.92 4.597,1.536 L 3.894,0.858 C 3.507,1.152 3.112,1.332 2.61,1.332 C 1.764,1.332 1.155,0.744 1.155,0.024 L 1.155,0.012 C 1.155,-0.708 1.75,-1.308 2.61,-1.308 C 3.184,-1.308 3.536,-1.116 3.93,-0.816 L 4.633,-1.41 C 4.116,-1.872 3.543,-2.16 2.575,-2.16 C 1.097,-2.16 0,-1.206 0,0"
                     style="fill:#231f20;fill-opacity:1;fill-rule:nonzero;stroke:none"
                     id="path2776" />
                </g>
                <g
                   id="g2778"
                   transform="translate(738.517,669.066)" />
                <g
                   id="g2782"
                   transform="translate(741.015,669.195)" />
                <g
                   id="g2786"
                   transform="translate(743.794,672.332)" />
                <g
                   id="g2790"
                   transform="translate(743.77,669.066)" />
                <g
                   id="g2794"
                   transform="translate(746.231,669.066)" />
              </g>
            </g>
          </g>
        </g>
      </g>
    </g>
  </g>
</svg>
