<svg xmlns="http://www.w3.org/2000/svg" fill="none" viewBox="0 0 195 27" height="27" width="195">
<g clip-path="url(#clip0_7227_118109)">
<path fill="#090B00" d="M6.23339 12.986H6.08136V2.08252H10.411C13.5409 2.08252 15.1968 3.96642 15.1968 7.53261C15.1968 11.0988 13.5442 12.986 10.411 12.986H6.23339ZM22.8712 26.2956L17.3649 17.6627L10.2358 14.7146H12.5164C18.0061 14.7146 21.4203 11.9614 21.4203 7.53261C21.4203 3.10379 18.0094 0.28125 12.5164 0.28125H0V26.2956H6.08136V14.7146H8.49407L8.54034 14.7873L15.6892 26.2956H22.8712Z"></path>
<path fill="#090B00" d="M26.6387 0.28125V26.2989H45.8809V24.4976H32.8721H32.72V24.3423V13.4289V13.2768H32.8721H43.8449V11.4756H32.8721H32.72V11.3235V2.23456V2.08252H32.8721H45.8809V0.28125H26.6387Z"></path>
<path fill="#090B00" d="M57.178 0.28125H51.0967V26.2956H57.178V0.28125Z"></path>
<path fill="#090B00" d="M60.6777 0.28125V2.08252H68.6331H68.7851V2.23456V26.2989H74.8665V2.23456V2.08252H75.0218H82.9738V0.28125H60.6777Z"></path>
<path fill="#090B00" d="M111.018 0.28125L100.951 20.0258L100.822 20.2836L100.683 20.0291L89.9879 0.28125H86.4746V26.2989H88.5204V11.0063V10.4047L88.808 10.9335L97.117 26.2989H99.88L108.156 10.0974L108.443 9.53218V10.1668V26.2989H114.525V0.28125H111.018Z"></path>
<path fill="#090B00" d="M123.488 18.8063L128.574 7.26159L128.716 6.941L128.855 7.26159L133.872 18.8063L133.965 19.0211H123.392L123.484 18.8063H123.488ZM129.516 0.28125L118.067 26.2956H120.226L122.572 20.9116L122.612 20.819H134.745L134.784 20.9116L137.131 26.2956H143.923L132.478 0.28125H129.516Z"></path>
<path fill="#090B00" d="M167.72 0.28125V17.4313V17.8048L167.459 17.5371L150.659 0.28125H147.47V26.2989H149.516V9.07938V8.6993L149.777 8.97032L166.58 26.2989H169.766V0.28125H167.72Z"></path>
<path fill="#090B00" d="M185.911 9.93839C182.632 8.63619 179.803 7.50915 179.803 5.21873C179.803 3.32161 181.753 2.04915 184.658 2.04915C185.696 2.04915 187.259 2.20449 188.803 2.94483C190.26 3.64551 191.368 4.70644 192.091 6.09788L193.784 5.19229C191.953 1.89051 188.581 0 184.519 0C182.06 0 179.773 0.657712 178.084 1.85085C176.151 3.21585 175.126 5.20551 175.126 7.605C175.126 12.7775 179.823 14.668 183.968 16.3403C187.134 17.6161 189.867 18.7167 189.867 21.0468C189.867 21.9887 189.418 22.8414 188.598 23.4529C187.643 24.1668 186.258 24.5303 184.483 24.5303C180.534 24.5303 177.473 22.7026 175.847 19.3843L174.082 20.1775C174.898 22.1738 176.21 23.747 177.975 24.8509C179.806 25.9978 182.034 26.5795 184.589 26.5795C187.418 26.5795 190.022 25.8127 191.926 24.4147C193.939 22.9406 195 20.9146 195 18.5547C195 13.5575 190.171 11.6339 185.911 9.93839Z"></path>
</g>
<defs>
<clipPath id="clip0_7227_118109">
<rect fill="white" height="26.5762" width="195"></rect>
</clipPath>
</defs>
</svg>
