<?xml version="1.0" encoding="UTF-8" standalone="no"?>
<!-- Created with Inkscape (http://www.inkscape.org/) -->

<svg
   xmlns:dc="http://purl.org/dc/elements/1.1/"
   xmlns:cc="http://creativecommons.org/ns#"
   xmlns:rdf="http://www.w3.org/1999/02/22-rdf-syntax-ns#"
   xmlns:svg="http://www.w3.org/2000/svg"
   xmlns="http://www.w3.org/2000/svg"
   xmlns:sodipodi="http://sodipodi.sourceforge.net/DTD/sodipodi-0.dtd"
   xmlns:inkscape="http://www.inkscape.org/namespaces/inkscape"
   id="svg2"
   sodipodi:version="0.32"
   inkscape:version="0.92.4 (5da689c313, 2019-01-14)"
   width="100"
   height="25"
   version="1.0"
   sodipodi:docname="Veolia-environmental-services-logo.svg"
   inkscape:output_extension="org.inkscape.output.svg.inkscape">
  <title
     id="title814">Veolia logo</title>
  <metadata
     id="metadata7">
    <rdf:RDF>
      <cc:Work
         rdf:about="">
        <dc:format>image/svg+xml</dc:format>
        <dc:type
           rdf:resource="http://purl.org/dc/dcmitype/StillImage" />
        <dc:title>Veolia logo</dc:title>
        <cc:license
           rdf:resource="http://scripts.sil.org/OFL" />
      </cc:Work>
      <cc:License
         rdf:about="http://scripts.sil.org/OFL">
        <cc:permits
           rdf:resource="http://scripts.sil.org/pub/OFL/Reproduction" />
        <cc:permits
           rdf:resource="http://scripts.sil.org/pub/OFL/Distribution" />
        <cc:permits
           rdf:resource="http://scripts.sil.org/pub/OFL/Embedding" />
        <cc:permits
           rdf:resource="http://scripts.sil.org/pub/OFL/DerivativeWorks" />
        <cc:requires
           rdf:resource="http://scripts.sil.org/pub/OFL/Notice" />
        <cc:requires
           rdf:resource="http://scripts.sil.org/pub/OFL/Attribution" />
        <cc:requires
           rdf:resource="http://scripts.sil.org/pub/OFL/ShareAlike" />
        <cc:requires
           rdf:resource="http://scripts.sil.org/pub/OFL/DerivativeRenaming" />
        <cc:requires
           rdf:resource="http://scripts.sil.org/pub/OFL/BundlingWhenSelling" />
      </cc:License>
    </rdf:RDF>
  </metadata>
  <defs
     id="defs5" />
  <sodipodi:namedview
     inkscape:window-height="705"
     inkscape:window-width="1366"
     inkscape:pageshadow="2"
     inkscape:pageopacity="0.0"
     guidetolerance="10.0"
     gridtolerance="10.0"
     objecttolerance="10.0"
     borderopacity="1.0"
     bordercolor="#666666"
     pagecolor="#ffffff"
     id="base"
     inkscape:zoom="1"
     inkscape:cx="42.853475"
     inkscape:cy="10.595632"
     inkscape:window-x="-8"
     inkscape:window-y="-8"
     inkscape:current-layer="g4105"
     showgrid="false"
     inkscape:showpageshadow="false"
     inkscape:window-maximized="1" />
  <g
     id="g4105"
     transform="matrix(0.09093332,0,0,0.09093332,200.64511,-70.039203)">
    <path
       sodipodi:nodetypes="csssssssccssssscccssssssssccccsssssssssccssssssccsssssssssscccssccssscccccccscccccccccsscccccccsscccscccscccccccscccsccccssssscccccsssccscccc"
       id="path2163"
       d="m -2085.8475,1040.3692 c -56.7882,-9.0057 -100.7385,-50.63299 -112.3931,-106.45302 -2.2845,-10.94182 -3.0419,-31.19471 -1.585,-42.38181 7.8424,-60.21688 52.6644,-106.26175 113.0957,-116.18114 11.7206,-1.92386 35.153,-1.38635 46.3445,1.0631 47.8705,10.47722 85.2898,43.85017 100.4048,89.54746 4.5804,13.84833 6.6445,26.80685 6.6445,41.71603 0,62.81454 -43.0213,116.44268 -104.9454,130.81988 -9.7902,2.2731 -38.0237,3.3827 -47.566,1.8695 z m 13.8781,-60.79166 c -6.9989,-8.16434 -17.7257,-25.22422 -21.0055,-33.40704 -2.9812,-7.4378 -3.2955,-9.2238 -3.3116,-18.81341 -0.016,-9.57586 0.2631,-11.2035 2.9003,-16.91417 5.1875,-11.23236 14.6289,-17.51615 26.4206,-17.58419 17.2522,-0.0995 29.9407,14.71989 29.8616,34.87662 -0.052,13.21029 -6.9531,28.65898 -20.6623,46.25354 l -7.9247,10.17051 7.655,-0.69367 c 22.2232,-2.01381 43.0615,-11.92662 58.8551,-27.99732 8.4792,-8.62807 12.7906,-14.76853 17.9663,-25.58859 6.8196,-14.2567 8.883,-23.59236 8.9214,-40.36363 0.026,-11.28997 -0.4149,-15.91099 -2.1942,-23.00863 -11.4979,-45.86637 -55.7596,-76.76189 -102.3766,-71.461 -39.3336,4.47269 -72.1137,33.13731 -81.7208,71.461 -3.1954,12.74649 -3.1556,33.59174 0.087,45.71317 9.7524,36.45446 38.7819,63.55288 75.1516,70.15253 3.973,0.72092 8.9851,1.35176 11.1383,1.40185 l 3.9147,0.091 z m 532.6833,6.78908 c -9.7191,-1.7903 -21.5748,-5.77402 -27.6864,-9.30307 -14.6094,-8.43602 -24.1242,-24.28799 -27.4125,-45.67009 -1.4683,-9.54709 -0.5638,-30.51512 1.6977,-39.35454 3.9996,-15.63388 12.2221,-27.88914 24.1375,-35.97607 11.8997,-8.07628 36.643,-12.65068 57.1161,-10.55932 20.9322,2.13826 33.5553,7.28894 44.1829,18.02826 7.9238,8.00707 12.1717,16.01322 15.4346,29.09005 3.0098,12.06279 3.2364,37.52001 0.4306,48.35798 -6.1243,23.65503 -20.1849,37.871 -43.5005,43.98099 -10.7228,2.80995 -32.9558,3.51391 -44.4,1.40581 z m 34.2535,-25.5712 c 7.5841,-3.3697 10.9641,-6.42373 14.5451,-13.14236 4.3563,-8.17335 6.1617,-17.37243 6.1617,-31.39596 0,-32.65911 -11.4882,-46.89789 -37.8058,-46.85754 -12.1479,0.0187 -19.0208,2.16541 -25.4562,7.95137 -8.6621,7.78795 -12.3695,19.44895 -12.3695,38.90617 0,26.95223 8.4023,41.97131 25.9532,46.39097 6.7906,1.71001 23.3341,0.65211 28.9715,-1.85265 z m -327.2654,21.95093 c -0.5159,-1.32659 -13.6975,-31.20752 -29.2925,-66.40207 -15.5951,-35.19454 -28.3547,-64.36988 -28.3547,-64.83408 0,-0.4642 5.8318,-0.84401 12.9595,-0.84401 11.6129,0 13.4215,0.24365 17.4068,2.34501 2.4658,1.3002 5.6042,4.11019 7.0437,6.30682 1.428,2.179 10.0092,21.44431 19.0692,42.8118 9.0602,21.3675 16.793,39.46837 17.1842,40.22416 0.4233,0.81772 7.3535,-15.22535 17.1145,-39.61898 9.0218,-22.54624 17.376,-42.42966 18.565,-44.18536 1.1889,-1.75572 4.163,-4.24774 6.609,-5.53783 4.0507,-2.13644 5.7275,-2.34562 18.8034,-2.34562 h 14.3561 l -27.7121,61.30227 c -15.2416,33.71625 -28.838,62.78225 -30.2141,64.59112 -4.2387,5.57147 -9.4276,7.50042 -21.747,8.08434 -10.7222,0.5082 -10.8646,0.4853 -11.791,-1.89757 z m 142.6573,-0.061 c -18.9225,-3.58239 -34.9055,-20.29514 -41.0417,-42.91586 -3.1525,-11.62128 -3.1394,-33.95261 0.026,-45.15065 4.8954,-17.31577 14.8788,-31.14686 27.236,-37.73317 11.4378,-6.09629 15.2645,-6.58509 52.1247,-6.65804 l 33.3,-0.0659 v 12.1091 12.10909 l -28.7845,0.50454 -28.7844,0.50455 -6.6443,3.27298 c -4.6392,2.28529 -7.4947,4.50035 -9.4629,7.3403 -2.784,4.01744 -5.5375,12.39098 -5.5375,16.83993 v 2.29069 l 38.0931,0.2644 38.0932,0.26441 v 11.60455 11.60454 l -38.0932,0.26441 -38.0931,0.26441 v 2.19211 c 0,1.20567 0.7426,4.83888 1.6502,8.0738 2.2393,7.98045 7.706,14.09863 15.2847,17.10608 5.4205,2.15096 7.4945,2.31223 34.2764,2.66504 l 28.5068,0.37554 v 12.02703 12.02703 l -33.5522,-0.11286 c -18.4538,-0.0621 -35.8228,-0.5427 -38.5978,-1.06806 z m 297.5273,-0.8224 c -3.9698,-1.0407 -9.1413,-2.87343 -11.4922,-4.07271 -6.0724,-3.09796 -13.7899,-11.19897 -16.6776,-17.50645 -4.5513,-9.94148 -4.8956,-14.3847 -4.9369,-63.70387 l -0.038,-46.41818 h 10.5955 c 9.1602,0 11.0739,0.29977 14.1273,2.21314 6.7513,4.23058 6.5078,2.51582 7.0636,49.75504 l 0.5045,42.88635 2.5228,4.48653 c 1.8145,3.22719 3.9303,5.20992 7.5373,7.06364 4.907,2.52184 5.54,2.58421 29.5159,2.9082 l 24.5013,0.33109 v 12.03027 12.03027 l -28.0023,-0.0556 c -24.0213,-0.0476 -29.0284,-0.32458 -35.2204,-1.94776 z m 82.6181,-60.30804 c 0.2681,-59.27782 0.3751,-62.44896 2.1976,-65.13793 3.1956,-4.71496 7.1279,-6.11021 18.5184,-6.57061 l 10.3431,-0.41808 v 62.22365 c 0,68.66712 0.2208,66.227 -6.3558,70.237 -2.6753,1.63123 -5.1001,1.97044 -14.1078,1.97355 l -10.8772,0.004 z m 47.7273,61.12439 c 0.2841,-0.73466 12.2556,-28.35416 26.6033,-61.37666 29.2147,-67.23987 29.4418,-67.64437 39.4416,-70.22276 7.0262,-1.81166 24.6134,-1.92069 26.0233,-0.16132 0.7961,0.99342 54.7037,124.41084 57.323,131.23677 0.5967,1.55502 -0.5516,1.71094 -12.602,1.71094 -19.6415,0 -22.7598,-1.97979 -30.4291,-19.31897 l -4.6218,-10.44921 -26.9311,-0.26879 -26.931,-0.26879 -1.0338,2.71916 c -0.5686,1.49554 -3.0248,6.86755 -5.4584,11.93781 -3.5332,7.36159 -5.2848,9.81549 -8.6952,12.18144 -4.1683,2.89166 -4.6182,2.97064 -18.7381,3.28947 -11.689,0.26393 -14.368,0.0701 -13.9507,-1.00909 z m 94.022,-54.5653 c -7.7013,-18.47839 -18.2562,-42.8333 -18.8311,-43.45226 -0.613,-0.65994 -8.0432,15.66028 -18.8639,41.43408 l -1.3769,3.27955 h 19.7989 c 15.4467,0 19.6832,-0.27727 19.273,-1.26137 z"
       style="fill:#ed1c24;fill-opacity:1;stroke-width:1.00909078"
       inkscape:connector-curvature="0" />
  </g>
</svg>
