<svg viewBox="0 0 140 16" fill="none" height="16" width="140" xmlns="http://www.w3.org/2000/svg"><path d="M0 .368v15.305h2.987V9.739h5.975V6.997H2.987V3.192h6.711V.368z" fill="#050606"></path><path d="M17.023 7.898c-.327-.082-.614-.082-.86-.082-1.472 0-2.74.696-2.74 2.987v4.87h-2.865V5.033h2.782V6.63c.655-1.391 2.128-1.678 3.028-1.678.246 0 .45.041.655.041z" fill="#070808"></path><path d="m20.992 9.576 2.62-.41c.613-.082.818-.409.818-.736 0-.737-.573-1.392-1.8-1.392-1.27 0-1.965.819-2.047 1.72l-2.537-.533c.164-1.678 1.719-3.52 4.542-3.52 3.356 0 4.624 1.883 4.624 4.052v5.238c0 .573.082 1.31.123 1.678h-2.619c-.082-.287-.123-.86-.123-1.269-.532.86-1.555 1.596-3.15 1.596-2.251 0-3.643-1.514-3.643-3.192.041-1.923 1.433-2.987 3.192-3.232m3.438 1.8v-.45l-2.415.368c-.736.123-1.31.532-1.31 1.35 0 .614.451 1.228 1.392 1.228 1.187-.04 2.333-.614 2.333-2.496M32.327 15.673h-2.864V5.033h2.782v1.31c.655-1.105 1.924-1.596 3.07-1.596 2.619 0 3.846 1.882 3.846 4.215v6.71h-2.864v-6.22c0-1.186-.573-2.127-1.964-2.127-1.27 0-2.006.982-2.006 2.21z" fill="#080909"></path><path d="M41.453.04v15.633h2.864V12.89l1.187-1.269 2.823 4.052h3.52l-4.338-6.139 4.256-4.46H48l-3.683 3.929V.04z" fill="#000"></path><path d="M66.905 12.194h-6.22l-1.268 3.52h-3.151L62.158.409h3.438l5.852 15.305h-3.233zm-5.238-2.741h4.215l-2.128-5.77zM75.335 15.673h-2.864V5.033h2.782v1.31c.655-1.105 1.924-1.596 3.07-1.596 2.618 0 3.846 1.882 3.846 4.215v6.71h-2.865v-6.22c0-1.186-.572-2.127-1.964-2.127-1.268 0-2.005.982-2.005 2.21z" fill="#050606"></path><path d="M94.568 13.75c0 .695.04 1.473.082 1.923h-2.742a7 7 0 0 1-.123-1.228c-.49.86-1.555 1.473-2.987 1.473-3.028 0-5.197-2.373-5.197-5.606 0-3.11 2.087-5.565 5.115-5.565 1.842 0 2.7.736 2.987 1.31V0h2.824v13.75zm-5.402-.369c1.473 0 2.62-1.105 2.62-3.028 0-1.882-1.147-2.946-2.62-2.946s-2.619 1.064-2.619 2.987c0 1.841 1.105 2.987 2.62 2.987M108.89.04c4.174 0 7.898 3.029 7.898 7.98 0 4.91-3.724 7.98-7.898 7.98-4.133 0-7.857-3.028-7.857-7.98 0-4.91 3.724-7.98 7.857-7.98m0 13.096c2.373 0 4.788-1.637 4.788-5.116 0-3.437-2.415-5.115-4.788-5.115s-4.788 1.637-4.788 5.115c.041 3.438 2.456 5.116 4.788 5.116M121.043 9.576l2.619-.41c.614-.082.819-.409.819-.736 0-.737-.573-1.392-1.801-1.392-1.268 0-1.964.819-2.046 1.72l-2.537-.533c.164-1.678 1.719-3.52 4.542-3.52 3.356 0 4.624 1.883 4.624 4.052v5.238c0 .573.082 1.31.123 1.678h-2.619c-.082-.287-.123-.86-.123-1.269-.532.86-1.555 1.596-3.15 1.596-2.251 0-3.642-1.514-3.642-3.192 0-1.923 1.432-2.987 3.191-3.232m3.397 1.8v-.45l-2.415.368c-.736.123-1.309.532-1.309 1.35 0 .614.45 1.228 1.391 1.228 1.228-.04 2.333-.614 2.333-2.496M129.514.04v15.633h2.865V12.89l1.186-1.269 2.824 4.052h3.519l-4.338-6.139 4.256-4.46h-3.765l-3.682 3.929V.04z" fill="#070808"></path></svg>