<?xml version="1.0" encoding="utf-8"?>
<!-- Generator: Adobe Illustrator 12.0.0, SVG Export Plug-In . SVG Version: 6.00 Build 51448)  -->
<!DOCTYPE svg PUBLIC "-//W3C//DTD SVG 1.1//EN" "http://www.w3.org/Graphics/SVG/1.1/DTD/svg11.dtd" [
	<!ENTITY ns_svg "http://www.w3.org/2000/svg">
	<!ENTITY ns_xlink "http://www.w3.org/1999/xlink">
]>
<svg  version="1.1" id="Layer_1" xmlns="&ns_svg;" xmlns:xlink="&ns_xlink;" width="200" height="70.914" viewBox="0 0 200 70.914"
	 overflow="visible" enable-background="new 0 0 200 70.914" xml:space="preserve">
<g>
	<path fill="#e31c23" d="M9.369,35.479c-1.514,5.762,0.789,10.89,8.122,10.89c4.117,0,7.711-2.388,8.543-5.883
		c0.921-3.861-1.233-6.128-3.766-8.703l-2.392-2.511c-3.134-3.187-5.518-6.068-4.377-10.848c1.63-6.866,8.867-11.157,17.022-11.157
		c4.341,0,7.719,1.228,10.381,3.558c5.42,5.462-1.285,8.947-2.775,8.627c-0.371-0.075-0.512-0.169-0.512-0.169
		c1.424-4.414-0.099-9.317-6.236-9.317c-3.445,0-7.7,1.836-8.44,4.968c-0.849,3.555,1.708,6.002,4,8.332l2.186,2.145
		c3.462,3.37,6.296,6.555,5.057,11.764c-1.781,7.478-9.276,11.889-18.104,11.889c-4.868,0-9.679-1.456-12.372-4.499
		C0.493,38.554,6.463,35.407,9.369,35.479"/>
	<path fill="#e31c23" d="M97.447,28.55c-0.545,4.438-5.936,16.768-12.773,16.768c-2.733,0-3.538-2.096-3.305-4.003
		c0.464-3.765,5.61-16.591,12.371-16.591C96.546,24.724,97.694,26.513,97.447,28.55 M70.646,63.646l8.562-18.944h0.15
		c1.057,2.529,3.46,4.005,6.951,4.005c11.019,0,18.709-10.662,19.67-18.493c0.006-0.041,0.147-1.005,0.049-2.283
		c-0.33-3.804-2.897-6.599-8.381-6.599c-3.95,0-7.486,1.604-10.071,4.07l-0.132-0.12l0.897-2.131
		c-1.116-2.229-3.129-3.89-5.534-4.686l-17.99,40.16C65.983,60.994,68.131,62.802,70.646,63.646"/>
	<path fill="#e31c23" d="M63.482,28.231c-0.547,4.438-6.695,16.774-13.611,16.774c-2.581,0-3.375-2.223-3.15-4.013
		c0.536-4.378,6.479-16.276,13.166-16.276C62.545,24.717,63.723,26.257,63.482,28.231 M68.413,44.981
		c-0.473,0.226-0.928,0.354-1.344,0.354c-1.067,0-1.274-1.418-1.18-2.161c0.119-0.981,1.264-3.511,1.771-4.559l7.835-16.614
		c-2.493-0.988-5.349-0.967-7.912-0.026l-1.925,3.358c-1.045-2.59-3.456-4.01-7.028-4.01c-10.94,0-19.901,10.482-20.875,18.433
		c-0.59,4.815,1.939,8.94,8.319,8.94c5.169,0,9.489-3.02,12.192-6.47l0.139,0.125c0,0-0.385,1.319-0.502,2.22
		c-0.294,2.265,1.47,4.125,4.358,4.125c1.73,0,3.436-0.472,5.046-1.227l1.11-2.465L68.413,44.981z"/>
	<path fill="#e31c23" d="M135.789,32.971l4.602-8.934c0,0-2.577-0.167-4.114-0.27c-1.112-0.073-3.824-0.336-3.824-0.336l-2.21,3.988
		c-2.09,4.008-8.884,17.264-15.112,17.264c-1.292,0-2.144-0.488-2.011-1.601c0.169-1.359,5.21-10.683,5.21-10.683
		c1.086-2.039,2.682-5.12,2.932-7.148c0.291-2.41-1.799-3.949-4.68-3.949c-2.503,0-5.427,1.113-7.935,2.676
		c0.278,0.477,0.491,0.993,0.652,1.541c0.866-0.325,1.641-0.521,1.964-0.521c0.906,0,1.216,0.615,1.128,1.292
		c-0.12,0.989-4.682,10.135-4.682,10.135c-1.093,2.095-2.77,5.235-3.037,7.398c-0.367,3.019,2.139,4.888,5.63,4.868
		c6.085-0.033,10.911-3.973,14.363-8.689l0.135,0.124c-0.553,1.42-0.905,2.467-1.103,4.068c-0.289,2.345,1.273,4.497,4.388,4.497
		c2.803,0,5.42-1.175,7.64-2.824l-0.001-0.021c-0.223-0.564-0.311-1.189-0.228-1.86c0.005-0.073,0.013-0.158,0.022-0.242
		c-0.714,0.484-1.532,0.936-2.229,0.938c-1.218,0.009-1.228-1.168-1.138-1.909C132.452,40.37,134.652,35.439,135.789,32.971"/>
	<path fill="#e31c23" d="M173.249,41.651c-5.015,6.982-13.002,7.153-10.167-2.809c0.447-1.558,4.082-14.341,14.969-15.314
		c0.457,0.663,0.785,1.436,0.966,2.334C179.795,29.762,176.762,36.878,173.249,41.651 M181.911,21.629
		c-4.074-2.801-11.24-5.138-23.762-5.432l2.86-6.345c-2.443-0.988-5.22-0.97-7.728-0.029l-3.073,6.451
		c-8.302,0.363-18.112,2.579-36.034-1.005l-0.467,0.775c9.984,4.132,25.23,5.013,34.221,5.016l-6.53,13.705
		c-0.57,1.289-1.349,2.934-2.012,4.582c-1.009,2.195-1.344,3.777-1.396,4.64c-0.336,2.771,2.146,4.794,5.553,4.798
		c3.948,0.006,7.269-2.304,9.802-4.665l-0.028-0.093c-0.319-0.551-0.581-1.14-0.769-1.766c-0.503,0.471-1.281,1.155-1.745,1.491
		c-0.921,0.662-1.883,1.126-2.787,1.126c-1.44,0-1.591-1.013-1.479-1.935c0.211-1.722,1.953-5.413,2.771-7.138l6.857-15.207
		c6.839-0.683,15.394-1.639,19.9,1.101c-6.501,0.498-13.037,2.495-17.099,7.219c-2.354,2.729-3.828,6.034-4.18,9.313
		c-0.138,1.287-0.01,2.675,0.084,3.179c0.853,4.437,4.88,7.4,11.196,7.4c10.612,0,19.902-8.362,20.922-16.662
		c0.036-0.303,0.892-3.833-1.856-7.499c3.526,1.362,6.2,3.535,6.896,4.654c1.865-0.779,3.464-2.273,4.329-4.144
		C194.858,23.709,188.882,21.968,181.911,21.629"/>
</g>
</svg>
