<svg xmlns="http://www.w3.org/2000/svg" viewBox="0 0 196 36" fill="none" role="img" aria-label="OpenRouter">
  <title>OpenRouter</title>
  <!-- Official OpenRouter mark (routing "two-arrows" glyph) — OpenRouter brand asset,
       source: openrouter.ai inline header logo (aria-label "OpenRouter Logo"),
       recoloured from currentColor to brand ink #18181b (zinc 900). -->
  <g transform="translate(2 2) scale(0.0625)" fill="#18181b" stroke="#18181b">
    <path d="M3 248.945C18 248.945 76 236 106 219C136 202 136 202 198 158C276.497 102.293 332 120.945 423 120.945" stroke-width="90"/>
    <path d="M511 121.5L357.25 210.268L357.25 32.7324L511 121.5Z"/>
    <path d="M0 249C15 249 73 261.945 103 278.945C133 295.945 133 295.945 195 339.945C273.497 395.652 329 377 420 377" stroke-width="90"/>
    <path d="M508 376.445L354.25 287.678L354.25 465.213L508 376.445Z"/>
  </g>
  <!-- Wordmark set in the OpenRouter display sans (Inter / system fallback),
       brand ink #18181b, tight tracking — no network font loaded. -->
  <text x="42" y="25.5" fill="#18181b" font-family="Inter, 'Helvetica Neue', Arial, sans-serif" font-size="22" font-weight="600" letter-spacing="-0.6">OpenRouter</text>
</svg>
