<?xml version="1.0" encoding="UTF-8" standalone="no"?>
<!--
  Official SAQ (Société des alcools du Québec) wordmark "SAQ" (vector), sourced from saq.com:
  https://www.saq.com/static/version1781115462/frontend/Saq/saq/fr_CA/Absolunet_Footer/images/saq_logo_SAQ.svg
  Geometry is the unmodified official asset (the stacked SAQ letterform). Only the
  presentation fill is changed from the source #343232 to the measured SAQ brand
  coral-red #fc4d30 so it reads as the brand mark in the docs header.
-->
<svg xmlns="http://www.w3.org/2000/svg" viewBox="47.69 49.5 92.16 150.52" role="img" aria-label="SAQ">     <rect width="187.975" height="247.432" fill="none"/>     <rect x="69.255" y="148.436" width="49.466" height="9.896" fill="#fc4d30"/>     <polygon points="138.508 138.543 98.935 138.543 98.935 118.754 118.721 118.754 118.721 69.29 69.255 69.29 69.255 118.754 89.045 118.754 89.045 138.543 49.466 138.543 49.466 49.501 138.508 49.501 138.508 138.543" fill="#fc4d30"/>     <path d="M106.92,195.221a3.232,3.232,0,0,1-2-.585,4.26,4.26,0,0,1-1.311-1.75l-.4-.891-.524-1.289L93.3,168.221H83.221l1.129,2.618L74.8,192.924a3.423,3.423,0,0,1-3.386,2.337l-.847-.04v2.017c.726-.109,1.317-.178,1.775-.2q2.132-.206,3.867-.2,1.812,0,3.91.2a17.356,17.356,0,0,1,1.732.2v-2.017a5.332,5.332,0,0,1-1.086.083q-3.145,0-3.145-2.095a6.709,6.709,0,0,1,.645-2.46l1.854-4.314h10.4l1.733,4.193.2.442.363,1.049a3.347,3.347,0,0,1,.2,1,1.8,1.8,0,0,1-.847,1.577,4.558,4.558,0,0,1-2.5.56,3.467,3.467,0,0,1-.887-.04v2.017c.4-.029,1.056-.092,1.955-.184a28.217,28.217,0,0,1,2.922-.14q.845,0,2.5-.042c1.1-.024,1.921-.039,2.458-.039q4.8,0,8.989.405v-2.017ZM80.967,184.664l4.392-10.76,4.311,10.76Z" fill="#fc4d30"/>     <path d="M130.849,196.639a15.3,15.3,0,0,0,4.542-3.079,14.555,14.555,0,0,0,4.453-10.9,14.173,14.173,0,0,0-3.742-9.784,17.073,17.073,0,0,0-10.1-5.282,20.616,20.616,0,0,0-3.562-.331,19.248,19.248,0,0,0-2.183.125c-.731.082-1.417.193-2.064.331q-6.514,1.359-9.917,5.2a14.155,14.155,0,0,0-3.4,9.74,13.96,13.96,0,0,0,4.958,11.267q4.955,4.167,13.452,4.168c.686,0,1.353-.026,2-.085.069-.007.138-.011.208-.022l.122-.011.822.893.923.984,1,.167,6.51-1.2-.573-.612-.18.038a2.838,2.838,0,0,1-.62.1,3.2,3.2,0,0,1-2.5-1.189l-.385-.412.1-.056C130.767,196.673,130.807,196.655,130.849,196.639Zm-3.1-3.49c-.034.06-.07.118-.106.18l-.095.133-1.467-1.559-.973-.172a19.612,19.612,0,0,1-4.4,1.311l-.837.129.451.478.023.016a3.793,3.793,0,0,1,1.192.329,3.247,3.247,0,0,1,1.157.873l.947.994-.142.041-.125,0c-.078,0-.158.006-.236.006q-3.926,0-6.071-4.045a17.635,17.635,0,0,1-1.778-8.293,27.785,27.785,0,0,1,1.331-9.369q1.737-4.8,5.424-4.789,3.561,0,5.7,4.209a18.393,18.393,0,0,1,1.862,8.5Q129.607,189.888,127.745,193.149Z" fill="#fc4d30"/>     <path d="M70.94,187.746a8.455,8.455,0,0,0-2-4.948,27.251,27.251,0,0,0-6.59-4.7c-.7-.4-2.586-1.514-3.022-1.791a17.47,17.47,0,0,1-2.257-1.669,3.019,3.019,0,0,1-.967-2.157,2.558,2.558,0,0,1,1.491-2.4,4.639,4.639,0,0,1,2.025-.446,7.074,7.074,0,0,1,1.844.2,7.818,7.818,0,0,1,6.005,5.374,3.826,3.826,0,0,1,.2.775h1.815l-.643-8.1h-1.7q.2,1.018-1.167,1.017a7.485,7.485,0,0,1-1.572-.323,19.537,19.537,0,0,0-6.164-1.021,14.1,14.1,0,0,0-3.75.449,10.289,10.289,0,0,0-2.861,1.26,7.735,7.735,0,0,0-2.621,2.972,8.536,8.536,0,0,0-.4,6.618,7.765,7.765,0,0,0,1.414,2.5,10.827,10.827,0,0,0,1.733,1.688,37.955,37.955,0,0,0,3.181,2.177c.855.542,3.551,2.065,4.031,2.363a9.694,9.694,0,0,1,2.355,1.973,3.663,3.663,0,0,1,.869,2.422,4,4,0,0,1-.4,1.711A3.357,3.357,0,0,1,60.7,195.03a4.774,4.774,0,0,1-2.86.812,8.867,8.867,0,0,1-1.655-.159q-4.673-.774-6.284-6.107l-.241-.815H47.688l1.169,8.794h1.771c.017-.788,1.245-.739,1.8-.619.218.048.519.124.645.159.466.11,9.4,2.765,14.779-1.757a8.419,8.419,0,0,0,3.122-6.738A6.645,6.645,0,0,0,70.94,187.746Z" fill="#fc4d30"/> </svg>
