<svg xmlns="http://www.w3.org/2000/svg" fill="none" viewBox="0 0 157 40" height="40" width="157"><path fill="url(#a)" d="M0 19.997v.006C0 31.047 8.953 40 19.997 40s19.997-8.953 19.997-19.997v-.006C39.994 8.953 31.04 0 19.997 0S0 8.953 0 19.997Z"/><path fill="#000" d="M15.568 34.715c1.095.332 2.243.542 3.426.617l-.233-1.085a14.27 14.27 0 0 1-3.245-.664c-.03.381-.01.77.052 1.133Zm5.67-.468-.234 1.085a15.344 15.344 0 0 0 3.426-.617c.063-.361.082-.75.052-1.132a14.157 14.157 0 0 1-3.245.664ZM7.89 32.837a17.583 17.583 0 0 0 11.603 4.809l-.231-1.073a16.523 16.523 0 0 1-10.458-4.327l-.914.59Zm12.844 3.738-.23 1.073a17.594 17.594 0 0 0 11.6-4.81l-.914-.59a16.523 16.523 0 0 1-10.458 4.327m-4.944-4.141c.869.295 1.776.5 2.714.61l-.238-1.104a12.225 12.225 0 0 1-1.757-.39c-.32.201-.556.514-.719.884Zm5.946-.497-.238 1.105c.94-.107 1.847-.315 2.714-.61-.163-.37-.398-.683-.72-.884-.568.171-1.155.302-1.756.39ZM9.88 31.552a15.328 15.328 0 0 0 4.762 2.851c-.5-.349-1.055-.907-1.29-1.74a14.367 14.367 0 0 1-2.548-1.71l-.926.6h.002Zm16.765 1.111c-.236.833-.79 1.391-1.29 1.74a15.37 15.37 0 0 0 4.761-2.85l-.927-.6a14.29 14.29 0 0 1-2.546 1.71m-9.052-1.93c.144.032.287.06.433.087l-.101-.469a3.03 3.03 0 0 1-.332.381Zm4.382.087c.145-.026.288-.055.432-.088a3.428 3.428 0 0 1-.332-.38l-.1.468Zm-10.126-.54c.451.36.926.692 1.425.99.054-.42.165-.764.31-1.055a12.668 12.668 0 0 1-.793-.542l-.942.608Zm14.567-.066c.145.294.256.638.31 1.056.499-.298.974-.63 1.425-.99l-.941-.607c-.257.19-.523.37-.794.542Zm-12.66-1.166c.143.099.286.195.434.287.31-.364.619-.677.78-1.07l-1.214.783Zm12.054.287c.148-.092.291-.186.434-.287l-1.213-.783c.162.393.468.706.779 1.07Zm-4.782-2.14L20 32.657v-5.388a7.246 7.246 0 0 1-1.748-.214l1.744 9.29 1.744-9.29c-.233.058-.47.105-.712.14Zm-14.558.083a15.309 15.309 0 0 0 1.99 2.853l.598-.927A14.288 14.288 0 0 1 7.23 26.44c-.291.25-.55.537-.762.837m24.472 1.93.598.927a15.48 15.48 0 0 0 1.99-2.853 4.68 4.68 0 0 0-.762-.837c-.5.993-1.115 1.92-1.826 2.765m-20.223-3.317c.079.124.158.246.242.366l.258-.402a3.092 3.092 0 0 1-.502.036m18.32.366c.084-.12.165-.242.242-.366-.194 0-.361-.013-.503-.036l.26.402h.001Zm-20.801-.439c.415.837.918 1.623 1.494 2.346l.608-.942c-.36-.481-.685-.99-.97-1.524a1.682 1.682 0 0 0-.357-.038c-.257 0-.518.058-.775.158Zm22.396-.117a12.24 12.24 0 0 1-.97 1.523l.608.942a13.167 13.167 0 0 0 1.494-2.346 2.124 2.124 0 0 0-.775-.158c-.12 0-.24.013-.357.039Zm-4.818-1.345 3.136 4.591-3.812-3.811a7.265 7.265 0 0 1-3.382 1.913l.08.34c.038.165.068.328.098.488.171.918.334 1.785 1.962 2.73 1.34.774 1.432 2.31 1.396 2.737.212-.223.51-.745.552-1.417.039-.595-.118-1.481-1.072-2.325-1.29-1.136-1.096-2.463-.867-3.15l.034-.1 7.618 5.207-5.336-7.804a7.252 7.252 0 0 1-.407.604M8.445 31.556l7.617-5.207.034.1c.23.69.422 2.017-.867 3.151-.956.843-1.11 1.73-1.072 2.325.043.672.34 1.194.552 1.419-.036-.426.054-1.963 1.396-2.738 1.63-.942 1.791-1.81 1.962-2.729.03-.156.06-.314.097-.473l.081-.35a7.261 7.261 0 0 1-3.38-1.916l-3.811 3.811 3.135-4.59a6.934 6.934 0 0 1-.404-.606l-5.336 7.806-.004-.003Zm.845-9.06c.48-.038.92-.04 1.316-.205l-1.42-.306c.031.171.066.343.106.512m20.098-.206c.396.165.834.167 1.316.206.038-.17.075-.34.105-.512l-1.421.306Zm2.544-.548c-.047.32-.107.636-.177.946.31.105.635.268.97.531.14-.559.243-1.13.312-1.714l-1.105.237ZM7.272 23.22a3.25 3.25 0 0 1 .97-.53c-.071-.313-.131-.628-.178-.947l-1.105-.237c.067.584.172 1.155.31 1.714m-1.232 3.187c-.107-.6-.107-1.383.31-2.136-.302-.968-.5-1.98-.59-3.022l-1.086-.233a15.225 15.225 0 0 0 1.366 5.39Zm28.205-5.16a14.224 14.224 0 0 1-.591 3.022c.417.753.417 1.537.31 2.136a15.283 15.283 0 0 0 1.368-5.392l-1.087.234ZM7.173 32.119l.591-.914a16.523 16.523 0 0 1-4.338-10.46l-1.073-.23a17.584 17.584 0 0 0 4.82 11.604Zm29.4-11.373a16.518 16.518 0 0 1-4.339 10.46l.59.913a17.6 17.6 0 0 0 4.82-11.604l-1.072.23Zm-9.38-1.777 5.463 1.028h-5.387a7.225 7.225 0 0 1-1.04 3.74l.288.18c.146.09.283.185.418.279.77.529 1.5 1.027 3.32.541 1.495-.4 2.647.623 2.923.95-.009-.308-.167-.888-.612-1.393-.394-.447-1.135-.965-2.402-.884-1.714.112-2.515-.963-2.84-1.609l-.047-.094 9.066-1.704-9.29-1.746c.057.235.106.47.143.714M3.655 19.997l9.068 1.703-.047.095c-.325.648-1.126 1.725-2.842 1.615-1.272-.079-2.008.437-2.402.887-.445.505-.603 1.085-.612 1.393.276-.328 1.428-1.349 2.924-.95 1.821.485 2.549-.013 3.32-.542.136-.094.273-.188.419-.278l.291-.182a7.207 7.207 0 0 1-.967-2.71l-5.462-1.027h5.387c0-.604.075-1.188.214-1.749l-9.29 1.745h-.001Zm15.926 4.332c-.107-.058-.165-.129-.165-.129s.085-.03.197-.045a2.19 2.19 0 0 1 .39-.032 2.09 2.09 0 0 1 .577.077s-.055.07-.165.129a.769.769 0 0 1-.415.104.813.813 0 0 1-.422-.104m2.396-1.7.181-.068-.12.152a2.59 2.59 0 0 1-2.035.982 2.582 2.582 0 0 1-2.033-.982l-.12-.152.182.068a5.592 5.592 0 0 0 1.973.358c.677 0 1.342-.12 1.974-.358m-1.135-1.577c0-.135-.025-.253-.025-.253s.181.114.212.383c.034.294-.236.7-1.03.7s-1.062-.406-1.03-.7c.03-.27.212-.383.212-.383s-.025.118-.025.253c0 .242.21.342.84.342.632 0 .842-.1.842-.342m-5.618.691c-.214-.518-.103-1.053.248-1.198.351-.146.809.158 1.023.674.214.518.103 1.053-.248 1.198a.507.507 0 0 1-.187.037c-.312 0-.659-.28-.836-.71Zm8.537.674c-.35-.145-.462-.68-.248-1.198.214-.518.672-.82 1.023-.674.351.145.462.68.248 1.198-.177.43-.522.71-.837.71a.467.467 0 0 1-.186-.036Zm-6.521-4.377c1.01-.087 1.877.407 1.939 1.107a.936.936 0 0 1-.051.392s0-.125-.043-.236a.93.93 0 0 0-.047-.105.99.99 0 0 0-.655-.545c-.458-.114-.642.072-.642.072a.24.24 0 0 0-.082.178.24.24 0 0 0 .46.094l-.004.062a.623.623 0 0 1-1.248-.017c0-.086.013-.143.018-.18.015-.173-.24-.21-.476-.175a2.335 2.335 0 0 0-.496.133c-.137.049-.291.147-.291.147.235-.481.858-.86 1.62-.926m3.585 1.282c0-.065 0-.114.002-.189.028-.68.927-1.183 1.937-1.096.762.067 1.385.445 1.62.93 0 0-.081-.054-.224-.116a2.467 2.467 0 0 0-.942-.225c-.345-.02-.445.096-.445.096a.238.238 0 0 0-.084.178.24.24 0 0 0 .458.098v.041a.624.624 0 0 1-.623.625.64.64 0 0 1-.622-.563l-.013-.092c-.02-.167-.146-.203-.336-.182-.15.015-.274.077-.418.3-.169.259-.312 1.16-.312 1.16v-.968l.002.003Zm.25-1.764s.255-.798 1.268-.833c1.005-.034 1.423.525 1.44.548l.081.111-.135-.025s-.578-.114-1.307-.054c-.914.073-1.263.313-1.267.315l-.127.09.045-.148.002-.004Zm-4.854-.285c.017-.023.413-.55 1.353-.55h.088c1.012.034 1.265.824 1.267.833l.045.147-.127-.09s-.353-.24-1.267-.314c-.725-.058-1.301.053-1.307.053l-.135.026.081-.111.002.006ZM13.806 20a6.2 6.2 0 0 0 6.192 6.192 6.2 6.2 0 0 0 6.192-6.192 6.2 6.2 0 0 0-6.192-6.192 6.2 6.2 0 0 0-6.192 6.192Zm-.154-3.94-.1.034c-.69.229-2.017.421-3.151-.867-.843-.957-1.727-1.11-2.324-1.072-.673.043-1.195.34-1.42.552.429-.039 1.963.053 2.74 1.395.942 1.631 1.81 1.792 2.729 1.963.158.03.319.06.48.096l.34.08a7.25 7.25 0 0 1 1.239-2.597l-3.136-4.59 3.812 3.811a7.344 7.344 0 0 1 1.387-1.087L8.445 8.441l5.207 7.617Zm10.098-2.284c.505.306.972.672 1.387 1.087l3.812-3.812-3.136 4.591a7.233 7.233 0 0 1 1.235 2.598l.332-.076c.167-.04.332-.069.494-.101.919-.171 1.785-.334 2.73-1.963.774-1.342 2.313-1.432 2.737-1.395-.223-.212-.745-.51-1.42-.553-.592-.038-1.48.116-2.324 1.073-1.136 1.29-2.463 1.098-3.15.867l-.1-.035 5.206-7.617-7.803 5.336Zm-5.451-1.055-.095-.047c-.648-.326-1.72-1.126-1.611-2.84.081-1.272-.437-2.008-.884-2.402-.505-.445-1.085-.604-1.393-.612.327.276 1.35 1.427.95 2.924-.486 1.819.013 2.549.541 3.32.094.136.189.273.278.416l.182.292a7.241 7.241 0 0 1 2.708-.964l1.027-5.462v5.388c1.366 0 2.643.378 3.737 1.035l.18-.289c.09-.145.184-.282.278-.417.529-.77 1.028-1.5.542-3.32-.4-1.496.623-2.647.95-2.923-.308.008-.886.167-1.393.612-.448.394-.966 1.13-.886 2.401.109 1.71-.961 2.513-1.608 2.838l-.094.047-1.704-9.061-1.703 9.064h-.002ZM19.998.023l2.28 10.597c.413-.989-.191-2.264 1.281-3.733 1.663-1.658 3.857-.509 3.857-.509-1.027.661-1.999 1.93-1.727 3.035.21.845.214 1.428.15 1.821l8.29-5.355-5.882 9.105c.99-.409 1.466-1.736 3.546-1.733 2.35.002 3.089 2.367 3.089 2.367-1.195-.26-2.78-.05-3.367.924-.45.745-.858 1.16-1.184 1.396l8.615 1.853c0 .069.004.137.004.206V20.236a18.878 18.878 0 0 1-5.4 13.02 18.88 18.88 0 0 1-13.533 5.693c-.083 0-.167 0-.248-.002a18.881 18.881 0 0 1-12.987-5.392 18.874 18.874 0 0 1-5.7-13.391V19.999c0-.073.004-.144.006-.216l8.57-1.843c-.323-.233-.734-.649-1.183-1.396-.587-.973-2.173-1.183-3.367-.924 0 0 .74-2.365 3.088-2.367 2.08-.002 2.556 1.325 3.547 1.733L5.86 5.881l8.29 5.355c-.065-.393-.06-.978.15-1.82.274-1.105-.7-2.375-1.726-3.036 0 0 2.196-1.15 3.857.51 1.473 1.47.871 2.743 1.282 3.732L19.994.026l.004-.003Z"/><path fill="#262626" d="M22.276 10.62c.27-.649.104-1.421.374-2.29L19.996.025l.141.653 2.139 9.942ZM25.69 9.41c.21.845.213 1.428.15 1.821l1.322-.854c-.223-.387-.475-.794-.593-1.395-.276-1.402.848-2.607.848-2.607-1.028.661-2 1.93-1.726 3.035h-.002ZM29.63 13.95a.707.707 0 0 1 .067-.053c.053-.04.115-.078.182-.118.15-.097.316-.187.498-.264l3.755-7.636-5.882 9.105c.5-.206.871-.647 1.38-1.032v-.002ZM31.52 16.542c-.45.745-.859 1.16-1.184 1.395l1.415.304.036.005c.268-.542.34-1.182.67-1.698.533-.834 2.427-.93 2.427-.93-1.194-.26-2.78-.05-3.367.924h.003ZM17.718 10.62c-.27-.648-.105-1.421-.374-2.29L19.996.023l-.14.655-2.138 9.942ZM14.305 9.41c-.21.845-.214 1.428-.15 1.821l-1.322-.854c.222-.387.475-.794.593-1.395.276-1.402-.848-2.607-.848-2.607 1.027.661 2 1.93 1.725 3.035h.002ZM10.364 13.952a.74.74 0 0 0-.066-.054 3.06 3.06 0 0 0-.182-.117 3.222 3.222 0 0 0-.499-.264L5.863 5.881l5.882 9.105c-.501-.206-.871-.647-1.38-1.032v-.002ZM8.476 16.542c.45.745.858 1.16 1.182 1.395l-1.415.304-.037.005c-.267-.542-.34-1.182-.67-1.698-.532-.834-2.427-.93-2.427-.93 1.195-.26 2.78-.05 3.367.924Z" opacity=".15" style="mix-blend-mode:multiply"/><path fill="#787878" d="M29.39 22.29c.855.358 1.923-.042 3.147.792.002 0 .135.097.137.097l6.252-2.937h-.011l-9.524 2.049ZM31.168 26.805c1.479-.261 2.258.353 2.359.468l-.002-.004a8.945 8.945 0 0 0-.634-.719c-.67-.619-1.52-1.036-2.292-.845-.846.21-1.428.214-1.822.15l.846 1.307c.571-.023 1.055-.272 1.545-.357ZM26.487 29.205l-1.46-.941c.366.881 1.454 1.359 1.687 2.923 0 .007.004.013.006.022l6.456 2.316-6.687-4.32h-.002ZM23.465 31.533c-.745-.45-1.16-.858-1.393-1.183l-.33 1.528c.296.267.87.33 1.289.62 1.34.93 1.393 2.175 1.395 2.216.2-1.169-.036-2.624-.96-3.183v.002ZM10.605 22.29c-.854.358-1.922-.042-3.146.792-.002 0-.135.097-.137.097L1.07 20.242h.011l9.524 2.049ZM8.827 26.805c-1.48-.261-2.258.353-2.358.468l.002-.004c.203-.252.41-.496.633-.719.67-.619 1.52-1.036 2.293-.845.845.21 1.427.214 1.821.15l-.845 1.307c-.57-.023-1.056-.272-1.546-.357ZM13.509 29.203l1.46-.941c-.364.881-1.454 1.359-1.687 2.923 0 .007-.004.013-.007.022L6.82 33.523l6.687-4.32h.002ZM16.527 31.533c.744-.45 1.16-.858 1.393-1.183l.33 1.528c-.296.267-.87.33-1.289.62-1.34.93-1.393 2.175-1.395 2.216-.2-1.169.036-2.624.96-3.183v.002ZM20.418 24.331a.769.769 0 0 1-.416.105.813.813 0 0 1-.421-.105c-.105-.057-.16-.126-.163-.128 0 0 .066.447.584.447a.542.542 0 0 0 .578-.447s-.058.073-.162.128ZM19.996 21.882c-.572 0-.87-.21-.98-.439v-.002c.077.277.325.653.98.653s.895-.374.98-.644c-.111.225-.41.432-.978.432h-.002Z" opacity=".15" style="mix-blend-mode:multiply"/><path fill="#DCA85D" d="M56.495 24.047h1.257v-8.193h-1.257v8.193Zm4.696-7.057h1.77c1.07 0 1.65.59 1.65 1.443 0 .852-.58 1.431-1.65 1.431h-1.77V16.99Zm-1.256-1.136v8.193h1.256v-3.059h1.791l1.826 3.059h1.485l-1.999-3.288c.985-.394 1.606-1.267 1.606-2.337 0-1.485-1.18-2.568-2.862-2.568h-3.103Zm22.533 0v4.948c0 1.398-.83 2.175-2.055 2.175-1.224 0-2.042-.775-2.042-2.175v-4.948h-1.256v5.036c0 2.02 1.376 3.29 3.277 3.29 1.9 0 3.3-1.268 3.3-3.29v-5.036h-1.224Zm3.298 0v8.193h5.712v-1.148h-4.456v-2.414h3.966v-1.104h-3.966v-2.393h4.403V15.85h-5.66v.003ZM97.43 16.99h1.355c1.813 0 3.005 1.19 3.005 2.96s-1.19 2.95-3.005 2.95H97.43v-5.91Zm-1.256-1.136v8.193h2.774c2.404 0 4.174-1.749 4.174-4.097 0-2.348-1.77-4.096-4.174-4.096h-2.774Zm13.938 0v4.948c0 1.398-.831 2.175-2.055 2.175-1.224 0-2.042-.775-2.042-2.175v-4.948h-1.256v5.036c0 2.02 1.376 3.29 3.277 3.29 1.9 0 3.298-1.268 3.298-3.29v-5.036h-1.224.002Zm23.132 0v8.193h5.276v-1.148h-4.02v-7.045h-1.256Zm6.639 0v8.193h5.713v-1.148h-4.456v-2.414h3.966v-1.104h-3.966v-2.393h4.402V15.85h-5.659v.003Zm7.515 8.193h1.256v-8.193h-1.256v8.193Zm3.439-8.193v8.193h5.276v-1.148h-4.019v-7.045h-1.257ZM47.125 19.95c0 2.545 1.858 4.227 4.118 4.227 1.693 0 3.168-1.006 3.715-2.59l-1.224-.425c-.36 1.157-1.344 1.823-2.513 1.823-1.573 0-2.763-1.19-2.763-3.037 0-1.749 1.19-3.037 2.731-3.037 1.115 0 2.02.546 2.436 1.671l1.169-.524c-.644-1.54-1.978-2.337-3.572-2.337-2.229 0-4.097 1.826-4.097 4.227m21.418.002c0-1.802 1.235-3.037 2.808-3.037 1.573 0 2.808 1.235 2.808 3.037 0 1.802-1.235 3.037-2.808 3.037-1.573 0-2.808-1.245-2.808-3.037Zm-1.323 0c0 2.066 1.387 3.703 3.202 4.118 2.797.623 5.276 3.037 9.351 3.037 1.89 0 3.266-.59 4.37-1.552l-.273-.404a6.114 6.114 0 0 1-3.496 1.091c-2.949 0-5.123-1.551-7.495-2.457a4.066 4.066 0 0 0 2.6-3.835c0-2.436-1.868-4.227-4.128-4.227s-4.129 1.791-4.129 4.227m48.951-1.877c0 .95.689 1.967 2.196 2.305l1.102.25c.852.197 1.225.666 1.225 1.19 0 .711-.557 1.246-1.629 1.246-1.192 0-1.802-.644-1.869-1.629l-1.256.197c.098 1.443 1.246 2.545 3.058 2.545 1.813 0 2.995-1.07 2.995-2.425 0-1.038-.775-1.943-2.228-2.284l-1.081-.25c-.94-.218-1.267-.666-1.267-1.224 0-.602.503-1.18 1.507-1.18 1.003 0 1.53.458 1.66 1.267l1.19-.196c-.207-1.235-1.277-2.164-2.808-2.164-1.748 0-2.797 1.102-2.797 2.348m8.39 1.883c0-1.802 1.235-3.037 2.808-3.037 1.573 0 2.808 1.235 2.808 3.037 0 1.802-1.235 3.037-2.808 3.037-1.573 0-2.808-1.245-2.808-3.037Zm-1.323 0c0 2.414 1.869 4.227 4.129 4.227s4.128-1.813 4.128-4.227c0-2.414-1.868-4.227-4.128-4.227s-4.129 1.792-4.129 4.227ZM153.961 15.854h.888v.22h-.317v.929h-.256v-.929h-.315v-.22Zm2.155 0v1.149h-.231v-.448c0-.1 0-.183.013-.25l-.257.69h-.19l-.264-.692c.011.07.011.154.011.255v.447h-.231v-1.15h.257l.316.889.315-.888h.261v-.002ZM33.043 36.363h.888v.22h-.317v.93h-.256v-.93h-.315v-.22Zm2.153 0v1.15h-.231v-.448c0-.1 0-.184.013-.25l-.257.69h-.19l-.264-.692c.01.07.01.154.01.254v.448h-.23v-1.15h.257l.316.889.315-.889h.261v-.002Z"/><defs><linearGradient id="a" x1="19.997" x2="19.997" y1="40" y2="-.092" gradientUnits="userSpaceOnUse"><stop stop-color="#DCA85D"/><stop offset=".18" stop-color="#DDAB62"/><stop offset=".41" stop-color="#E1B673"/><stop offset=".67" stop-color="#E7C88E"/><stop offset=".95" stop-color="#F0E2B3"/><stop offset="1" stop-color="#F2E7BB"/></linearGradient></defs></svg>