<?xml version="1.0" encoding="UTF-8" standalone="no"?>
<!-- Created with Inkscape (http://www.inkscape.org/) -->

<svg
   xmlns:dc="http://purl.org/dc/elements/1.1/"
   xmlns:cc="http://creativecommons.org/ns#"
   xmlns:rdf="http://www.w3.org/1999/02/22-rdf-syntax-ns#"
   xmlns:svg="http://www.w3.org/2000/svg"
   xmlns="http://www.w3.org/2000/svg"
   xmlns:sodipodi="http://sodipodi.sourceforge.net/DTD/sodipodi-0.dtd"
   xmlns:inkscape="http://www.inkscape.org/namespaces/inkscape"
   width="137.11627"
   height="27.396111"
   viewBox="0 0 36.278678 7.2485544"
   version="1.1"
   id="svg1691"
   inkscape:version="0.92.0 r15299"
   sodipodi:docname="gildan.svg">
  <defs
     id="defs1685">
    <clipPath
       id="clipPath1727"
       clipPathUnits="userSpaceOnUse">
      <path
         inkscape:connector-curvature="0"
         id="path1725"
         d="m 146.706,78.577 h 102.85 v 34.933 h -102.85 z" />
    </clipPath>
  </defs>
  <sodipodi:namedview
     id="base"
     pagecolor="#ffffff"
     bordercolor="#666666"
     borderopacity="1.0"
     inkscape:pageopacity="0.0"
     inkscape:pageshadow="2"
     inkscape:zoom="5.8483286"
     inkscape:cx="72.427972"
     inkscape:cy="3.5390528"
     inkscape:document-units="mm"
     inkscape:current-layer="layer1"
     showgrid="false"
     fit-margin-top="0"
     fit-margin-left="0"
     fit-margin-right="0"
     fit-margin-bottom="0"
     units="px"
     inkscape:window-width="1280"
     inkscape:window-height="744"
     inkscape:window-x="-4"
     inkscape:window-y="-4"
     inkscape:window-maximized="1" />
  <metadata
     id="metadata1688">
    <rdf:RDF>
      <cc:Work
         rdf:about="">
        <dc:format>image/svg+xml</dc:format>
        <dc:type
           rdf:resource="http://purl.org/dc/dcmitype/StillImage" />
        <dc:title></dc:title>
      </cc:Work>
    </rdf:RDF>
  </metadata>
  <g
     inkscape:label="Layer 1"
     inkscape:groupmode="layer"
     id="layer1"
     transform="translate(-78.620326,-180.31877)">
    <g
       id="g2296"
       transform="translate(0.1322919,-0.13229035)">
      <g
         transform="matrix(0.35277777,0,0,-0.35277777,81.459834,180.60741)"
         id="g1729">
        <path
           inkscape:connector-curvature="0"
           id="path1731"
           style="fill:#1e4897;fill-opacity:1;fill-rule:nonzero;stroke:none"
           d="m 0,0 c -0.628,-0.042 -1.192,-0.11 -1.673,-0.208 -0.495,-0.096 -0.957,-0.227 -1.383,-0.384 -0.434,-0.17 -0.839,-0.371 -1.2,-0.594 -2.517,-1.472 -3.793,-4.412 -3.793,-8.741 0,-1.787 0.209,-3.311 0.622,-4.537 0.419,-1.241 1.099,-2.302 2.018,-3.156 0.426,-0.396 0.878,-0.736 1.341,-1.005 0.463,-0.269 0.989,-0.486 1.561,-0.644 0.577,-0.161 1.23,-0.276 1.938,-0.343 0.715,-0.066 1.556,-0.101 2.507,-0.101 h 7.597 v 11.577 h -9.867 v -3.422 H 5.71 v -4.73 H 2.338 c -0.808,0 -1.5,0.033 -2.059,0.099 -0.544,0.062 -1.024,0.173 -1.433,0.327 -0.391,0.147 -0.723,0.344 -0.997,0.588 -0.28,0.245 -0.55,0.57 -0.811,0.969 -0.207,0.319 -0.378,0.64 -0.51,0.952 -0.136,0.32 -0.249,0.676 -0.335,1.063 -0.079,0.369 -0.143,0.807 -0.183,1.303 l -0.016,0.219 c -0.023,0.327 -0.036,0.488 -0.039,0.803 -0.038,2.961 0.751,4.947 2.335,5.895 0.243,0.145 0.478,0.264 0.696,0.352 0.211,0.088 0.462,0.16 0.746,0.212 0.285,0.055 0.635,0.092 1.043,0.109 0.415,0.021 0.949,0.03 1.587,0.03 H 9.535 V 0.056 H 2.084 C 1.327,0.056 0.624,0.037 0,0" />
      </g>
      <path
         inkscape:connector-curvature="0"
         id="path1733"
         style="fill:#1e4897;fill-opacity:1;fill-rule:nonzero;stroke:none;stroke-width:0.35277778"
         d="m 85.756985,187.56161 h 1.349375 v -6.97406 h -1.349375 z" />
      <g
         transform="matrix(0.35277777,0,0,-0.35277777,89.386539,185.94063)"
         id="g1735">
        <path
           inkscape:connector-curvature="0"
           id="path1737"
           style="fill:#1e4897;fill-opacity:1;fill-rule:nonzero;stroke:none"
           d="m 0,0 c -0.303,0.343 -0.516,0.807 -0.64,1.377 -0.137,0.616 -0.201,1.49 -0.201,2.677 V 15.146 H -4.665 V 3.33 c 0,-0.739 0.031,-1.406 0.091,-1.983 0.06,-0.59 0.152,-1.123 0.275,-1.586 0.126,-0.473 0.302,-0.906 0.525,-1.289 0.221,-0.369 0.493,-0.72 0.803,-1.042 0.71,-0.734 1.573,-1.263 2.569,-1.573 0.968,-0.299 2.241,-0.452 3.777,-0.452 H 8.528 V -1.17 H 3.994 C 2.069,-1.17 0.721,-0.773 0,0" />
      </g>
      <g
         transform="matrix(0.35277777,0,0,-0.35277777,99.252922,184.00882)"
         id="g1739">
        <path
           inkscape:connector-curvature="0"
           id="path1741"
           style="fill:#1e4897;fill-opacity:1;fill-rule:nonzero;stroke:none"
           d="m 0,0 c 0,1.654 -0.205,3.093 -0.607,4.278 -0.409,1.2 -1.069,2.27 -1.963,3.177 -0.429,0.437 -0.875,0.802 -1.326,1.092 -0.457,0.292 -0.984,0.525 -1.568,0.696 -0.574,0.167 -1.253,0.286 -2.018,0.354 -0.725,0.068 -1.628,0.101 -2.68,0.101 h -7.866 v -19.769 h 8.161 c 0.818,0 1.52,0.015 2.077,0.043 0.579,0.029 1.097,0.084 1.541,0.163 0.459,0.082 0.873,0.194 1.233,0.329 0.367,0.14 0.741,0.321 1.102,0.536 1.298,0.741 2.288,1.887 2.941,3.41 C -0.328,-4.091 0,-2.21 0,0 m -4.006,-0.429 c 0,-1.003 -0.087,-1.922 -0.266,-2.731 -0.176,-0.787 -0.454,-1.453 -0.829,-1.991 -0.404,-0.64 -0.959,-1.108 -1.648,-1.4 C -7.458,-6.849 -8.398,-7 -9.54,-7 h -4.662 V 6.629 h 4.457 c 1.144,0 2.066,-0.12 2.735,-0.356 0.641,-0.228 1.174,-0.607 1.58,-1.122 0.438,-0.579 0.791,-1.353 1.045,-2.302 0.253,-0.966 0.379,-2.069 0.379,-3.278" />
      </g>
      <g
         transform="matrix(0.35277777,0,0,-0.35277777,102.32837,180.58691)"
         id="g1743">
        <path
           inkscape:connector-curvature="0"
           id="path1745"
           style="fill:#1e4897;fill-opacity:1;fill-rule:nonzero;stroke:none"
           d="m 0,0 c -0.2,0 -0.725,-0.042 -1.272,-0.441 -0.63,-0.458 -1.003,-1.301 -1.111,-1.633 l -0.002,10e-4 -7.536,-17.698 h 4.031 l 1.58,3.781 c 0.191,0.468 0.467,0.949 0.568,1.037 0.152,0.118 0.355,0.18 0.611,0.18 0.094,0 0.172,-0.008 0.234,-0.014 l 0.019,-0.003 7.962,0.004 1.573,-3.917 c 0.09,-0.199 0.263,-0.563 0.492,-0.766 0.244,-0.22 0.617,-0.318 1.209,-0.318 0.117,0 0.206,0.005 0.209,0.005 l 2.546,0.019 -8.071,19.761 z m 3.817,-11.715 h -6.393 l 2.649,6.353 0.236,0.592 c 0.113,0.285 0.216,0.541 0.372,0.914 z" />
      </g>
      <g
         transform="matrix(0.35277777,0,0,-0.35277777,111.55622,185.48661)"
         id="g1747">
        <path
           inkscape:connector-curvature="0"
           id="path1749"
           style="fill:#1e4897;fill-opacity:1;fill-rule:nonzero;stroke:none"
           d="m 0,0 -8.248,11.92 -0.026,0.031 c -0.008,0.011 -0.895,1.045 -1.416,1.51 -0.208,0.18 -0.613,0.416 -1.722,0.416 -0.184,0 -0.301,-0.002 -0.381,-0.01 l -1.995,0.032 v -19.78 h 3.68 V 7.952 l 8.174,-11.693 c 0.282,-0.457 0.997,-1.546 1.552,-1.837 0.555,-0.289 1.281,-0.303 1.422,-0.303 H 3.675 V 13.887 H 0 Z" />
      </g>
      <g
         transform="matrix(0.35277777,0,0,-0.35277777,114.28535,181.11192)"
         id="g1751">
        <path
           inkscape:connector-curvature="0"
           id="path1753"
           style="fill:#1e4897;fill-opacity:1;fill-rule:nonzero;stroke:none"
           d="m 0,0 c 0,0.419 -0.254,0.591 -0.751,0.591 h -0.782 v -2.058 h 0.336 v 0.88 h 0.321 l 0.527,-0.88 h 0.387 l -0.58,0.904 C -0.231,-0.525 0,-0.37 0,0 m -1.197,-0.296 v 0.598 h 0.407 c 0.208,0 0.455,-0.028 0.455,-0.279 0,-0.293 -0.229,-0.319 -0.486,-0.319 z" />
      </g>
      <g
         transform="matrix(0.35277777,0,0,-0.35277777,113.99272,180.59743)"
         id="g1755">
        <path
           inkscape:connector-curvature="0"
           id="path1757"
           style="fill:#1e4897;fill-opacity:1;fill-rule:nonzero;stroke:none"
           d="m 0,0 c -0.986,0 -1.827,-0.744 -1.827,-1.862 0,-1.058 0.759,-1.856 1.827,-1.856 0.976,0 1.819,0.738 1.819,1.856 C 1.819,-0.744 0.976,0 0,0 m 0,-3.397 c -0.88,0 -1.432,0.691 -1.432,1.535 0,0.904 0.627,1.534 1.432,1.534 0.793,0 1.428,-0.63 1.428,-1.534 0,-0.91 -0.635,-1.535 -1.428,-1.535" />
      </g>
    </g>
  </g>
</svg>
