<?xml version="1.0"?>
<svg xmlns="http://www.w3.org/2000/svg" width="218.504" height="49.295">
<path fill-rule="evenodd" clip-rule="evenodd" fill="#002E56" d="M83.707,24.659c0-8.018-1.733-13.231-7.763-13.231
	c-6.038,0-7.761,5.213-7.761,13.231c0,8.006,1.723,13.207,7.761,13.207C81.973,37.866,83.707,32.665,83.707,24.659 M49.033,24.659
	c0-5.392,0.791-11.05,4.247-15.802C56.82,3.933,63.279,0,75.943,0c12.652,0,19.116,3.933,22.659,8.857
	c3.457,4.752,4.249,10.411,4.249,15.802c0,5.378-0.792,11.038-4.249,15.804c-3.543,4.903-10.007,8.832-22.659,8.832
	c-12.664,0-19.123-3.929-22.664-8.832C49.824,35.697,49.033,30.037,49.033,24.659z M35.681,28.306l15.122,19.396H29.683
	L18.033,30.394v17.309H0V1.64l18.782-0.067l9.074,0.081C40.871,1.69,46.11,9.144,46.11,15.629
	C46.11,21.568,40.141,25.575,35.681,28.306z M18.033,11.75v12.356c0,0,3.782-1.9,5.577-2.908c1.849-1.032,4.098-2.385,4.098-4.629
	c0-2.23-1.813-4.801-6.292-4.819H18.033z M142.57,47.702h-0.865l-16.234-23.245v23.245h-17.938V1.573h17.829l16.287,23.473V1.573
	h17.933v46.129H142.57z M199.64,1.573l18.864,46.129h-5.302L197.067,8.239l-1.062,2.583l15.081,36.88h-5.297l-12.429-30.412
	l-1.062,2.603l11.367,27.809h-5.294l-8.722-21.347l-8.741,21.347h-20.106l18.873-46.129H199.64z"/>
</svg>
