<svg viewBox="0 0 230.6 125" xmlns="http://www.w3.org/2000/svg">     <defs>         <style>.logo-ia-1{fill:#064dd9;}.logo-ia-2{fill:#8c8c87;}</style>     </defs>     <polygon class="logo-ia-1" points="9.23 26.75 26.88 26.75 17.69 87.83 0.06 87.83"/>     <circle class="logo-ia-1" cx="20.46" cy="10.77" r="10.77"/>     <path class="logo-ia-1" d="M91.1,87.83h18.1L86.46,5.43h-16L23.1,87.83H41.32l12.5-21.76H85.08ZM62.83,50.39,74.94,29.34l5.81,21.06Z"/>     <path class="logo-ia-2" d="M214.44,0A16.16,16.16,0,0,1,230.3,19.25L223,68.38a2.82,2.82,0,0,0,0,.49,2.73,2.73,0,0,0,2.73,2.73h2.66V82.4h-7.58A10.75,10.75,0,0,1,210,71.65V43H196.2a16.89,16.89,0,0,1-1.85-.1A16.53,16.53,0,0,1,179.8,28.61a16.93,16.93,0,0,1,.15-5.15L183.47,0Z"/>     <path class="logo-ia-2" d="M177.12,5.43H154.18C137.93,5.43,124.55,18,122.64,34l-8.07,53.81h13.87l6-21.76h45V87.83h13.27l6-39.42h-2.52a22.57,22.57,0,0,1-2.47-.13,22,22,0,0,1-19.36-19,22.41,22.41,0,0,1,.07-6.11l2.66-17.75"/>     <polygon class="logo-ia-2" points="134 87.83 147.82 87.83 154.65 71.47 138.54 71.47"/>     <path class="logo-ia-1" d="M0,99.42H15.85v4.16H4.58V108h9.93v4.16H4.58v8.06H0Z"/>     <path class="logo-ia-1" d="m18.26 104.3h4.52v15.94h-4.52z"/>     <path class="logo-ia-1" d="m26.41 104.3h4.52v2.26a5.64 5.64 0 0 1 4.66-2.56c3.41 0 5.41 2.26 5.41 5.92v10.32h-4.51v-8.89c0-2.14-1-3.24-2.74-3.24s-2.83 1.1-2.83 3.24v8.89h-4.51z"/>     <path class="logo-ia-1" d="m43.24 112.3v-0.06c0-5.32 3.48-8.24 7.26-8.24a6.12 6.12 0 0 1 5 2.38v-2.08h4.5v15.94h-4.54v-2.29a5.85 5.85 0 0 1-5 2.59c-3.68 0-7.22-2.92-7.22-8.24zm12.28 0v-0.06c0-2.65-1.75-4.4-3.87-4.4s-3.9 1.72-3.9 4.4v0.06c0 2.65 1.78 4.4 3.9 4.4s3.87-1.76 3.87-4.4z"/>     <path class="logo-ia-1" d="M63.31,104.3h4.52v2.26A5.64,5.64,0,0,1,72.5,104c3.42,0,5.41,2.26,5.41,5.92v10.32H73.39v-8.89c0-2.14-1-3.24-2.74-3.24s-2.82,1.1-2.82,3.24v8.89H63.31Z"/>     <path class="logo-ia-1" d="m80.44 112.36v-0.06a8.18 8.18 0 0 1 8.36-8.3 7.84 7.84 0 0 1 6.36 2.68l-2.77 3a4.66 4.66 0 0 0-3.63-1.75 4.07 4.07 0 0 0-3.87 4.34v0.06a4.08 4.08 0 0 0 4 4.4 5 5 0 0 0 3.71-1.73l2.65 2.68a8 8 0 0 1-6.51 2.91 8.14 8.14 0 0 1-8.3-8.23z"/>     <path class="logo-ia-1" d="m97.77 104.3h4.52v15.94h-4.52z"/>     <path class="logo-ia-1" d="m104.85 112.3v-0.06c0-5.32 3.48-8.24 7.26-8.24a6.12 6.12 0 0 1 5 2.38v-2.08h4.52v15.94h-4.52v-2.29a5.85 5.85 0 0 1-5 2.59c-3.72 0-7.26-2.92-7.26-8.24zm12.28 0v-0.06c0-2.65-1.75-4.4-3.87-4.4s-3.9 1.72-3.9 4.4v0.06c0 2.65 1.78 4.4 3.9 4.4s3.87-1.76 3.87-4.4z"/>     <path class="logo-ia-1" d="m125.13 98.53h4.52v21.71h-4.52z"/>     <path class="logo-ia-1" d="m141.13 109.89v-0.06a10.68 10.68 0 0 1 10.87-10.76 11.43 11.43 0 0 1 8.18 2.85l-2.88 3.48a7.67 7.67 0 0 0-5.44-2.11 6.25 6.25 0 0 0-6 6.48v0.06a6.24 6.24 0 0 0 6.3 6.6 7.31 7.31 0 0 0 4.31-1.25v-3h-4.61v-4h9v9a13.51 13.51 0 0 1-8.89 3.3c-6.38 0.11-10.84-4.48-10.84-10.59z"/>     <path class="logo-ia-1" d="M164.26,104.3h4.52v3.21c.92-2.2,2.41-3.63,5.08-3.51v4.73h-.24c-3,0-4.85,1.81-4.85,5.62v5.89h-4.52Z"/>     <path class="logo-ia-1" d="M174.85,112.36v-.06a8.63,8.63,0,0,1,17.25-.06v.06a8.63,8.63,0,0,1-17.25.06Zm12.79,0v-.06a4.23,4.23,0,0,0-4.19-4.4,4.08,4.08,0,0,0-4.13,4.34v.06a4.23,4.23,0,0,0,4.19,4.4A4.08,4.08,0,0,0,187.64,112.36Z"/>     <path class="logo-ia-1" d="m194.63 114.62v-10.32h4.52v8.89c0 2.14 1 3.24 2.74 3.24s2.83-1.1 2.83-3.24v-8.89h4.52v15.94h-4.52v-2.24a5.64 5.64 0 0 1-4.67 2.56c-3.43-0.02-5.42-2.28-5.42-5.94z"/>     <path class="logo-ia-1" d="m212.65 104.3h4.52v2.29a5.85 5.85 0 0 1 5-2.59c3.72 0 7.26 2.91 7.26 8.24v0.06c0 5.32-3.48 8.24-7.26 8.24a6.12 6.12 0 0 1-5-2.38v6.84h-4.52zm12.22 8v-0.06c0-2.65-1.78-4.4-3.9-4.4s-3.87 1.75-3.87 4.4v0.06c0 2.65 1.75 4.4 3.87 4.4s3.9-1.7 3.9-4.4z"/>     <path class="logo-ia-1" d="m100 98.06a2.57 2.57 0 1 1-2.59 2.59 2.57 2.57 0 0 1 2.59-2.59z"/>     <path class="logo-ia-1" d="m20.52 98.06a2.57 2.57 0 1 1-2.59 2.59 2.57 2.57 0 0 1 2.59-2.59z"/> </svg>