<svg xmlns="http://www.w3.org/2000/svg" viewBox="0 0 184 36" width="184" height="36" role="img" aria-label="Databricks">
  <title>Databricks</title>
  <!--
    Lockup Databricks : symbole OFFICIEL Databricks (chemin canonique simple-icons,
    https://github.com/simple-icons/simple-icons icons/databricks.svg) recoloré en
    "Lava" #ff3621, accolé au mot-clé « databricks » composé en Navy #1b3139.
    Symbole = asset officiel (PAS dessiné à la main).
  -->
  <g transform="translate(2 4) scale(1.1667)" fill="#ff3621">
    <path d="M.95 14.184L12 20.403l9.919-5.55v2.21L12 22.662l-10.484-5.96-.565.308v.77L12 24l11.05-6.218v-4.317l-.515-.309L12 19.118l-9.867-5.653v-2.21L12 16.805l11.05-6.218V6.32l-.515-.308L12 11.974 2.647 6.681 12 1.388l7.76 4.368.668-.411v-.566L12 0 .95 6.27v.72L12 13.207l9.919-5.55v2.26L12 15.52 1.516 9.56l-.565.308Z"/>
  </g>
  <text x="40" y="25.5" font-family="'DM Sans','Helvetica Neue',Arial,sans-serif" font-size="25" font-weight="700" letter-spacing="-0.8" fill="#1b3139">databricks</text>
</svg>
