<svg xmlns="http://www.w3.org/2000/svg" xmlns:xlink="http://www.w3.org/1999/xlink" version="1.1" id="Layer_1" x="0px" y="0px" style="enable-background:new 0 0 566.9 110.7;" xml:space="preserve" viewBox="0.01 -0.01 566.86 110.71">
 <g transform="translate(70.456 83.815)">
  <g transform="matrix(.26457 0 0 .26457 -83.057 -93.761)">
   <path d="M68.2,416.8c12.1,21.1,30.5,30.9,53.7,33.5c83.2,9.5,331.2,4.3,331.6,4.3c58.8,0,106.1-26.9,118.9-82.6    c3.3-14.2,5.8-62.2,2.9-113.2c-3.1-52.9-27.2-87.9-99.2-92.8c-95.6-6.5-230.8-3.4-285.5,2.2c-29.2,3-46.2,23-45.8,50.2    c0.9,64.9,1.6,74.8,2.3,78.4c29,4.2,28.7,4.4,29.6,2.8c5.1-9.4,14.6-15.7,25.3-16.9c12.3-1.6,3-1.1,259.7-5c10,0,16,4.5,17.8,14.4    c2.1,12.8,2.5,25.8,1.2,38.7c-0.8,11-9.9,28.5-26.5,28.8c-0.4,0-183.8,0.9-271.4-3.2c-26.5-1.2-55.4-27.3-55.4-75.8    c0-20.6,0-86.9,1.7-107.5c1.9-25,20.6-45.6,45.4-49.8c32.7-5.9,337-2.3,356.3,2.1c54.9,12.5,59.5,78.4,59.7,79.7    c5.1,37.8,5.6,80.4,5.2,118.9c-1.1,86.9-33.6,106-44.4,118.6c-3.3,3.8,0.9,5.5,7.4,10.2c27.3-5.1,66.3-35,74-98.3    c2.9-24.5,5.2-80.4,0.5-180.9C629.9,108.5,602.4,52.4,511.6,42c-78.8-9-252.4-1.8-330.3,0C45.2,45.1,47.8,122.8,47.8,154.4    C47.2,354.7,47.4,380.6,68.2,416.8L68.2,416.8z">
   </path>
   <path d="M1008.4,156.9c4.2-0.2,8.3,1.1,11.6,3.5c3.1,2.4,5.5,5.6,7,9.3l68,167.1h-53.9c-1.6-0.3-2.5-1.9-3.2-4.6l-9.1-28.8    c-0.4-3.1-2.1-3.8-5.9-3.8h-53.2c-3.8,0-5.6,0.7-5.9,3.8l-9.1,28.9c-0.7,2.7-1.5,4.3-3.2,4.6h-54l68.2-167.1    c1.2-2.8,2.9-5.4,5.1-7.6c3.7-3.4,8.6-5.2,13.6-5.1L1008.4,156.9z M977.8,261.6h36.9L996.3,208L977.8,261.6z">
   </path>
   <path d="M831.1,294.1c4.8,0,5.9-1.4,5.7-5.9v-27.7c0-6.8-3.3-10.6-9.2-13.8c-1.6-0.8-8.3-5.6-4-5.6h54.8c4.5,0,6,1.1,5.9,5.8v64.3    c0,13-8.9,25.6-23.5,25.6h-93.1c-9.4,0-48.9-5.9-48.9-52.3v-75c0-46.5,39.5-52.6,48.9-52.5h110.9c4.8,0,5.9,1.5,5.8,6v28.5    c0,4.5-1,5.9-5.8,5.9h-82.5c-18.2,0-27.2,9.6-27.2,21.4v54c0,11.8,9,21.4,27.2,21.4C797.9,294.1,794.1,294,831.1,294.1    L831.1,294.1z">
   </path>
   <path d="M1774.2,294.1c-18.2,0-27.2-9.6-27.2-21.4v-54c0-11.8,9-21.4,27.2-21.4h23.1c18.2,0,27.2,9.6,27.2,21.4v54    c0,11.8-9,21.4-27.2,21.4H1774.2z M1825.8,336.8c9.4,0,48.9-5.9,48.9-52.3v-75c0-46.5-39.5-52.6-48.9-52.5h-79.9    c-9.4,0-48.9,6-48.9,52.5v75.1c0,46.5,39.4,52.4,48.9,52.3L1825.8,336.8z">
   </path>
   <path d="M1229.7,335.5l62.4-106v101.7c0,2.8,0,5.7,5.2,5.7h40.4c3.8,0,5.2-1.2,5.2-5.6c0-86.9,0.5-60.1,0-148.6    c0-13-8.9-25.7-23.5-25.7h-19.2c-5.2-0.6-10.3,1.8-13.3,6.1c-60.2,92.6-56.2,87.7-59.5,88.4c-3.3-0.7,0.8,4.2-59.5-88.4    c-3-4.3-8.1-6.7-13.3-6.1h-19.4c-14.7,0-23.5,12.7-23.5,25.7v148.6c0,4.4,1.3,5.6,5.2,5.6h40.4c3.8,0,5.2-1.2,5.2-5.6V229.4    l62.4,106c0.6,1.3,2.2,1.9,3.5,1.3C1229,336.5,1229.5,336,1229.7,335.5z">
   </path>
   <path d="M1673.9,297.8c-1.3-1-3-1.4-4.6-1.2h-57.1c-3,0-5.5-2.5-5.5-5.5c0,0,0,0,0,0V162.8c0-2.8,0-5.9-5.2-5.9H1561    c-3.8,0-5.2,1.3-5.2,5.7v148.6c0,13,8.9,25.6,23.5,25.6h113.4C1683.9,325.2,1677.5,311.9,1673.9,297.8L1673.9,297.8z">
   </path>
   <path d="M2189.8,191.2c-9.1-29.6-38.5-34.3-46.5-34.2h-217.4c-14.6,0-23.4,12.7-23.5,25.7v148.6c0,4.4,1.3,5.6,5.2,5.6h37.8    c3.8,0,5.2-1.2,5.2-5.6v-59.8c0-3,2.5-5.5,5.5-5.5l0,0h43.4c4.8,0,5.8-1.3,5.8-5.9v-26.1c0-4.6-1-5.9-5.8-5.9H1956    c-3,0-5.5-2.4-5.5-5.4c0,0,0,0,0,0v-19.6c0-3,2.5-5.5,5.5-5.5c0,0,0,0,0,0h106.6v133.9c0,4.4,1.3,5.6,5.2,5.6h40.5    c3.8,0,5.2-1.2,5.2-5.6V197.4h70.6C2188.8,197.4,2191.3,196.2,2189.8,191.2L2189.8,191.2z">
   </path>
   <path d="M1515.9,260c0,4.6-1,6-5.8,5.9h-84.2c-3,0-5.5,2.5-5.5,5.5V291c0,3,2.5,5.5,5.5,5.5h94.5c4.8,0,5.8,1.5,5.8,5.9V331    c0,4.5-1,5.9-5.7,5.8h-124.7c-14.6,0-23.4-12.5-23.5-25.6V182.7c0-13,8.9-25.7,23.5-25.7h124.7c4.7,0,5.9,1.5,5.8,6v28.5    c0,4.4-1,5.9-5.7,5.9h-94.6c-3,0-5.5,2.4-5.5,5.5v19.6c0,3,2.5,5.5,5.5,5.5h84.2c4.8,0,5.8,1.3,5.8,5.9L1515.9,260z">
   </path>
  </g>
 </g>
</svg>