<?xml version="1.0" encoding="UTF-8"?>
<!-- Created with Inkscape (http://www.inkscape.org/) -->
<svg width="49.03mm" height="14.023mm" version="1.1" viewBox="0 0 49.03 14.023" xmlns="http://www.w3.org/2000/svg">
<title>Stingray Music logo</title>
 <defs>
  <clipPath id="vlpc">
   <path d="m123.57 506.16h77.566v22.185h-77.566z"/>
  </clipPath>
  <linearGradient id="vlpb" x2="1" gradientTransform="matrix(-2.95 -1.7032 -1.7032 2.95 131.55 511.9)" gradientUnits="userSpaceOnUse">
   <stop style="stop-color:#456bbd" offset="0"/>
   <stop style="stop-color:#456bbd" offset=".027748"/>
   <stop style="stop-color:#318ed5" offset=".93483"/>
   <stop style="stop-color:#318ed5" offset="1"/>
  </linearGradient>
  <linearGradient id="vlpa" x2="1" gradientTransform="matrix(4.0397 2.4852 2.4852 -4.0397 134.59 521.84)" gradientUnits="userSpaceOnUse">
   <stop style="stop-color:#44aae4" offset="0"/>
   <stop style="stop-color:#4ebdef" offset=".57777"/>
   <stop style="stop-color:#4ebdef" offset="1"/>
  </linearGradient>
 </defs>
 <g transform="translate(-48.96 -56.1)">
  <g transform="matrix(.63211 0 0 -.63211 66.332 68.039)">
   <path d="m0 0h-1.055v2.897l-1.007-2.897h-0.801l-1.041 2.897v-2.897h-1.055v4.672h1.248l1.248-3.25 1.235 3.25h1.228z" style="fill:#0192d2"/>
  </g>
  <g transform="matrix(.63211 0 0 -.63211 -29.148 390.08)">
   <g clip-path="url(#vlpc)">
    <g transform="translate(152.1 514.13)">
     <path d="m0 0h1.081v-3.07c0-0.428 0.294-0.788 0.735-0.788 0.44 0 0.74 0.36 0.74 0.788v3.07h1.082v-3.077c0-0.961-0.701-1.715-1.822-1.715-1.115 0-1.816 0.754-1.816 1.715z" style="fill:#0192d2"/>
    </g>
    <g transform="translate(157.68 511.01)">
     <path d="m0 0c0-0.507 0.314-0.808 0.741-0.808 0.36 0 0.621 0.221 0.621 0.548 0 0.367-0.314 0.5-0.728 0.654-0.828 0.307-1.582 0.587-1.582 1.495 0 0.928 0.788 1.355 1.649 1.355 1.094 0 1.655-0.694 1.655-1.489h-1.081c0 0.414-0.207 0.674-0.588 0.674-0.3 0-0.56-0.167-0.56-0.473 0-0.301 0.247-0.474 0.667-0.621 0.828-0.287 1.642-0.581 1.642-1.535 0-0.908-0.727-1.469-1.729-1.469-1.041 0-1.788 0.601-1.788 1.669z" style="fill:#0192d2"/>
    </g>
    <path d="m161.07 514.13h1.095v-4.672h-1.095z" style="fill:#0192d2"/>
    <g transform="translate(167.89 511.14)">
     <path d="m0 0c-0.18-0.988-1.028-1.795-2.336-1.795-1.562 0-2.503 1.148-2.503 2.456 0 1.281 0.894 2.456 2.49 2.456 1.368 0 2.216-0.861 2.342-1.936h-1.128c-0.1 0.548-0.514 0.962-1.201 0.962-0.894 0-1.402-0.708-1.402-1.482 0-0.821 0.568-1.482 1.415-1.482 0.628 0 1.042 0.361 1.175 0.821z" style="fill:#0192d2"/>
    </g>
    <g transform="translate(152.79 523.62)" style="fill:#494949">
     <path d="m0 0h2.197v-6.17h1.472v6.17h2.181v1.383h-5.85z" style="fill:#494949"/>
    </g>
    <path d="m160.17 517.45h1.501v7.552h-1.501z" style="fill:#494949"/>
    <g transform="translate(168.86 520.07)" style="fill:#494949">
     <path d="m0 0-3.693 4.933h-1.431v-7.552h1.471v4.92l3.694-4.92h1.43v7.552h-1.471z" style="fill:#494949"/>
    </g>
    <g transform="translate(176.35 520)" style="fill:#494949">
     <path d="m0 0h1.408c-0.245-0.844-0.949-1.324-1.95-1.324-1.688 0-2.456 1.313-2.456 2.533 0 1.249 0.829 2.575 2.366 2.575 0.867 0 1.584-0.442 1.743-1.076l0.055-0.213h1.463l-0.048 0.324c-0.207 1.361-1.567 2.348-3.233 2.348-2.492 0-3.836-2.044-3.836-3.968 0-1.941 1.344-3.905 3.915-3.905 1.812 0 3.157 1.035 3.527 2.706h0.798v1.382h-3.752z" style="fill:#494949"/>
    </g>
    <g transform="translate(199.5 525)" style="fill:#494949">
     <path d="m0 0-1.499-2.974-1.866 2.974h-1.722l2.821-4.51-1.533-3.042h1.63l3.798 7.552z" style="fill:#494949"/>
    </g>
    <g transform="translate(184.26 521.34)" style="fill:#494949">
     <path d="m0 0h-1.446v2.278h1.433c0.622 0 1.132-0.512 1.132-1.139 0-0.623-0.503-1.134-1.119-1.139m1.271-1.027c0.761 0.454 1.229 1.275 1.229 2.166 0 1.38-1.121 2.511-2.498 2.521h-2.917v-7.542h1.469v2.497h1.222l1.146-2.508h1.656z" style="fill:#494949"/>
    </g>
    <g transform="translate(190.38 520.37)" style="fill:#494949">
     <path d="m0 0 0.795 2.401 0.796-2.401zm1.468 4.567-0.022 0.063h-1.304l-2.61-7.552h1.6l0.559 1.685h2.209l0.559-1.685h1.6z" style="fill:#494949"/>
    </g>
    <g transform="translate(150.01 521.79)" style="fill:#494949">
     <path d="m0 0-1.361 0.316c-0.561 0.134-0.84 0.389-0.84 0.816 0 0.535 0.475 0.875 1.179 0.875 0.778 0 1.204-0.389 1.375-0.888h1.545c-0.244 1.266-1.229 2.166-2.932 2.166-1.57 0-2.687-0.949-2.687-2.3 0-1.227 0.826-1.799 1.896-2.043l1.338-0.304c0.646-0.146 0.912-0.388 0.912-0.839 0-0.596-0.499-0.936-1.252-0.936-0.729 0-1.278 0.304-1.482 0.96h-1.607c0.255-1.423 1.435-2.249 3.1-2.249 1.582 0 2.774 0.875 2.774 2.323 0 1.13-0.742 1.825-1.958 2.103" style="fill:#494949"/>
    </g>
    <g transform="translate(133.13 528.35)">
     <path d="m0 0c0.078-1.081 0.892-6.645 4.969-11.758 0.865-1.07 1.882-2.113 3.074-3.083l-8.043-7.344-8.043 7.344c1.192 0.97 2.209 2.013 3.074 3.083 4.077 5.113 4.891 10.677 4.969 11.758" style="fill:#0192d2"/>
    </g>
    <g transform="translate(142.69 521.45)">
     <path d="m0 0-9.56 6.896-9.56-6.896c1.863-1.571 3.371-3.227 4.591-4.862 4.001-5.367 4.885-9.239 4.969-10.426v2e-3 -2e-3c0.084 1.187 0.968 5.059 4.969 10.426h-1e-3c1.22 1.635 2.729 3.291 4.592 4.862" style="fill:#15bcee"/>
    </g>
   </g>
   <path d="m125.08 513.51 8.043-7.344v1e-3c-0.085 1.188-0.969 5.06-4.969 10.425-0.865-1.069-1.882-2.112-3.074-3.082" style="fill:url(#vlpb)"/>
   <path d="m138.09 516.59c1.221 1.635 2.729 3.291 4.592 4.862l-9.56 6.897c0.078-1.082 0.892-6.646 4.968-11.759" style="fill:url(#vlpa)"/>
  </g>
 </g>
</svg>
