<?xml version="1.0" encoding="UTF-8"?>
<svg xmlns="http://www.w3.org/2000/svg" xmlns:xlink="http://www.w3.org/1999/xlink" version="1.1" id="Calque_1" x="0px" y="0px" viewBox="0 0 179 53" style="enable-background:new 0 0 179 53;" xml:space="preserve">
<style type="text/css">
	.st0{fill:#009FDF;}
	.st1{fill:#002855;}
</style>
<path class="st0" d="M28.46,4.5c0,2.48-2.01,4.49-4.49,4.49s-4.49-2.01-4.49-4.49c0-2.48,2.01-4.49,4.49-4.49S28.46,2.02,28.46,4.5z  "></path>
<g>
	<g>
		<path class="st1" d="M34.82,11.2c-1.38,0-2.5,1.12-2.5,2.5v24.1c0,1.38,1.12,2.5,2.5,2.5c1.38,0,2.5-1.12,2.5-2.5V13.7    C37.32,12.32,36.2,11.2,34.82,11.2z"></path>
		<path class="st1" d="M52.17,22.52V37.8c0,1.38,1.12,2.5,2.5,2.5c1.38,0,2.5-1.12,2.5-2.5V21.8c0-6.95-2.58-11.07-8.93-11.15    c0,0-2.23-0.12-4.87,1.18c-0.64,0.31-1.26,0.69-1.85,1.13c-1.04,0.75-1.19,2.24-0.35,3.2c0.69,0.78,1.85,0.95,2.73,0.38    c1.53-1,2.98-1.39,4.38-1.16C51.86,15.98,52.17,18.53,52.17,22.52z"></path>
	</g>
	<path class="st1" d="M149.32,11.2c-1.38,0-2.5,1.12-2.5,2.5v24.1c0,1.38,1.12,2.5,2.5,2.5c1.38,0,2.5-1.12,2.5-2.5V13.7   C151.82,12.32,150.7,11.2,149.32,11.2z"></path>
	<g>
		<g>
			<path class="st1" d="M20.89,22.47c0,0,0,0.25-0.25,0.25h-9.76c-1.18,0-2.14,1.05-2.14,2.24l0,0c0,1.18,0.96,2.24,2.14,2.24H22.9     c1.66,0,3.02-1.43,3.05-3.09c0.06-3.99-1.35-7.81-3.76-10.45c-0.95-1.03-2.08-1.89-3.36-2.53c-1.15-0.58-2.56,0.02-2.98,1.24v0     c-0.34,0.98,0.12,1.98,1,2.56C17.35,15.25,20.89,17.63,20.89,22.47z"></path>
		</g>
		<path class="st1" d="M5.35,24.53c0-5.03,2.1-7.98,5.07-9.54c0.94-0.49,1.39-1.58,1.04-2.58c-0.43-1.25-1.85-1.85-3.05-1.3    c-2.37,1.11-4.57,2.88-5.8,4.98c-1.64,2.76-2.29,5.93-2.29,9.51c0,3.58,0.65,6.75,2.29,9.51c1.24,2.1,3.43,3.87,5.8,4.98    c1.19,0.56,2.6-0.04,3.05-1.3c0.36-1-0.1-2.09-1.04-2.58c-2.97-1.56-5.07-4.52-5.07-9.54V24.53z"></path>
		<path class="st1" d="M20.44,32.95c-0.6,1.06-1.61,2.27-3.58,3.29c-0.94,0.48-1.37,1.58-1.02,2.58c0.42,1.21,1.81,1.82,2.98,1.28    c0.67-0.31,1.31-0.66,1.91-1.07c1.41-0.98,2.93-2.53,3.75-4.08c0.81-1.54-0.11-3.29-1.82-3.36C21.7,31.56,20.97,32.03,20.44,32.95    z"></path>
		<g>
			<path class="st1" d="M20.89,22.47c0,0,0,0.25-0.25,0.25h-9.76c-1.18,0-2.14,1.06-2.14,2.24c0,1.18,0.96,2.24,2.14,2.24H22.9     c1.66,0,3.02-1.43,3.05-3.09c0.06-3.99-1.35-7.81-3.76-10.45c-0.95-1.03-2.08-1.89-3.36-2.53c-1.15-0.58-2.57,0.03-2.98,1.24     c-0.34,1,0.12,1.98,1,2.56C17.35,15.25,20.89,17.63,20.89,22.47z"></path>
		</g>
	</g>
	<g>
		<g>
			<path class="st1" d="M83.93,22.47c0,0,0,0.25-0.25,0.25h-9.76c-1.18,0-2.14,1.05-2.14,2.24l0,0c0,1.18,0.96,2.24,2.14,2.24h12.01     c1.66,0,3.02-1.43,3.05-3.09c0.06-3.99-1.35-7.81-3.76-10.45c-0.95-1.03-2.08-1.89-3.36-2.53c-1.15-0.58-2.56,0.02-2.98,1.24v0     c-0.34,0.98,0.12,1.98,1,2.56C80.39,15.25,83.93,17.63,83.93,22.47z"></path>
		</g>
		<path class="st1" d="M68.39,24.53c0-5.03,2.1-7.98,5.07-9.54c0.94-0.49,1.39-1.58,1.04-2.58c-0.43-1.25-1.85-1.85-3.05-1.3    c-2.37,1.11-4.57,2.88-5.8,4.98c-1.64,2.76-2.29,5.93-2.29,9.51c0,3.58,0.65,6.75,2.29,9.51c1.24,2.1,3.43,3.87,5.8,4.98    c1.19,0.56,2.6-0.04,3.05-1.3c0.36-1-0.1-2.09-1.04-2.58c-2.97-1.56-5.07-4.52-5.07-9.54V24.53z"></path>
		<path class="st1" d="M83.48,32.95c-0.6,1.06-1.61,2.27-3.58,3.29c-0.94,0.48-1.37,1.58-1.02,2.58c0.42,1.21,1.81,1.82,2.98,1.28    c0.67-0.31,1.31-0.66,1.91-1.07c1.41-0.98,2.93-2.53,3.75-4.08c0.81-1.54-0.11-3.29-1.82-3.36    C84.75,31.56,84.01,32.03,83.48,32.95z"></path>
		<g>
			<path class="st1" d="M83.93,22.47c0,0,0,0.25-0.25,0.25h-9.76c-1.18,0-2.14,1.06-2.14,2.24c0,1.18,0.96,2.24,2.14,2.24h12.01     c1.66,0,3.02-1.43,3.05-3.09c0.06-3.99-1.35-7.81-3.76-10.45c-0.95-1.03-2.08-1.89-3.36-2.53c-1.15-0.58-2.57,0.03-2.98,1.24     c-0.34,1,0.12,1.98,1,2.56C80.39,15.25,83.93,17.63,83.93,22.47z"></path>
		</g>
	</g>
	<g>
		<g>
			<path class="st1" d="M120.65,21.34c0,2.45,1.01,4.52,2.91,5.65c0.91,0.53,1.34,1.61,0.99,2.6c-0.43,1.22-1.82,1.78-2.99,1.22     c-1.16-0.56-2.17-1.3-3.04-2.2c-1.7-1.78-2.82-4.38-2.82-7.64c0-3.26,1.12-5.87,2.82-7.64c0.87-0.9,1.87-1.64,3.04-2.2     c1.17-0.56,2.56,0,2.99,1.22c0.35,0.99-0.09,2.06-0.99,2.6c-1.91,1.13-2.91,3.19-2.91,5.65V21.34z"></path>
			<path class="st1" d="M138.72,10.65c-1.72,0-3.75,0.6-5.26,1.37c-0.48-0.34-0.98-0.64-1.52-0.9c-1.17-0.56-2.56,0-2.99,1.22     c-0.35,0.99,0.09,2.06,0.99,2.6c1.91,1.13,2.91,3.19,2.91,5.65v0.75c0,2.45-1.01,4.52-2.91,5.65c-0.91,0.53-1.34,1.61-0.99,2.6     c0.43,1.22,1.82,1.78,2.99,1.22c1.16-0.56,2.17-1.3,3.04-2.2c1.7-1.78,2.82-4.38,2.82-7.64c0-2.1-0.47-3.93-1.25-5.44     c0.77-0.25,1.46-0.34,2.06-0.36c1.06-0.03,1.82-0.47,2.24-1.34C141.58,12.28,140.46,10.64,138.72,10.65z"></path>
		</g>
		<g>
			<path class="st1" d="M114.29,42.63c-0.1,0.53-0.15,1.09-0.14,1.68c0.04,2.58,1.19,4.56,2.62,5.94c1.46,1.38,3.19,2.22,5.27,2.69     c1.08,0.25,2.17-0.35,2.51-1.4c0.38-1.15-0.23-2.38-1.39-2.71c-1.17-0.33-2.05-0.88-2.81-1.62c-0.78-0.75-1.32-1.69-1.34-2.98     c0-0.28,0.02-0.54,0.06-0.79c0.17-1.14-0.56-2.25-1.63-2.63C116.06,40.32,114.56,41.17,114.29,42.63z"></path>
			<path class="st1" d="M129.46,35.04l-4.34,0c-3.11,0.05-4.88-1.44-5.59-2.11c-0.78-0.72-1.95-0.8-2.78-0.13     c-1.03,0.83-1.14,2.37-0.21,3.31c1.67,1.88,4.49,3.34,7.75,3.34h4.34c1.91-0.02,4.2,0.16,5.35,1.35     c0.71,0.74,1.28,1.61,1.32,2.81c0,0.07,0,0.62,0,0.68c-0.05,1.2-0.46,2.18-1.18,2.9c-0.92,0.92-2.27,1.26-3.74,1.64     c-1.17,0.33-1.83,1.59-1.44,2.71c0.36,1.05,1.44,1.65,2.51,1.4c2.6-0.54,4.99-1.38,6.65-3.01c1.41-1.41,2.24-3.4,2.24-5.99     c0-2.58-0.83-4.68-2.24-6.09C136.33,36.12,133.31,35.04,129.46,35.04z"></path>
		</g>
	</g>
	<g>
		<path class="st1" d="M97.86,11.2c-1.38,0-2.5,1.12-2.5,2.5v24.1c0,1.38,1.12,2.5,2.5,2.5c1.38,0,2.5-1.12,2.5-2.5V13.7    C100.36,12.32,99.24,11.2,97.86,11.2z"></path>
		<path class="st1" d="M111.27,15.17c-1.22,0.04-2.76,0.37-4.57,1.63c-0.86,0.6-2.04,0.47-2.76-0.3c-0.88-0.94-0.77-2.45,0.25-3.24    c0.58-0.45,1.2-0.85,1.83-1.19c1.52-0.79,3.61-1.42,5.36-1.42c1.74,0,2.86,1.63,2.12,3.18C113.09,14.7,112.33,15.14,111.27,15.17z    "></path>
	</g>
	<g>
		<path class="st1" d="M162.66,11.2c-1.38,0-2.5,1.12-2.5,2.5v24.1c0,1.38,1.12,2.5,2.5,2.5c1.38,0,2.5-1.12,2.5-2.5V13.7    C165.16,12.32,164.04,11.2,162.66,11.2z"></path>
		<path class="st1" d="M176.07,15.17c-1.22,0.04-2.76,0.37-4.57,1.63c-0.86,0.6-2.04,0.47-2.76-0.3c-0.88-0.94-0.77-2.45,0.25-3.24    c0.58-0.45,1.2-0.85,1.83-1.19c1.52-0.79,3.61-1.42,5.36-1.42c1.74,0,2.86,1.63,2.12,3.18C177.9,14.7,177.13,15.14,176.07,15.17z"></path>
	</g>
</g>
</svg>
