<svg xmlns="http://www.w3.org/2000/svg" viewBox="0 0 112 28" width="112" height="28" fill="none" role="img" aria-label="You.com">
  <title>You.com</title>
  <!-- Official You.com wordmark (cube glyph + "you" lettering) — brand asset extracted from the live you.com navbar inline SVG; charcoal ink #121212 (You.com primary text). -->
  <g><path fill-rule="evenodd" clip-rule="evenodd" d="M16.2936 0.5295C14.931 -0.1765 13.3081 -0.1765 11.9454 0.5295L2.53237 5.40803C0.976569 6.21398 0 7.81634 0 9.56151V18.5142C0 20.261 0.976569 21.8618 2.53237 22.6677L11.9454 27.5463C12.3683 27.7652 12.815 27.9159 13.273 28V21.619C13.273 17.897 10.238 14.8811 6.49607 14.8811H3.38926V13.1963H6.49607C10.2396 13.1963 13.273 10.1787 13.273 6.4583V3.36936H14.9676V6.4583C14.9676 10.1802 18.0027 13.1963 21.7445 13.1963H28.239V9.56151C28.239 7.8148 27.2625 6.21398 25.7066 5.40803L16.2936 0.5295ZM28.239 14.8811H21.7445C18.001 14.8811 14.9676 17.8986 14.9676 21.619V28C15.424 27.9175 15.8724 27.7652 16.2952 27.5463L25.7082 22.6677C27.264 21.8618 28.2406 20.2594 28.2406 18.5142V14.8795L28.239 14.8811Z" fill="#121212"/><path d="M47.9324 8.93945H46.1516C46.0638 8.93945 45.9857 8.99496 45.9585 9.07749L43.4661 16.3358C43.4038 16.5198 43.1405 16.5198 43.0783 16.3358L40.5842 9.07749C40.5555 8.99496 40.4789 8.93945 40.3911 8.93945H38.6119C38.4683 8.93945 38.3678 9.08225 38.4205 9.21546L42.1639 19.0773C42.1815 19.1249 42.1815 19.174 42.1639 19.2216L41.8369 20.0895C41.5209 20.989 41.2863 21.3031 40.321 21.3031H38.9534C38.8401 21.3031 38.7491 21.3936 38.7491 21.5062V22.8198C38.7491 22.9325 38.8401 23.0229 38.9534 23.0229H41.0102C42.7224 23.0229 43.332 21.9663 43.8618 20.5194L48.1239 9.21546C48.1733 9.08225 48.076 8.93945 47.9324 8.93945Z" fill="#121212"/><path d="M53.3536 8.70508C50.1862 8.70508 48.2969 10.9738 48.2969 14.0263C48.2969 17.0788 50.1846 19.3475 53.3536 19.3475C56.5227 19.3475 58.4279 17.0788 58.4279 14.0263C58.4279 10.9738 56.5386 8.70508 53.3536 8.70508ZM53.3536 17.5848C51.367 17.5848 50.4223 16.1173 50.4223 14.0263C50.4223 11.9352 51.367 10.4677 53.3536 10.4677C55.3403 10.4677 56.304 11.9352 56.304 14.0263C56.304 16.1173 55.3594 17.5848 53.3536 17.5848Z" fill="#121212"/><path d="M68.6088 8.93945H66.9524C66.8392 8.93945 66.7483 9.02989 66.7483 9.14252V14.5716H66.7275C66.7275 17.0751 64.8988 17.5257 64.1105 17.5257C62.6154 17.5257 61.9659 16.5865 61.9659 15.276V9.14406C61.9659 9.03143 61.875 8.94099 61.7617 8.94099H60.1261C60.0128 8.94099 59.9219 9.03143 59.9219 9.14406V15.4933C59.9219 17.5875 61.0819 19.3454 63.5617 19.3454C64.993 19.3454 66.0445 18.6838 66.7354 17.7858C66.7657 17.7478 66.8264 17.7668 66.8264 17.816V18.9075C66.8264 19.0202 66.9174 19.1106 67.0307 19.1106H68.6072C68.7205 19.1106 68.8115 19.0202 68.8115 18.9075V9.14406C68.8115 9.03143 68.7205 8.94099 68.6072 8.94099L68.6088 8.93945Z" fill="#121212"/><path d="M83.4808 15.4916H81.7831C81.6887 15.4916 81.6061 15.5551 81.5837 15.6471C81.3073 16.8465 80.441 17.5842 79.1569 17.5842C77.3277 17.5842 76.3816 16.1167 76.3816 14.0256C76.3816 11.9347 77.3263 10.4671 79.1569 10.4671C80.4221 10.4671 81.287 11.1684 81.5802 12.3297C81.6026 12.4201 81.6845 12.4804 81.7782 12.4804H83.4794C83.6088 12.4804 83.704 12.363 83.6823 12.2377C83.2897 10.1212 81.7159 8.70605 79.1569 8.70605C76.1472 8.70605 74.2578 10.9748 74.2578 14.0272C74.2578 17.0797 76.1458 19.3484 79.1569 19.3484C81.6026 19.3484 83.2813 17.8936 83.6823 15.7376C83.704 15.6122 83.6088 15.4948 83.4794 15.4948V15.4916H83.4808Z" fill="#121212"/><path d="M89.8065 8.70508C86.6394 8.70508 84.75 10.9738 84.75 14.0263C84.75 17.0788 86.6394 19.3475 89.8065 19.3475C92.9744 19.3475 94.8826 17.0788 94.8826 14.0263C94.8826 10.9738 92.9933 8.70508 89.8065 8.70508ZM89.8065 17.5848C87.8199 17.5848 86.8738 16.1173 86.8738 14.0263C86.8738 11.9352 87.8185 10.4677 89.8065 10.4677C91.7953 10.4677 92.7574 11.9352 92.7574 14.0263C92.7574 16.1173 91.8128 17.5848 89.8065 17.5848Z" fill="#121212"/><path d="M107.841 8.70508C106.268 8.70508 105.198 9.50469 104.526 10.5629C104.506 10.5978 104.457 10.5947 104.439 10.5566C103.916 9.44918 102.905 8.70508 101.449 8.70508C99.992 8.70508 99.09 9.35713 98.4917 10.2265C98.463 10.2678 98.3993 10.2472 98.3993 10.1964V9.14454C98.3993 9.03191 98.3083 8.94147 98.195 8.94147H96.6184C96.505 8.94147 96.4141 9.03191 96.4141 9.14454V18.908C96.4141 19.0206 96.505 19.1111 96.6184 19.1111H98.2748C98.3881 19.1111 98.4791 19.0206 98.4791 18.908V13.4789C98.4791 10.9754 100.092 10.5248 100.898 10.5248C102.157 10.5248 102.806 11.4641 102.806 12.7729V18.9064C102.806 19.019 102.897 19.1095 103.011 19.1095H104.667C104.78 19.1095 104.873 19.019 104.873 18.9064V13.4773C104.873 10.9738 106.484 10.5233 107.292 10.5233C108.551 10.5233 109.199 11.4624 109.199 12.7713V18.9048C109.199 19.0174 109.291 19.1078 109.405 19.1078H111.061C111.174 19.1078 111.265 19.0174 111.265 18.9048V12.5572C111.265 10.463 110.085 8.70508 107.844 8.70508H107.841Z" fill="#121212"/><path d="M73.0801 17.158L72.0158 16.5471C71.9724 16.5233 71.9199 16.5233 71.8765 16.5471L70.8122 17.158C70.7695 17.1818 70.7422 17.2278 70.7422 17.277V18.4985C70.7422 18.5477 70.7695 18.5937 70.8108 18.6175L71.8751 19.2284C71.8975 19.2395 71.9213 19.2474 71.9437 19.2474C71.9661 19.2474 71.992 19.241 72.0123 19.2284L73.0766 18.6175C73.12 18.5937 73.1452 18.5461 73.1452 18.4985V17.277C73.1452 17.2278 73.12 17.1818 73.0766 17.158H73.0801Z" fill="#121212"/></g>
</svg>
